<svg width="25" height="20" viewBox="0 0 25 20" fill="none" xmlns="http://www.w3.org/2000/svg">
<g clip-path="url(#clip0_2558_30621)">
<path d="M24.1314 18.1027C24.0417 18.5282 23.9047 18.9301 23.6067 19.2635C23.2343 19.6802 22.7745 19.9222 22.2204 19.9806C22.0882 19.9948 21.9536 19.996 21.8202 19.996C15.3176 19.9965 8.81563 19.9942 2.31303 19.9995C1.55111 20.0001 0.913713 19.764 0.438618 19.1514C0.138807 18.7642 0.0077872 18.3175 0.00601666 17.8347C0.00129522 16.5782 -0.00814765 15.3217 0.00837738 14.0652C0.0337551 12.1985 1.46022 10.6835 3.32637 10.5873C4.30429 10.5371 5.29048 10.5519 6.26782 10.618C6.6774 10.6457 6.88928 10.5926 7.13656 10.2338C7.7952 9.2777 8.7513 8.78313 9.91867 8.76956C11.3947 8.75244 12.8719 8.73651 14.3474 8.78136C15.5696 8.81854 16.5092 9.41935 17.1554 10.4557C17.2688 10.6375 17.3679 10.7136 17.5786 10.6463C17.7108 10.6044 17.8566 10.5885 17.9965 10.5891C19.0163 10.5909 20.042 10.5342 21.0554 10.621C22.5898 10.752 23.8499 12.0209 24.083 13.5406C24.0924 13.6014 24.1143 13.6604 24.1302 13.7206C24.1314 15.1813 24.1314 16.642 24.1314 18.1027ZM16.2619 18.5719C16.266 18.491 16.2708 18.4367 16.2708 18.3824C16.2714 16.3811 16.2767 14.3798 16.269 12.3785C16.2643 11.0713 15.3702 10.1842 14.0582 10.1771C12.7321 10.1701 11.4053 10.1724 10.0792 10.1789C9.86142 10.1801 9.63597 10.1978 9.42823 10.2574C8.43555 10.5436 7.8678 11.3256 7.86603 12.4003C7.86189 14.3857 7.86485 16.3717 7.86544 18.357C7.86544 18.4249 7.8737 18.4934 7.87901 18.5713C10.6765 18.5719 13.4586 18.5719 16.2619 18.5719ZM6.45137 18.5701C6.45137 18.4609 6.45137 18.3688 6.45137 18.2768C6.45137 16.3622 6.45137 14.4477 6.45137 12.5331C6.45137 11.9984 6.45137 11.9902 5.89837 11.9843C5.12936 11.976 4.36036 11.9772 3.59136 11.9849C3.40486 11.9866 3.21305 12.0073 3.03423 12.0569C2.02325 12.3342 1.42481 13.1245 1.42009 14.1868C1.41477 15.3719 1.41832 16.5564 1.41891 17.7415C1.4195 18.3252 1.67859 18.5831 2.26876 18.5837C3.57896 18.5848 4.88975 18.5842 6.19995 18.5837C6.27549 18.5825 6.35163 18.5754 6.45137 18.5701ZM17.6848 18.5488C17.7303 18.5648 17.7515 18.5789 17.7728 18.5789C19.201 18.5795 20.6287 18.5848 22.0569 18.5748C22.4328 18.5724 22.7126 18.2703 22.7143 17.8808C22.7208 16.6095 22.7385 15.3377 22.7084 14.0676C22.6825 12.9474 21.9164 12.1241 20.8004 12.0161C20.1783 11.9559 19.5469 11.9837 18.9195 11.9837C18.5748 11.9837 18.2308 12.0085 17.8861 12.0185C17.7309 12.0232 17.6789 12.0864 17.6795 12.2516C17.6866 14.2606 17.6848 16.269 17.6848 18.2779C17.6848 18.3694 17.6848 18.4615 17.6848 18.5488Z" fill="url(#paint0_linear_2558_30621)"/>
<path d="M16.2621 4.19974C16.2567 6.50557 14.3564 8.39946 12.0594 8.38883C9.75002 8.37762 7.86794 6.4855 7.87502 4.18203C7.88151 1.86971 9.76832 -0.0076489 12.0771 2.34328e-05C14.3918 0.00769576 16.2674 1.88978 16.2621 4.19974ZM12.0724 1.4135C10.5344 1.41173 9.28791 2.65583 9.2885 4.19266C9.28909 5.72417 10.5491 6.98184 12.0765 6.97535C13.5992 6.96886 14.8444 5.72181 14.8486 4.20092C14.8521 2.66291 13.6104 1.41586 12.0724 1.4135Z" fill="url(#paint1_linear_2558_30621)"/>
<path d="M4.71118 3.89873C6.43746 3.8887 7.86746 5.3128 7.86333 7.03849C7.8592 8.75827 6.45103 10.1688 4.72948 10.1777C3.00557 10.1865 1.57733 8.76063 1.5791 7.03318C1.58087 5.31044 2.98137 3.90877 4.71118 3.89873ZM2.99553 7.04144C3.00144 7.98455 3.79169 8.77008 4.72594 8.7624C5.66787 8.75473 6.45575 7.96212 6.44749 7.03082C6.43923 6.08476 5.65783 5.31103 4.71473 5.31517C3.76749 5.3193 2.98963 6.1001 2.99553 7.04144Z" fill="url(#paint2_linear_2558_30621)"/>
<path d="M19.415 3.89868C21.1395 3.8975 22.54 5.28974 22.5577 7.02309C22.5748 8.74111 21.146 10.177 19.418 10.1782C17.6923 10.1794 16.2623 8.74583 16.2735 7.02604C16.2841 5.29977 17.6911 3.90045 19.415 3.89868ZM19.4469 5.3157C18.5103 5.28856 17.7336 6.03513 17.6899 7.00539C17.6486 7.9178 18.4259 8.72222 19.3855 8.76176C20.305 8.79953 21.1024 8.02876 21.1395 7.06677C21.1749 6.14018 20.4048 5.34344 19.4469 5.3157Z" fill="url(#paint3_linear_2558_30621)"/>
</g>
<defs>
<linearGradient id="paint0_linear_2558_30621" x1="-3.75057" y1="10.6268" x2="11.2344" y2="30.0823" gradientUnits="userSpaceOnUse">
<stop stop-color="#20D4FE"/>
<stop offset="1" stop-color="#B722FF"/>
</linearGradient>
<linearGradient id="paint1_linear_2558_30621" x1="6.57185" y1="1.39819" x2="16.8111" y2="7.59274" gradientUnits="userSpaceOnUse">
<stop stop-color="#20D4FE"/>
<stop offset="1" stop-color="#B722FF"/>
</linearGradient>
<linearGradient id="paint2_linear_2558_30621" x1="0.60268" y1="4.94521" x2="8.27041" y2="9.58891" gradientUnits="userSpaceOnUse">
<stop stop-color="#20D4FE"/>
<stop offset="1" stop-color="#B722FF"/>
</linearGradient>
<linearGradient id="paint3_linear_2558_30621" x1="15.297" y1="4.9453" x2="22.9652" y2="9.58904" gradientUnits="userSpaceOnUse">
<stop stop-color="#20D4FE"/>
<stop offset="1" stop-color="#B722FF"/>
</linearGradient>
<clipPath id="clip0_2558_30621">
<rect width="24.1318" height="20" fill="white"/>
</clipPath>
</defs>
</svg>
