<svg width="17" height="9" viewBox="0 0 17 9" fill="none" xmlns="http://www.w3.org/2000/svg">
<g clip-path="url(#clip0_2537_27185)">
<path d="M16.5714 4.33192C16.4635 4.48271 16.3772 4.65503 16.2478 4.78427C15.1818 5.85266 14.1116 6.90812 13.0414 7.9679C12.7565 8.25223 12.3854 8.27808 12.1135 8.03683C11.8244 7.78265 11.8158 7.36477 12.1006 7.08044C12.7997 6.38685 13.4988 5.69326 14.1979 4.99967C14.2411 4.9609 14.2929 4.93074 14.3403 4.89628C14.3317 4.87904 14.3231 4.86181 14.3144 4.84458C14.254 4.84458 14.1936 4.84458 14.1289 4.84458C9.68824 4.84458 5.2433 4.84027 0.802678 4.84889C0.405655 4.8532 0.129464 4.71965 0 4.33192C0 4.24576 0 4.1596 0 4.07344C0.129464 3.68572 0.405655 3.55217 0.806994 3.55217C5.2433 3.56079 9.67961 3.55648 14.1202 3.55648C14.185 3.55648 14.2497 3.55648 14.3533 3.55648C14.2885 3.48755 14.2497 3.44447 14.2065 3.40139C13.5074 2.7078 12.8083 2.01421 12.1092 1.32061C11.9193 1.13106 11.8589 0.907045 11.9323 0.657179C12.0013 0.424546 12.1653 0.273765 12.407 0.217761C12.653 0.161756 12.8601 0.243609 13.0371 0.420238C13.8182 1.19568 14.6036 1.97543 15.389 2.75088C15.6781 3.03952 15.9759 3.31954 16.2564 3.61679C16.3815 3.75034 16.4722 3.91835 16.5801 4.06913C16.5714 4.1596 16.5714 4.24576 16.5714 4.33192Z" fill="url(#paint0_linear_2537_27185)"/>
</g>
<defs>
<linearGradient id="paint0_linear_2537_27185" x1="8.29003" y1="0.200317" x2="8.29003" y2="8.20105" gradientUnits="userSpaceOnUse">
<stop stop-color="#20D4FE"/>
<stop offset="1" stop-color="#B722FF"/>
</linearGradient>
<clipPath id="clip0_2537_27185">
<rect width="16.5714" height="8" fill="white" transform="translate(0 0.204834)"/>
</clipPath>
</defs>
</svg>
