<svg width="8" height="15" viewBox="0 0 8 15" fill="none" xmlns="http://www.w3.org/2000/svg">
<g clip-path="url(#clip0_2558_30592)">
<path d="M1.11974 1.90245e-05C1.42528 0.0622939 1.6448 0.254179 1.85809 0.46786C3.78783 2.40267 5.72069 4.33436 7.65394 6.26566C7.95831 6.56964 8.08598 6.92305 7.93885 7.33679C7.88592 7.48625 7.78784 7.6326 7.67535 7.74547C5.68917 9.73983 3.69792 11.7299 1.70629 13.7192C1.40465 14.0208 1.04267 14.1236 0.639055 13.9726C0.259956 13.8313 0.044718 13.5409 0.0050177 13.1365C-0.0272875 12.81 0.10349 12.541 0.332351 12.3133C0.792407 11.8556 1.25052 11.396 1.70941 10.9375C2.97631 9.67094 4.24283 8.40442 5.51013 7.1379C5.54555 7.10248 5.58603 7.07251 5.67555 6.99623C5.60626 6.95691 5.54944 6.93862 5.51168 6.90126C3.78783 5.18052 2.06632 3.45784 0.343248 1.73593C0.0482205 1.44091 -0.0782756 1.09878 0.0497773 0.689326C0.150585 0.366664 0.367769 0.152983 0.69121 0.0494499C0.742976 0.033103 0.794353 0.0163669 0.84573 -0.000370063C0.937196 1.90325e-05 1.02827 1.90285e-05 1.11974 1.90245e-05Z" fill="white"/>
</g>
<defs>
<clipPath id="clip0_2558_30592">
<rect width="14.0415" height="8" fill="white" transform="translate(0 14.0415) rotate(-90)"/>
</clipPath>
</defs>
</svg>
