<svg width="22" height="22" viewBox="0 0 22 22" fill="none" xmlns="http://www.w3.org/2000/svg">
<g clip-path="url(#clip0_2558_30678)">
<path d="M11.6798 0C12.0407 0.0430213 12.4031 0.0747495 12.7624 0.130139C15.5496 0.558739 17.933 1.75527 19.7759 3.91762C21.308 5.71484 22.0679 7.80675 21.9743 10.1804C21.9259 11.4119 21.5914 12.5762 21.0429 13.677C20.8202 14.1244 20.3314 14.2906 19.899 14.0862C19.4817 13.8883 19.2941 13.407 19.4941 12.9596C19.7813 12.3181 20.0356 11.6679 20.1577 10.9726C20.4314 9.41036 20.1997 7.92075 19.464 6.52149C18.3293 4.36289 16.524 3.00611 14.245 2.23926C12.8694 1.77624 11.4513 1.62943 10.0117 1.7671C7.93645 1.96553 6.06287 2.6899 4.47592 4.06067C2.989 5.34432 2.02049 6.94041 1.77419 8.91454C1.56123 10.6252 1.94735 12.2121 2.87876 13.6609C3.09064 13.9905 3.33747 14.2997 3.58646 14.6036C3.86502 14.9434 3.91665 15.2941 3.7408 15.6995C3.35146 16.5976 2.97717 17.5021 2.59697 18.404C2.56202 18.4868 2.53029 18.5712 2.48404 18.6874C2.59321 18.6454 2.67118 18.618 2.74701 18.5863C3.90535 18.0974 5.06585 17.6134 6.22044 17.1155C6.5431 16.9762 6.84478 16.9633 7.17174 17.0934C8.51992 17.629 9.92295 17.849 11.3706 17.8027C12.0584 17.7807 12.5075 18.3066 12.3241 18.9111C12.2133 19.2762 11.9138 19.4956 11.4798 19.5144C10.2639 19.5682 9.06629 19.4397 7.88859 19.1316C7.61916 19.0611 7.3449 18.996 7.09 18.8879C6.83941 18.7815 6.62806 18.8024 6.38177 18.9084C4.68834 19.6354 2.98846 20.3491 1.2902 21.0648C0.800295 21.2713 0.380299 21.1579 0.128087 20.7529C0.0764617 20.6696 0.0415069 20.5755 -0.000976562 20.4867C-0.000976562 20.3722 -0.000976562 20.2576 -0.000976562 20.1431C0.0474224 20.0264 0.0947458 19.9092 0.14422 19.793C0.722856 18.4239 1.29558 17.0526 1.88658 15.6888C1.98338 15.4661 1.95595 15.3209 1.81452 15.1349C1.04659 14.126 0.506137 13.0048 0.233489 11.7647C0.128625 11.285 0.0764617 10.794 -0.000438797 10.3079C-0.000438797 9.93576 -0.000438797 9.56363 -0.000438797 9.19096C0.0119298 9.14363 0.0318272 9.09685 0.0361293 9.04899C0.205526 7.06678 0.972917 5.33517 2.27216 3.84503C4.121 1.72354 6.48448 0.545832 9.24591 0.127988C9.59761 0.0747495 9.95253 0.0424835 10.3058 0C10.7635 0 11.2217 0 11.6798 0Z" fill="url(#paint0_linear_2558_30678)"/>
<path d="M21.9869 19.5107C21.9293 20.5029 21.4464 21.3219 20.4494 21.7602C19.4567 22.1963 18.5204 22.0301 17.6907 21.3257C17.5331 21.1918 17.3911 21.039 17.2438 20.8922C15.8354 19.4876 14.4286 18.0808 13.0169 16.6783C12.8185 16.4815 12.6803 16.2621 12.6002 15.9926C12.291 14.9515 11.9683 13.9147 11.6575 12.8747C11.48 12.2804 11.7887 11.7583 12.3576 11.6964C12.5018 11.6808 12.6577 11.7099 12.8002 11.7486C13.8758 12.0406 14.9518 12.3305 16.0204 12.6451C16.236 12.7085 16.456 12.8392 16.6168 12.9978C18.1349 14.4955 19.6379 16.0082 21.1512 17.5108C21.6868 18.041 21.974 18.6696 21.9869 19.5107ZM18.6006 17.415C17.6326 16.4411 16.6625 15.4694 15.6993 14.4912C15.5488 14.3379 15.3863 14.2363 15.1777 14.1836C14.7045 14.0642 14.235 13.9282 13.7316 13.7905C13.8903 14.3175 14.0333 14.8096 14.1904 15.2973C14.2258 15.407 14.2947 15.5167 14.3759 15.599C15.1255 16.3562 15.8822 17.1064 16.6356 17.8598C16.8926 18.1168 17.1465 18.3776 17.3933 18.6282C17.8058 18.2142 18.2032 17.8146 18.6006 17.415ZM18.6619 19.8721C19.1007 20.3539 19.6589 20.405 20.0359 19.9963C20.4053 19.5957 20.3279 19.0385 19.8611 18.6702C19.4631 19.0687 19.0668 19.4661 18.6619 19.8721Z" fill="url(#paint1_linear_2558_30678)"/>
<path d="M7.08103 8.6775C7.55319 8.67535 7.94307 9.06469 7.94199 9.53685C7.94092 10.009 7.54996 10.3967 7.0778 10.3924C6.61425 10.3887 6.23243 10.0079 6.22759 9.54384C6.22222 9.07168 6.60887 8.67965 7.08103 8.6775Z" fill="url(#paint2_linear_2558_30678)"/>
<path d="M10.9489 10.3923C10.4768 10.3917 10.089 10.0008 10.0928 9.52807C10.0966 9.05591 10.4897 8.67087 10.9618 8.67733C11.4254 8.68378 11.805 9.06667 11.8072 9.53076C11.8099 10.0024 11.4211 10.3928 10.9489 10.3923Z" fill="url(#paint3_linear_2558_30678)"/>
<path d="M15.6714 9.52913C15.6747 10.0013 15.2869 10.3922 14.8148 10.3922C14.3426 10.3922 13.9544 10.0018 13.957 9.52967C13.9597 9.06612 14.3394 8.68323 14.803 8.67731C15.2751 8.6714 15.6682 9.05698 15.6714 9.52913Z" fill="url(#paint4_linear_2558_30678)"/>
</g>
<defs>
<linearGradient id="paint0_linear_2558_30678" x1="-4.58289" y1="3.5276" x2="25.0022" y2="22.6267" gradientUnits="userSpaceOnUse">
<stop stop-color="#20D4FE"/>
<stop offset="1" stop-color="#B722FF"/>
</linearGradient>
<linearGradient id="paint1_linear_2558_30678" x1="9.44403" y1="13.4101" x2="23.6642" y2="22.3101" gradientUnits="userSpaceOnUse">
<stop stop-color="#20D4FE"/>
<stop offset="1" stop-color="#B722FF"/>
</linearGradient>
<linearGradient id="paint2_linear_2558_30678" x1="5.87019" y1="8.96332" x2="8.22855" y2="10.4287" gradientUnits="userSpaceOnUse">
<stop stop-color="#20D4FE"/>
<stop offset="1" stop-color="#B722FF"/>
</linearGradient>
<linearGradient id="paint3_linear_2558_30678" x1="9.73543" y1="8.96308" x2="12.0938" y2="10.4285" gradientUnits="userSpaceOnUse">
<stop stop-color="#20D4FE"/>
<stop offset="1" stop-color="#B722FF"/>
</linearGradient>
<linearGradient id="paint4_linear_2558_30678" x1="13.5997" y1="8.96308" x2="15.9581" y2="10.4285" gradientUnits="userSpaceOnUse">
<stop stop-color="#20D4FE"/>
<stop offset="1" stop-color="#B722FF"/>
</linearGradient>
<clipPath id="clip0_2558_30678">
<rect width="21.9871" height="22" fill="white"/>
</clipPath>
</defs>
</svg>
