<svg width="24" height="24" viewBox="0 0 24 24" fill="none" xmlns="http://www.w3.org/2000/svg">
<g clip-path="url(#clip0_2558_30656)">
<path d="M0.173828 11.1259C1.24458 9.67085 2.31476 8.21577 3.38552 6.7607C3.6726 6.37002 3.95736 5.9776 4.24676 5.58866C4.47943 5.27669 4.74567 5.27611 4.97429 5.58692C6.28177 7.36727 7.5881 9.1482 8.895 10.9291C9.00207 11.0756 9.09989 11.2237 9.00439 11.4153C8.90542 11.6127 8.72831 11.6347 8.53441 11.6329C8.09743 11.6289 7.66044 11.6318 7.20552 11.6318C7.20552 12.4965 7.20552 13.3404 7.20552 14.2022C6.9549 14.2022 6.72165 14.2022 6.47219 14.2022C6.46814 14.1362 6.46004 14.0696 6.46004 14.0031C6.45946 13.1332 6.45888 12.2627 6.46004 11.3927C6.46062 11.0154 6.58158 10.8944 6.95664 10.8927C7.26976 10.8915 7.58289 10.8921 7.94984 10.8921C6.8241 9.35714 5.72672 7.86098 4.61139 6.33992C3.4978 7.85866 2.40332 9.35193 1.28336 10.8794C2.40621 10.8794 3.4926 10.8794 4.59461 10.8794C4.59461 11.1375 4.59461 11.3713 4.59461 11.6225C3.99383 11.6225 3.39652 11.6225 2.77316 11.6225C2.77316 13.8451 2.77316 16.0497 2.77316 18.2705C2.51444 18.2705 2.28119 18.2705 2.03 18.2705C2.03 16.0653 2.03 13.8665 2.03 11.6318C1.75565 11.6318 1.49752 11.6318 1.23938 11.6318C1.05474 11.6318 0.869531 11.6243 0.684897 11.6335C0.45454 11.6451 0.279167 11.5698 0.174407 11.3569C0.173828 11.2799 0.173828 11.2029 0.173828 11.1259Z" fill="url(#paint0_linear_2558_30656)"/>
<path d="M2.94603 18.4447H1.85559V11.806H1.23861C1.18131 11.806 1.12343 11.8055 1.06613 11.8043C0.937057 11.8026 0.815511 11.8014 0.693387 11.8072C0.375633 11.824 0.14817 11.6978 0.0179424 11.4333L0 11.3974V11.0692L3.24526 6.65831C3.34771 6.5194 3.44957 6.37991 3.55144 6.24042C3.7326 5.99212 3.92071 5.73572 4.10765 5.48511C4.29518 5.23391 4.4856 5.18066 4.61294 5.18066C4.61351 5.18066 4.61409 5.18066 4.61467 5.18066C4.74143 5.18124 4.93069 5.23391 5.11474 5.48453C6.08711 6.80821 7.05831 8.13248 8.0301 9.45675L9.03545 10.8273C9.13732 10.9662 9.30806 11.1983 9.15989 11.4941C9.00072 11.8124 8.68528 11.8095 8.53306 11.8078C8.22515 11.8049 7.92186 11.8055 7.60121 11.806C7.52771 11.806 7.4542 11.806 7.38012 11.8066V14.377H6.30878L6.29836 14.215C6.29721 14.1953 6.29547 14.1756 6.29373 14.1553C6.28968 14.1073 6.28563 14.0569 6.28563 14.0043C6.28505 13.1338 6.28447 12.2639 6.28563 11.3939C6.28621 10.924 6.48647 10.7226 6.95471 10.7208C7.16655 10.7197 7.3778 10.7202 7.60585 10.7202L4.61062 6.63574L1.62523 10.7075H4.76747V11.7979H2.94603V18.4447ZM2.20286 18.0975H2.59876V11.4495H4.4202V11.0536H0.939372L4.61004 6.04711L8.29113 11.0664H7.61279C7.38243 11.0664 7.16944 11.0658 6.95587 11.0669C6.67516 11.0681 6.6329 11.1109 6.63232 11.3934C6.63117 12.2633 6.63175 13.1332 6.63232 14.0031C6.63232 14.0118 6.63232 14.0199 6.6329 14.0286H7.03111V11.4582H7.20475C7.33729 11.4582 7.46867 11.4582 7.5989 11.4576C7.92071 11.457 8.22457 11.4565 8.5348 11.4594C8.73043 11.4611 8.79988 11.4339 8.84792 11.3378C8.89017 11.2527 8.87223 11.1931 8.75416 11.0322L7.74881 9.66164C6.7776 8.33737 5.80582 7.01311 4.83403 5.68942C4.75763 5.58524 4.67892 5.52736 4.61294 5.52736C4.61294 5.52736 4.61294 5.52736 4.61236 5.52736C4.54522 5.52736 4.46477 5.58581 4.38547 5.69173C4.19968 5.94119 4.01215 6.19701 3.83157 6.44474C3.72971 6.58422 3.62726 6.72371 3.52482 6.8632L0.347272 11.1827V11.3129C0.414412 11.4252 0.512227 11.4686 0.675445 11.4599C0.808566 11.453 0.941687 11.4547 1.07018 11.4565C1.12632 11.457 1.18246 11.4576 1.23861 11.4576H2.20286V18.0975Z" fill="url(#paint1_linear_2558_30656)"/>
<path d="M12.0963 0.173584C12.2057 0.277766 12.3336 0.368635 12.4221 0.489023C13.7001 2.22365 14.9728 3.96233 16.2468 5.69985C16.2786 5.74326 16.3278 5.78319 16.3376 5.83181C16.366 5.96667 16.4354 6.13625 16.3822 6.23291C16.322 6.34114 16.1489 6.43722 16.0181 6.44648C15.6274 6.47426 15.2339 6.45632 14.8409 6.45632C14.7656 6.45632 14.691 6.45632 14.5984 6.45632C14.5984 6.95176 14.5984 7.42637 14.5984 7.91776C14.3477 7.91776 14.1145 7.91776 13.861 7.91776C13.861 7.28862 13.8477 6.65948 13.8679 6.03207C13.8755 5.80866 14.0601 5.71605 14.2806 5.71663C14.6169 5.71779 14.9526 5.71721 15.3421 5.71721C14.2164 4.18169 13.119 2.68552 12.0037 1.16505C10.8901 2.68321 9.79501 4.1759 8.66464 5.71721C9.00265 5.71721 9.29609 5.71721 9.58954 5.71721C10.0572 5.71779 10.1544 5.8156 10.155 6.28732C10.155 6.82559 10.155 7.36386 10.155 7.91834C9.90961 7.91834 9.67636 7.91834 9.42458 7.91834C9.42458 7.442 9.42458 6.96739 9.42458 6.45632C9.14214 6.45632 8.87647 6.45632 8.61081 6.45632C8.42618 6.45632 8.24154 6.45401 8.05633 6.4569C7.8688 6.45979 7.70211 6.42507 7.60893 6.2387C7.51864 6.05812 7.6014 5.91516 7.70616 5.77219C8.79486 4.28992 9.88183 2.80649 10.9694 1.32363C11.1743 1.04466 11.3728 0.759896 11.5864 0.487866C11.6784 0.370372 11.8022 0.277766 11.9111 0.173584C11.973 0.173584 12.0343 0.173584 12.0963 0.173584Z" fill="url(#paint2_linear_2558_30656)"/>
<path d="M10.3291 8.09203H9.25135V6.63001H8.61121C8.55449 6.63001 8.49777 6.63001 8.44047 6.62943C8.31314 6.62885 8.18638 6.62827 8.05963 6.63059C7.86863 6.63348 7.59833 6.60454 7.45421 6.31689C7.3072 6.02344 7.48258 5.7844 7.5665 5.6698C8.44857 4.46824 9.33007 3.26668 10.2116 2.06453L10.8297 1.22124C10.8893 1.13963 10.9489 1.05744 11.008 0.975257C11.1498 0.779048 11.2968 0.575893 11.4496 0.380842C11.5225 0.287657 11.6082 0.211836 11.6909 0.138909C11.7251 0.108812 11.7587 0.0787151 11.7916 0.0480394L11.842 0H12.1661L12.2165 0.0480394C12.2495 0.0792939 12.2836 0.109391 12.3183 0.139488C12.4028 0.212994 12.4902 0.288815 12.562 0.386051C13.6108 1.80987 14.674 3.26031 15.7019 4.66271L16.3872 5.59745C16.3942 5.60671 16.4023 5.6154 16.4104 5.62466C16.4445 5.66401 16.492 5.71784 16.5082 5.7954C16.5146 5.82434 16.5227 5.85443 16.5308 5.88569C16.5678 6.0246 16.6095 6.18145 16.5348 6.31689C16.4382 6.49052 16.2032 6.60744 16.0307 6.61959C15.7425 6.63985 15.4519 6.63638 15.17 6.6329C15.0612 6.63175 14.953 6.63001 14.8442 6.63001C14.843 6.63001 14.8424 6.63001 14.8413 6.63001H14.7724V8.09145H13.6878V7.91781C13.6878 7.74012 13.6866 7.56244 13.6854 7.38533C13.6825 6.94024 13.6802 6.4801 13.6947 6.02633C13.7045 5.73231 13.9332 5.54305 14.2781 5.54305C14.2793 5.54305 14.2804 5.54305 14.2816 5.54305C14.5148 5.5442 14.7487 5.54363 14.9999 5.54363H15.0004L12.0041 1.45854L9.00768 5.54363H9.58994C10.156 5.5442 10.3285 5.71784 10.3285 6.28737V7.36507L10.3291 8.09203ZM9.59862 7.74475H9.98178V7.36449V6.28679C9.98178 5.90884 9.96326 5.89032 9.58994 5.89032H8.98221H8.3224L12.0041 0.871075L15.6852 5.8909H14.9999C14.7475 5.8909 14.5137 5.89148 14.2799 5.89032C14.2787 5.89032 14.2781 5.89032 14.277 5.89032C14.046 5.89032 14.0426 6.00145 14.0414 6.03791C14.0269 6.48473 14.0292 6.9414 14.0321 7.38301C14.0327 7.5034 14.0339 7.62379 14.0339 7.74418H14.424V6.28274H14.8401C14.8413 6.28274 14.8419 6.28274 14.843 6.28274C14.953 6.28274 15.063 6.28389 15.1735 6.28563C15.4478 6.2891 15.7315 6.29258 16.0052 6.27348C16.0851 6.26769 16.1968 6.20113 16.2275 6.15309C16.2327 6.12068 16.209 6.02981 16.1939 5.9754C16.1852 5.94299 16.1765 5.91058 16.1702 5.8799C16.165 5.87296 16.1545 5.86138 16.1476 5.85328C16.1331 5.83649 16.1187 5.81971 16.1059 5.80292L15.4218 4.8676C14.3939 3.4652 13.3312 2.01534 12.2825 0.591521C12.2333 0.52496 12.1638 0.464766 12.0903 0.4011C12.0695 0.383157 12.0492 0.365215 12.0284 0.346694H11.9792C11.9601 0.364057 11.9404 0.381421 11.9207 0.398785C11.8466 0.464766 11.776 0.526697 11.7228 0.594993C11.574 0.784836 11.4293 0.985096 11.2893 1.17841C11.2296 1.26118 11.1695 1.34394 11.1093 1.42613L10.4911 2.26943C9.60962 3.47157 8.72813 4.67371 7.84605 5.87527C7.74129 6.01823 7.72335 6.07958 7.76444 6.16119C7.80438 6.24106 7.86515 6.28621 8.05384 6.28332C8.18349 6.281 8.31487 6.28158 8.44163 6.28216C8.49777 6.28216 8.55449 6.28274 8.61063 6.28274H9.59804V7.74475H9.59862Z" fill="url(#paint3_linear_2558_30656)"/>
<path d="M16.8107 23.8266C16.5531 23.8266 16.3309 23.8266 16.071 23.8266C16.071 23.7351 16.071 23.6466 16.071 23.5586C16.071 21.8952 16.0791 20.2311 16.0646 18.5677C16.0612 18.1886 15.9182 17.8627 15.5148 17.7001C14.9157 17.4593 14.3254 17.196 13.7356 16.9332C13.6175 16.8805 13.5452 16.8904 13.4555 16.9836C13.1394 17.31 12.8095 17.6231 12.4981 17.9536C12.4293 18.0271 12.3812 18.151 12.3795 18.2523C12.3685 18.8675 12.3743 19.4834 12.3743 20.1171C12.1306 20.1171 11.8974 20.1171 11.6346 20.1171C11.6346 19.6969 11.5964 19.2715 11.6439 18.8565C11.7098 18.2835 11.5374 17.8512 11.079 17.5056C10.8781 17.354 10.7224 17.1439 10.532 16.976C10.4793 16.9297 10.3618 16.9049 10.2993 16.9309C9.63951 17.2064 8.97565 17.475 8.33261 17.7863C8.04843 17.9241 7.94309 18.2372 7.94193 18.5417C7.93267 20.2126 7.9373 21.8842 7.9373 23.5557C7.9373 23.639 7.9373 23.7218 7.9373 23.8185C7.69074 23.8185 7.4627 23.8185 7.19761 23.8185C7.19761 23.7415 7.19761 23.661 7.19761 23.58C7.19761 21.8703 7.16867 20.1594 7.21382 18.4508C7.22944 17.8685 7.45864 17.3216 8.0982 17.0681C8.76265 16.8047 9.40742 16.4922 10.0707 16.2254C10.2912 16.1368 10.2791 15.9481 10.3584 15.7924C10.4556 15.6014 10.3943 15.488 10.2478 15.3427C9.70202 14.8015 9.45315 14.1139 9.43115 13.3633C9.40048 12.3087 9.41263 11.253 9.42478 10.1984C9.42652 10.0734 9.5145 9.91252 9.61405 9.83149C10.2496 9.31348 10.9858 9.06865 11.8071 9.04087C12.7476 9.00846 13.6065 9.21393 14.3636 9.79445C14.5262 9.91947 14.5951 10.0653 14.5939 10.2667C14.5893 11.183 14.5916 12.0998 14.5916 13.016C14.5916 13.9519 14.3613 14.7981 13.6476 15.4579C13.6204 15.4828 13.5897 15.5152 13.5828 15.5488C13.5481 15.7143 13.7969 16.1576 13.9602 16.2283C14.6588 16.531 15.3556 16.8371 16.0571 17.1323C16.2527 17.2145 16.376 17.343 16.4848 17.5247C16.7464 17.9635 16.8257 18.4247 16.8188 18.9335C16.7968 20.4737 16.8107 22.0144 16.8107 23.5545C16.8107 23.6385 16.8107 23.7212 16.8107 23.8266ZM13.8485 12.7081C13.4259 12.6334 13.0839 12.4389 12.8529 12.0691C12.8263 12.0263 12.736 12.0054 12.6747 12.0048C12.2284 11.9996 11.7816 11.9996 11.3354 12.0048C11.274 12.0054 11.1837 12.0257 11.1571 12.0685C10.9256 12.4378 10.5847 12.6334 10.1639 12.7069C10.1309 13.354 10.1952 13.9629 10.5251 14.5243C11.0853 15.4758 12.567 15.6142 13.2876 14.7807C13.8045 14.1828 13.8745 13.4674 13.8485 12.7081ZM10.1558 11.9354C10.3613 11.8873 10.4874 11.8086 10.5303 11.6118C10.5881 11.3468 10.6946 11.2651 10.9644 11.264C11.656 11.2611 12.3482 11.2611 13.0399 11.264C13.3131 11.2651 13.419 11.3456 13.478 11.6084C13.5232 11.8104 13.6436 11.8995 13.8525 11.9198C13.8525 11.4133 13.8566 10.9219 13.8473 10.4311C13.8461 10.3721 13.7888 10.2899 13.7344 10.2592C12.5838 9.6075 11.428 9.60634 10.2773 10.2581C10.2195 10.291 10.1622 10.3837 10.161 10.4502C10.1517 10.9329 10.1558 11.4168 10.1558 11.9354ZM11.0599 15.8937C11.0408 16.0928 10.9545 16.3052 11.0234 16.3863C11.3244 16.7399 11.6705 17.0553 12.0096 17.3939C12.2967 17.1045 12.5612 16.8366 12.8275 16.5692C13.0839 16.3116 13.0891 16.2612 12.8732 15.9122C12.2938 16.1171 11.704 16.1021 11.0599 15.8937Z" fill="url(#paint4_linear_2558_30656)"/>
<path d="M16.9844 24.0001H15.898V23.5585C15.898 23.1163 15.8986 22.6741 15.8991 22.2319C15.9009 21.0315 15.902 19.79 15.8916 18.5694C15.8887 18.2065 15.7481 17.9813 15.4506 17.8615C14.8619 17.6248 14.2739 17.3632 13.7049 17.1097L13.6656 17.0923C13.6303 17.0767 13.6164 17.0755 13.6141 17.0755C13.6141 17.0761 13.6031 17.0819 13.5805 17.1044C13.4422 17.2474 13.2998 17.3892 13.162 17.527C12.9838 17.7046 12.7997 17.8881 12.6249 18.0733C12.5867 18.1138 12.5543 18.196 12.5532 18.2562C12.5451 18.7152 12.5462 19.1661 12.5474 19.643C12.5479 19.8004 12.5479 19.9584 12.5479 20.1182V20.2918H11.4616V20.1182C11.4616 19.9909 11.4581 19.8601 11.454 19.7333C11.4459 19.4404 11.4373 19.1371 11.472 18.8373C11.5322 18.317 11.3788 17.9489 10.9754 17.6445C10.848 17.5484 10.741 17.4349 10.6368 17.325C10.5627 17.2468 10.4927 17.1727 10.418 17.1062C10.4088 17.1004 10.3769 17.0929 10.3607 17.094L10.1003 17.2023C9.54057 17.4349 8.96178 17.6751 8.40962 17.9425C8.15669 18.0652 8.11733 18.3708 8.11675 18.5427C8.10981 19.7871 8.11096 21.0524 8.11154 22.2759C8.11154 22.7025 8.11212 23.129 8.11212 23.5556V23.992H7.02574V23.5799C7.02574 23.0989 7.02342 22.618 7.02111 22.137C7.01532 20.9273 7.00953 19.6772 7.04194 18.4467C7.06162 17.689 7.40542 17.1571 8.03572 16.9071C8.37605 16.7722 8.71811 16.6212 9.04918 16.4747C9.36114 16.337 9.68411 16.1946 10.0071 16.0644C10.0875 16.032 10.1043 15.9903 10.1425 15.8734C10.1587 15.8247 10.1767 15.7692 10.2044 15.7136C10.2484 15.6274 10.256 15.5944 10.1263 15.4659C9.5753 14.9189 9.28301 14.2134 9.25812 13.3684C9.22687 12.3063 9.2396 11.2338 9.25175 10.196C9.25407 10.0247 9.35999 9.81462 9.50468 9.69654C10.1437 9.17621 10.9163 8.89666 11.8019 8.86656C12.8582 8.83068 13.7304 9.08882 14.4701 9.65603C14.675 9.81288 14.7693 10.0074 14.7682 10.2672C14.7647 10.9415 14.7653 11.6274 14.7659 12.2907L14.7664 13.0159C14.7664 14.1225 14.4394 14.9629 13.7663 15.5851C13.7605 15.5903 13.7565 15.5944 13.753 15.5979C13.7599 15.713 13.9388 16.025 14.0296 16.069C14.2125 16.1483 14.396 16.2282 14.5795 16.3075C15.0854 16.5274 15.608 16.7549 16.1249 16.9719C16.3402 17.0622 16.497 17.2052 16.6342 17.4355C16.8871 17.8603 17.0011 18.3367 16.9925 18.9357C16.9768 20.0429 16.9797 21.1693 16.982 22.2585C16.9832 22.6903 16.9844 23.1221 16.9844 23.5539V24.0001ZM16.2447 23.6528H16.6365V23.555C16.6365 23.1233 16.6353 22.6921 16.6342 22.2603C16.6313 21.1693 16.6284 20.0412 16.6446 18.9311C16.6521 18.3922 16.5566 17.9859 16.335 17.6138C16.2354 17.4471 16.1353 17.3539 15.9894 17.2925C15.4708 17.0743 14.947 16.8469 14.4406 16.6264C14.2577 16.5465 14.0742 16.4672 13.8907 16.3879C13.6656 16.2907 13.3571 15.7779 13.4127 15.5134C13.43 15.4312 13.4844 15.3727 13.5296 15.3305C14.1356 14.7702 14.418 14.0346 14.418 13.0159L14.4174 12.2907C14.4169 11.6268 14.4163 10.9404 14.4197 10.2655C14.4203 10.1156 14.3752 10.0218 14.2577 9.93153C13.5846 9.41525 12.7835 9.18026 11.8129 9.21326C10.9933 9.24104 10.3104 9.48702 9.72347 9.9651C9.6598 10.0166 9.59903 10.1306 9.59845 10.1989C9.58629 11.2326 9.57356 12.3017 9.60424 13.3568C9.62623 14.1098 9.88379 14.736 10.37 15.2182C10.5262 15.3727 10.6652 15.5712 10.5129 15.8699C10.4973 15.9011 10.4846 15.9393 10.4713 15.9799C10.4284 16.1112 10.37 16.2912 10.135 16.3856C9.81723 16.5135 9.49716 16.6547 9.18809 16.7913C8.85413 16.9389 8.50859 17.0911 8.1619 17.2289C7.66414 17.4263 7.40369 17.8389 7.38748 18.4548C7.35507 19.6795 7.36086 20.9273 7.36664 22.1341C7.36896 22.6157 7.37127 23.0972 7.37127 23.5788V23.6436H7.76311V23.5545C7.76311 23.1279 7.76253 22.7013 7.76253 22.2753C7.76138 21.0512 7.7608 19.7854 7.76774 18.5398C7.77006 18.1104 7.94832 17.7782 8.25682 17.6288C8.81766 17.3574 9.40108 17.1149 9.9654 16.8805L10.2322 16.7693C10.3653 16.7138 10.554 16.763 10.6461 16.844C10.7329 16.921 10.8116 17.0037 10.888 17.0848C10.9864 17.1889 11.079 17.2873 11.1832 17.3655C11.6827 17.7423 11.8893 18.236 11.8158 18.875C11.7839 19.1499 11.7921 19.4271 11.8002 19.7211C11.8025 19.7935 11.8042 19.8676 11.8059 19.9422H12.1995C12.1995 19.8415 12.1989 19.7414 12.1989 19.6418C12.1978 19.1632 12.1972 18.7106 12.2047 18.2481C12.2076 18.1005 12.2724 17.9379 12.3708 17.8337C12.5491 17.6445 12.7355 17.4592 12.9155 17.2792C13.0521 17.1432 13.1939 17.002 13.3299 16.8614C13.4682 16.7184 13.6193 16.6906 13.8051 16.7728L13.8444 16.7902C14.4105 17.0419 14.9956 17.3024 15.5785 17.5368C16.005 17.7081 16.2331 18.0635 16.2377 18.5636C16.2481 19.786 16.2464 21.028 16.2452 22.2296C16.2447 22.6718 16.2441 23.114 16.2441 23.5562V23.6528H16.2447ZM12.0103 17.6398L11.887 17.5165C11.7967 17.4263 11.7058 17.3383 11.6161 17.2503C11.3707 17.0113 11.1172 16.7641 10.8915 16.499C10.7908 16.381 10.8243 16.2166 10.8567 16.0574C10.8689 15.9972 10.8816 15.9347 10.8874 15.8768L10.9082 15.6621L11.1137 15.7287C11.7319 15.9289 12.2881 15.9353 12.8153 15.7489L12.9473 15.7026L13.0208 15.8219C13.2772 16.2368 13.2662 16.3752 12.9508 16.6923C12.7714 16.8729 12.5919 17.0535 12.4061 17.241L12.0103 17.6398ZM11.1704 16.2912C11.3817 16.5372 11.6132 16.763 11.858 17.002C11.9078 17.0506 11.9582 17.0998 12.0079 17.149L12.1584 16.9968C12.3442 16.8087 12.5236 16.6281 12.7036 16.4475C12.7476 16.4035 12.8507 16.2994 12.8535 16.2635C12.8553 16.2374 12.8269 16.179 12.7945 16.1211C12.2904 16.2704 11.7654 16.2693 11.1988 16.1165C11.1982 16.1199 11.1976 16.1234 11.1965 16.1269C11.1861 16.179 11.1704 16.2554 11.1704 16.2912ZM12.0213 15.5035C11.9593 15.5035 11.8974 15.5006 11.8349 15.4948C11.2133 15.4387 10.6675 15.1088 10.3752 14.6122C10.0678 14.0907 9.94919 13.5003 9.98971 12.6981L9.99665 12.5598L10.1332 12.5361C10.5303 12.4666 10.8168 12.2837 11.0095 11.9764C11.094 11.841 11.2937 11.8317 11.3331 11.8311C11.7793 11.8259 12.2314 11.8259 12.6764 11.8311C12.7152 11.8317 12.9143 11.8404 13 11.977C13.1916 12.2826 13.4792 12.466 13.8786 12.5367L14.0169 12.561L14.0215 12.7016C14.047 13.4482 13.992 14.2308 13.4184 14.8935C13.0827 15.2824 12.5705 15.5035 12.0213 15.5035ZM10.3318 12.8492C10.3133 13.5113 10.4209 14.005 10.6744 14.4362C10.91 14.8368 11.3556 15.103 11.8661 15.1493C12.3737 15.1956 12.8553 15.015 13.1563 14.6672C13.6181 14.1329 13.6899 13.4835 13.6783 12.8498C13.2622 12.7462 12.9404 12.5233 12.721 12.1865C12.7083 12.183 12.6892 12.1795 12.6724 12.179C12.2302 12.1738 11.7811 12.1738 11.3371 12.179C11.3198 12.179 11.3007 12.1824 11.2879 12.1865C11.0674 12.5239 10.7462 12.7468 10.3318 12.8492ZM12.7054 12.161C12.7054 12.1616 12.7054 12.1616 12.7054 12.161C12.7054 12.1616 12.7054 12.1616 12.7054 12.161ZM11.3041 12.1604C11.3041 12.161 11.3041 12.161 11.3041 12.1604C11.3041 12.161 11.3041 12.161 11.3041 12.1604ZM9.98218 12.1541V11.9353C9.98218 11.8097 9.98218 11.6864 9.98161 11.5643C9.98103 11.1788 9.97987 10.8142 9.98739 10.4461C9.98971 10.3193 10.0794 10.17 10.1917 10.1063C11.3944 9.42509 12.6151 9.42509 13.8201 10.1075C13.9168 10.1625 14.0186 10.2967 14.021 10.427C14.0279 10.8049 14.0273 11.1753 14.0268 11.5666C14.0268 11.6835 14.0262 11.8004 14.0262 11.9185V12.1095L13.8358 12.091C13.5458 12.0632 13.3681 11.9127 13.3085 11.6447C13.268 11.4642 13.2332 11.437 13.0393 11.4364C12.3344 11.4335 11.6364 11.4335 10.9655 11.4364C10.7751 11.437 10.7404 11.4647 10.6999 11.6482C10.631 11.9631 10.3937 12.0568 10.1952 12.1037L9.98218 12.1541ZM12.0027 11.0879C12.3454 11.0879 12.6926 11.0885 13.0411 11.0903C13.3959 11.092 13.5718 11.2309 13.6476 11.5701C13.6552 11.6048 13.665 11.6343 13.6795 11.6581C13.6795 11.6274 13.6795 11.5967 13.6795 11.566C13.6801 11.1794 13.6806 10.8142 13.6743 10.4426C13.6691 10.4316 13.6563 10.4142 13.6476 10.4085C12.5584 9.79204 11.4523 9.79146 10.363 10.4085C10.3543 10.4154 10.337 10.4438 10.3341 10.4576C10.3271 10.8171 10.3277 11.1794 10.3289 11.5631C10.3289 11.5944 10.3289 11.6256 10.3289 11.6569C10.3445 11.6337 10.3532 11.6065 10.3601 11.5747C10.4354 11.2321 10.6102 11.092 10.9632 11.0903C11.3041 11.0885 11.6514 11.0879 12.0027 11.0879Z" fill="url(#paint5_linear_2558_30656)"/>
<path d="M21.9904 11.6318C21.9904 13.8543 21.9904 16.0537 21.9904 18.2693C21.7404 18.2693 21.5071 18.2693 21.2559 18.2693C21.2559 16.0676 21.2559 13.8688 21.2559 11.6434C20.636 11.6434 20.0329 11.6434 19.4142 11.6434C19.4142 11.3841 19.4142 11.1508 19.4142 10.8938C20.5064 10.8938 21.5939 10.8938 22.7359 10.8938C21.6119 9.36004 20.518 7.86735 19.3986 6.33993C18.2885 7.85288 17.1911 9.34905 16.059 10.8921C16.4068 10.8921 16.709 10.8915 17.0111 10.8921C17.4371 10.8927 17.5494 11.0021 17.5494 11.4199C17.5499 12.3425 17.5494 13.2657 17.5494 14.2039C17.3011 14.2039 17.0678 14.2039 16.816 14.2039C16.816 13.3537 16.816 12.5098 16.816 11.6318C16.5023 11.6318 16.2054 11.6318 15.9091 11.6318C15.7395 11.6318 15.5705 11.6318 15.4009 11.6318C15.2273 11.6312 15.0513 11.5849 15.0119 11.409C14.983 11.2781 15.0067 11.0952 15.082 10.9876C15.5132 10.3689 15.9664 9.76635 16.4126 9.15805C17.2681 7.99121 18.1241 6.82496 18.9801 5.65812C19.2811 5.24834 19.5149 5.25007 19.8194 5.66507C21.0938 7.40259 22.3683 9.14011 23.6428 10.8776C23.6793 10.9274 23.7175 10.976 23.7493 11.0281C23.9293 11.3227 23.7788 11.6185 23.4322 11.6289C23.0397 11.6405 22.6467 11.6318 22.2543 11.6324C22.1727 11.6318 22.0899 11.6318 21.9904 11.6318Z" fill="url(#paint6_linear_2558_30656)"/>
<path d="M22.1636 18.4436H21.0819V11.8176H19.2402V10.7208H22.3928L19.3982 6.63461L16.4018 10.7191C16.6136 10.7191 16.8127 10.7191 17.0112 10.7191C17.5362 10.7197 17.7226 10.9037 17.7232 11.4206C17.7237 12.0735 17.7237 12.7263 17.7232 13.3844V14.3782H16.6426V11.8061H15.8074C15.6719 11.8061 15.5359 11.8061 15.4005 11.8061C14.9843 11.8049 14.872 11.5809 14.8425 11.4472C14.8009 11.2603 14.8408 11.0305 14.9398 10.8887C15.265 10.4222 15.6071 9.958 15.9388 9.50944C16.0505 9.35838 16.1616 9.20732 16.2727 9.05567L16.4492 8.8149C17.2462 7.72851 18.0426 6.64213 18.8396 5.55575C18.9583 5.39426 19.1452 5.17896 19.3953 5.17896C19.6476 5.17896 19.8375 5.39832 19.9584 5.56269L23.8051 10.8059C23.8357 10.847 23.8676 10.8899 23.8971 10.9379C24.0175 11.1353 24.0325 11.3483 23.9382 11.5225C23.8456 11.6938 23.6627 11.7957 23.4369 11.8026C23.1603 11.8107 22.8801 11.809 22.6087 11.8072C22.4906 11.8066 22.3726 11.8061 22.2539 11.8061H22.163V18.4436H22.1636ZM21.4291 18.0963H21.8163V11.4582H22.2539C22.3731 11.4582 22.4918 11.4588 22.611 11.4594C22.879 11.4611 23.1562 11.4629 23.4265 11.4547C23.5249 11.4519 23.6002 11.416 23.6326 11.3564C23.6661 11.2938 23.6546 11.207 23.6007 11.1185C23.5799 11.0837 23.5539 11.049 23.5267 11.0126L23.5023 10.9796L19.6789 5.767C19.5243 5.55632 19.4352 5.52507 19.3958 5.52507C19.3571 5.52507 19.2697 5.55575 19.1198 5.76006C18.3228 6.84644 17.5258 7.93225 16.7294 9.01863L16.5528 9.26056C16.4417 9.41221 16.33 9.56385 16.2183 9.71491C15.8884 10.1617 15.5469 10.6242 15.2245 11.0866C15.1817 11.148 15.1614 11.2811 15.1817 11.3714C15.1944 11.4287 15.2685 11.4582 15.4011 11.4582C15.5365 11.4582 15.6719 11.4582 15.8074 11.4582H16.9898V14.0304H17.3759V13.3838C17.3759 12.7258 17.3759 12.0729 17.3759 11.4206C17.3759 11.1 17.3417 11.067 17.0107 11.0664C16.8075 11.0664 16.6049 11.0664 16.3879 11.0664H15.7159L19.3982 6.04714L23.0781 11.0681H19.5874V11.4704H21.4291V18.0963Z" fill="url(#paint7_linear_2558_30656)"/>
<path d="M9.77347 23.8256C9.52517 23.8256 9.30349 23.8256 9.06445 23.8256C9.06445 23.0946 9.06445 22.37 9.06445 21.6292C9.29481 21.6292 9.52748 21.6292 9.77347 21.6292C9.77347 22.3584 9.77347 23.0831 9.77347 23.8256Z" fill="url(#paint8_linear_2558_30656)"/>
<path d="M9.94691 23.9993H8.89062V21.4556H9.94691V23.9993ZM9.2379 23.6521H9.59964V21.8028H9.2379V23.6521Z" fill="url(#paint9_linear_2558_30656)"/>
<path d="M14.2227 23.8161C14.2227 23.1048 14.2227 22.4143 14.2232 21.7232C14.2232 21.6943 14.2302 21.6653 14.2354 21.626C14.4715 21.626 14.6996 21.626 14.9444 21.626C14.9444 22.35 14.9444 23.0753 14.9444 23.8167C14.7146 23.8161 14.482 23.8161 14.2227 23.8161Z" fill="url(#paint10_linear_2558_30656)"/>
<path d="M15.1178 23.9896H14.0488V23.4398C14.0488 22.8599 14.0488 22.2915 14.0494 21.7225C14.0494 21.6895 14.054 21.6606 14.0581 21.6351C14.0598 21.6253 14.0616 21.6149 14.0627 21.6033L14.0824 21.4517H15.1178V23.9896ZM14.3967 23.6424H14.7712V21.7989H14.3973C14.3967 22.3418 14.3967 22.8859 14.3967 23.4398V23.6424Z" fill="url(#paint11_linear_2558_30656)"/>
</g>
<defs>
<linearGradient id="paint0_linear_2558_30656" x1="-1.25161" y1="9.27524" x2="12.3455" y2="14.8269" gradientUnits="userSpaceOnUse">
<stop stop-color="#20D4FE"/>
<stop offset="1" stop-color="#B722FF"/>
</linearGradient>
<linearGradient id="paint1_linear_2558_30656" x1="-1.48144" y1="9.20726" x2="12.6012" y2="15.0264" gradientUnits="userSpaceOnUse">
<stop stop-color="#20D4FE"/>
<stop offset="1" stop-color="#B722FF"/>
</linearGradient>
<linearGradient id="paint2_linear_2558_30656" x1="6.15098" y1="2.52467" x2="16.9722" y2="9.86172" gradientUnits="userSpaceOnUse">
<stop stop-color="#20D4FE"/>
<stop offset="1" stop-color="#B722FF"/>
</linearGradient>
<linearGradient id="paint3_linear_2558_30656" x1="5.92229" y1="2.45651" x2="17.2066" y2="10.0672" gradientUnits="userSpaceOnUse">
<stop stop-color="#20D4FE"/>
<stop offset="1" stop-color="#B722FF"/>
</linearGradient>
<linearGradient id="paint4_linear_2558_30656" x1="5.64068" y1="13.5271" x2="20.6204" y2="19.3273" gradientUnits="userSpaceOnUse">
<stop stop-color="#20D4FE"/>
<stop offset="1" stop-color="#B722FF"/>
</linearGradient>
<linearGradient id="paint5_linear_2558_30656" x1="5.41327" y1="13.4584" x2="20.8815" y2="19.5201" gradientUnits="userSpaceOnUse">
<stop stop-color="#20D4FE"/>
<stop offset="1" stop-color="#B722FF"/>
</linearGradient>
<linearGradient id="paint6_linear_2558_30656" x1="13.5816" y1="9.27353" x2="27.1311" y2="14.7783" gradientUnits="userSpaceOnUse">
<stop stop-color="#20D4FE"/>
<stop offset="1" stop-color="#B722FF"/>
</linearGradient>
<linearGradient id="paint7_linear_2558_30656" x1="13.3519" y1="9.20572" x2="27.3864" y2="14.9767" gradientUnits="userSpaceOnUse">
<stop stop-color="#20D4FE"/>
<stop offset="1" stop-color="#B722FF"/>
</linearGradient>
<linearGradient id="paint8_linear_2558_30656" x1="8.9505" y1="22.2959" x2="10.1736" y2="22.5307" gradientUnits="userSpaceOnUse">
<stop stop-color="#20D4FE"/>
<stop offset="1" stop-color="#B722FF"/>
</linearGradient>
<linearGradient id="paint9_linear_2558_30656" x1="8.72086" y1="22.2278" x2="10.5016" y2="22.6674" gradientUnits="userSpaceOnUse">
<stop stop-color="#20D4FE"/>
<stop offset="1" stop-color="#B722FF"/>
</linearGradient>
<linearGradient id="paint10_linear_2558_30656" x1="14.1067" y1="22.291" x2="15.3499" y2="22.5346" gradientUnits="userSpaceOnUse">
<stop stop-color="#20D4FE"/>
<stop offset="1" stop-color="#B722FF"/>
</linearGradient>
<linearGradient id="paint11_linear_2558_30656" x1="13.877" y1="22.2221" x2="15.6762" y2="22.6727" gradientUnits="userSpaceOnUse">
<stop stop-color="#20D4FE"/>
<stop offset="1" stop-color="#B722FF"/>
</linearGradient>
<clipPath id="clip0_2558_30656">
<rect width="24.0006" height="24" fill="white"/>
</clipPath>
</defs>
</svg>
