<svg width="28" height="26" viewBox="0 0 28 26" fill="none" xmlns="http://www.w3.org/2000/svg">
<path d="M19.822 7.48717C13.6971 7.48717 7.62344 7.48717 1.51906 7.48717C1.51906 9.10545 1.51906 10.7135 1.51906 12.383C1.66245 12.383 1.81609 12.383 1.95948 12.383C5.53402 12.383 9.11881 12.383 12.6934 12.383C12.8163 12.383 12.9494 12.3727 13.0723 12.3932C13.3796 12.4342 13.5639 12.6288 13.5947 12.9156C13.6356 13.2126 13.4922 13.4482 13.2055 13.5506C13.0416 13.6018 12.8572 13.612 12.6831 13.612C9.11881 13.612 5.55451 13.612 1.97996 13.612C1.82633 13.612 1.68294 13.612 1.50882 13.612C1.50882 15.2508 1.50882 16.8588 1.50882 18.5283C1.65221 18.5283 1.7956 18.5283 1.94924 18.5283C4.899 18.5283 7.85901 18.5283 10.8088 18.5283C10.9317 18.5283 11.0648 18.5181 11.1877 18.5386C11.4848 18.5795 11.6691 18.7639 11.7101 19.0609C11.7408 19.3579 11.6179 19.5935 11.3311 19.6959C11.1775 19.7471 11.0034 19.7574 10.8395 19.7574C7.88974 19.7574 4.92973 19.7574 1.97996 19.7574C1.82633 19.7574 1.68294 19.7574 1.50882 19.7574C1.49858 19.8803 1.48834 19.9622 1.48834 20.0544C1.48834 21.3757 1.48834 22.6969 1.48834 24.0079C1.48834 24.5712 1.69318 24.7658 2.2565 24.7658C5.9642 24.7658 9.67189 24.7658 13.3796 24.7658C13.5435 24.7658 13.7176 24.7658 13.8712 24.8171C14.1682 24.9092 14.2911 25.1448 14.2604 25.4418C14.2297 25.7491 14.0453 25.9335 13.7483 25.9744C13.6356 25.9949 13.523 25.9847 13.4001 25.9847C9.70261 25.9847 6.01541 25.9847 2.31796 25.9847C0.976223 25.9847 0.259266 25.2677 0.259266 23.926C0.259266 16.654 0.27975 9.37175 0.249023 2.08951C0.249023 0.8502 1.10937 -0.0101485 2.34868 9.37698e-05C7.8795 0.0308205 13.4206 0.0308205 18.9514 9.37698e-05C20.1804 -0.0101485 21.0715 0.819473 21.051 2.08951C21.0203 4.40426 21.0408 6.70876 21.0408 9.01327C21.0408 9.13618 21.0408 9.26933 21.0101 9.39223C20.9281 9.71998 20.713 9.90434 20.375 9.87362C20.037 9.85313 19.8322 9.64829 19.822 9.30005C19.8015 8.83915 19.8117 8.37825 19.8117 7.91735C19.8117 7.7842 19.822 7.65105 19.822 7.48717ZM1.49858 6.21714C7.62344 6.21714 13.7073 6.21714 19.822 6.21714C19.822 6.05326 19.822 5.92011 19.822 5.77672C19.822 4.56813 19.822 3.36979 19.822 2.16121C19.822 1.40328 19.6581 1.23941 18.9002 1.23941C13.4001 1.23941 7.91022 1.23941 2.41014 1.23941C2.29747 1.23941 2.17457 1.22916 2.0619 1.23941C1.72391 1.27013 1.49858 1.46473 1.49858 1.80273C1.48834 3.26737 1.49858 4.73201 1.49858 6.21714Z" fill="url(#paint0_linear_2537_27244)"/>
<path d="M22.0647 13.2638C22.8533 13.6428 22.8533 13.6428 23.4474 13.0487C24.0824 12.4137 24.7276 12.4137 25.3524 13.0385C25.5573 13.2433 25.7724 13.4482 25.9772 13.6633C26.4586 14.1754 26.4586 14.8411 25.9874 15.3532C25.9055 15.4454 25.8133 15.5478 25.7109 15.6195C25.3729 15.8756 25.2807 16.1316 25.4958 16.5516C25.629 16.8179 25.7826 16.8691 26.0182 16.8486C27.4521 16.7359 27.8925 17.3812 27.7901 18.6205C27.7696 18.8254 27.8003 19.0302 27.7696 19.235C27.6877 19.8291 27.2677 20.2285 26.6737 20.2798C26.5098 20.3002 26.3357 20.3105 26.1718 20.2798C25.7724 20.2183 25.547 20.3515 25.4139 20.7509C25.3319 21.007 25.3319 21.1606 25.5368 21.3449C26.602 22.2565 26.5917 22.9837 25.5265 23.9055C25.3319 24.0694 25.1578 24.2742 24.9427 24.3971C24.5126 24.6532 23.98 24.5815 23.5908 24.2435C23.4883 24.1513 23.3859 24.0489 23.2937 23.9465C22.8021 23.4651 22.8021 23.4549 22.2081 23.7928C22.1364 23.8338 22.0647 23.967 22.0647 24.0591C22.0442 24.3357 22.0647 24.6225 22.0544 24.899C22.0237 25.4931 21.5628 25.9642 20.9687 25.9847C20.5693 26.0052 20.1801 26.0052 19.7806 25.9847C19.1559 25.9642 18.7052 25.5135 18.654 24.899C18.6438 24.7351 18.6233 24.561 18.654 24.3971C18.7257 23.967 18.5618 23.7621 18.1521 23.6187C17.8961 23.5368 17.7629 23.547 17.599 23.7416C17.4659 23.8953 17.3225 24.0387 17.1689 24.1821C16.6465 24.6532 15.991 24.6634 15.4789 24.1923C15.2126 23.9465 14.9668 23.6904 14.721 23.4344C14.2703 22.953 14.2703 22.2975 14.7107 21.8058C14.8132 21.6932 14.9156 21.5703 15.0385 21.4781C15.3662 21.2425 15.4379 20.9967 15.2331 20.6075C15.1102 20.3617 14.9873 20.2695 14.721 20.2798C14.4342 20.29 14.1269 20.29 13.8401 20.2388C13.3075 20.1364 12.9491 19.6959 12.9286 19.1531C12.9183 18.7741 12.9183 18.3849 12.9286 18.006C12.9491 17.3812 13.4202 16.8998 14.045 16.8588C14.2089 16.8486 14.383 16.8281 14.5469 16.8588C14.9565 16.9305 15.1716 16.7667 15.2945 16.3672C15.3662 16.1316 15.4072 15.9678 15.1819 15.8039C15.0487 15.7015 14.9463 15.5786 14.8234 15.4557C14.2191 14.8411 14.2191 14.1856 14.8234 13.5813C15.0282 13.3765 15.2331 13.1614 15.4482 12.9565C15.9603 12.4547 16.6363 12.4547 17.1586 12.9463C17.2611 13.0385 17.3737 13.1307 17.4557 13.2433C17.7015 13.5813 17.9678 13.6018 18.3365 13.4174C18.5721 13.2945 18.6642 13.1921 18.6438 12.9361C18.6233 12.6903 18.6335 12.4444 18.654 12.2089C18.7052 11.6046 19.1251 11.1744 19.7192 11.1437C20.1494 11.1232 20.5898 11.1232 21.02 11.1539C21.614 11.1949 22.0237 11.6455 22.0544 12.2396C22.0749 12.5878 22.0647 12.9361 22.0647 13.2638ZM25.1169 22.5945C24.236 21.9697 23.8673 21.304 24.3077 20.1876C24.7584 19.02 25.5982 19.0097 26.5405 19.0712C26.5405 18.7024 26.5405 18.4054 26.5405 18.0469C25.5061 18.2006 24.7481 18.0469 24.2872 16.9101C23.8263 15.7834 24.318 15.1484 25.0554 14.5748C24.8096 14.3085 24.6047 14.0832 24.3589 13.8169C23.7649 14.6875 23.0991 15.0665 21.9827 14.626C20.8458 14.1754 20.7639 13.3662 20.8458 12.383C20.4976 12.383 20.2108 12.383 19.8626 12.383C19.965 13.3867 19.8421 14.1856 18.7154 14.6363C17.599 15.0869 16.9538 14.626 16.3495 13.8374C16.0934 14.0832 15.8783 14.2983 15.612 14.5441C16.4314 15.1586 16.8616 15.8039 16.4212 16.9305C15.9603 18.0982 15.1409 18.1596 14.1781 18.0674C14.1781 18.4361 14.1781 18.7332 14.1781 19.0917C15.2126 18.938 15.9705 19.0917 16.4314 20.2183C16.8923 21.3449 16.3802 21.98 15.7042 22.533C15.9296 22.8198 16.1139 23.0554 16.3085 23.291C16.8923 22.7789 17.2918 22.0517 18.2341 22.3282C19.4426 22.6867 20.1596 23.3524 19.8319 24.7351C20.2108 24.7351 20.5078 24.7351 20.897 24.7351C20.4874 23.3524 21.235 22.7584 22.3719 22.3589C23.3757 22.0107 23.8058 22.7686 24.3692 23.2705C24.615 23.0656 24.8301 22.8608 25.1169 22.5945Z" fill="url(#paint1_linear_2537_27244)"/>
<path d="M7.03931 10.5394C6.05605 10.5394 5.0728 10.5394 4.08954 10.5394C3.67985 10.5394 3.41355 10.3346 3.36234 9.99657C3.31113 9.61761 3.59791 9.32058 4.04857 9.31034C4.88844 9.3001 5.73854 9.31034 6.57841 9.31034C7.68457 9.31034 8.80098 9.31034 9.90714 9.31034C10.3988 9.31034 10.6855 9.52542 10.6958 9.90439C10.706 10.2936 10.409 10.5394 9.90714 10.5394C8.95461 10.5394 7.99184 10.5394 7.03931 10.5394Z" fill="url(#paint2_linear_2537_27244)"/>
<path d="M7.0189 16.6848C6.03564 16.6848 5.05239 16.695 4.06913 16.6848C3.54678 16.6848 3.23951 16.2956 3.39315 15.8756C3.49557 15.6093 3.69017 15.4659 3.97695 15.4659C6.00492 15.4659 8.04313 15.4659 10.0711 15.4659C10.4398 15.4659 10.6856 15.7322 10.6959 16.06C10.7061 16.4082 10.4193 16.6848 10.0096 16.6848C9.01614 16.695 8.02264 16.6848 7.0189 16.6848Z" fill="url(#paint3_linear_2537_27244)"/>
<path d="M7.0395 21.6011C8.01252 21.6011 8.98553 21.6011 9.9483 21.6011C10.4092 21.6011 10.6857 21.8366 10.6857 22.1951C10.696 22.5741 10.399 22.8199 9.92782 22.8301C7.98179 22.8301 6.04601 22.8301 4.09998 22.8301C3.62884 22.8301 3.33181 22.5843 3.34205 22.2054C3.34205 21.8264 3.62884 21.6011 4.12046 21.6011C5.10372 21.6011 6.06649 21.6011 7.0395 21.6011Z" fill="url(#paint4_linear_2537_27244)"/>
<path d="M14.0049 10.8876C13.4621 10.8773 13.0319 10.4369 13.0422 9.90432C13.0524 9.39221 13.4928 8.96204 14.0152 8.96204C14.5478 8.96204 14.9984 9.41269 14.9984 9.93505C14.9984 10.4676 14.5478 10.8978 14.0049 10.8876Z" fill="url(#paint5_linear_2537_27244)"/>
<path d="M17.0773 10.8877C16.5344 10.8774 16.1042 10.4268 16.1247 9.89419C16.1452 9.38208 16.5856 8.9519 17.0977 8.9519C17.6303 8.9519 18.081 9.40256 18.0708 9.92492C18.0605 10.4678 17.6099 10.8979 17.0773 10.8877Z" fill="url(#paint6_linear_2537_27244)"/>
<path d="M7.0395 4.39414C6.05625 4.39414 5.07299 4.39414 4.08974 4.39414C3.68005 4.39414 3.41375 4.1893 3.36254 3.8513C3.31133 3.48258 3.58787 3.17532 4.0078 3.16507C4.81694 3.15483 5.61583 3.16507 6.42497 3.16507C7.58234 3.16507 8.74996 3.16507 9.90733 3.16507C10.4194 3.16507 10.7062 3.40065 10.696 3.78985C10.6857 4.15857 10.3887 4.39414 9.91757 4.39414C8.9548 4.39414 7.99203 4.39414 7.0395 4.39414Z" fill="url(#paint7_linear_2537_27244)"/>
<path d="M13.0723 3.78982C13.0723 3.24698 13.5127 2.79633 14.035 2.80657C14.5574 2.81681 15.0081 3.28795 14.9978 3.81031C14.9876 4.32242 14.5471 4.76284 14.0453 4.77308C13.5127 4.77308 13.0723 4.32242 13.0723 3.78982Z" fill="url(#paint8_linear_2537_27244)"/>
<path d="M16.1348 3.77959C16.1348 3.23675 16.5854 2.79633 17.1078 2.80657C17.6096 2.81681 18.0501 3.26747 18.0603 3.77959C18.0705 4.30194 17.6199 4.77308 17.0975 4.77308C16.5649 4.77308 16.1348 4.32242 16.1348 3.77959Z" fill="url(#paint9_linear_2537_27244)"/>
<path d="M20.4164 15.1279C22.4648 15.1894 23.8783 16.7052 23.8168 18.7844C23.7656 20.6792 22.1985 22.1746 20.3242 22.1234C18.2655 22.0721 16.8418 20.5256 16.9033 18.4464C16.975 16.5311 18.5216 15.0767 20.4164 15.1279ZM22.598 18.6307C22.598 17.3709 21.584 16.3467 20.3447 16.357C19.1156 16.3672 18.1221 17.371 18.1221 18.6205C18.1221 19.8701 19.1463 20.9148 20.3754 20.9045C21.6045 20.884 22.598 19.8701 22.598 18.6307Z" fill="url(#paint10_linear_2537_27244)"/>
<defs>
<linearGradient id="paint0_linear_2537_27244" x1="10.6502" y1="0" x2="10.6502" y2="25.9872" gradientUnits="userSpaceOnUse">
<stop stop-color="#20D4FE"/>
<stop offset="1" stop-color="#B722FF"/>
</linearGradient>
<linearGradient id="paint1_linear_2537_27244" x1="20.3626" y1="11.1294" x2="20.3626" y2="26" gradientUnits="userSpaceOnUse">
<stop stop-color="#20D4FE"/>
<stop offset="1" stop-color="#B722FF"/>
</linearGradient>
<linearGradient id="paint2_linear_2537_27244" x1="7.02625" y1="9.30579" x2="7.02625" y2="10.5394" gradientUnits="userSpaceOnUse">
<stop stop-color="#20D4FE"/>
<stop offset="1" stop-color="#B722FF"/>
</linearGradient>
<linearGradient id="paint3_linear_2537_27244" x1="7.02482" y1="15.4659" x2="7.02482" y2="16.6893" gradientUnits="userSpaceOnUse">
<stop stop-color="#20D4FE"/>
<stop offset="1" stop-color="#B722FF"/>
</linearGradient>
<linearGradient id="paint4_linear_2537_27244" x1="7.0139" y1="21.6011" x2="7.0139" y2="22.8301" gradientUnits="userSpaceOnUse">
<stop stop-color="#20D4FE"/>
<stop offset="1" stop-color="#B722FF"/>
</linearGradient>
<linearGradient id="paint5_linear_2537_27244" x1="14.0202" y1="8.96204" x2="14.0202" y2="10.8878" gradientUnits="userSpaceOnUse">
<stop stop-color="#20D4FE"/>
<stop offset="1" stop-color="#B722FF"/>
</linearGradient>
<linearGradient id="paint6_linear_2537_27244" x1="17.0975" y1="8.9519" x2="17.0975" y2="10.8879" gradientUnits="userSpaceOnUse">
<stop stop-color="#20D4FE"/>
<stop offset="1" stop-color="#B722FF"/>
</linearGradient>
<linearGradient id="paint7_linear_2537_27244" x1="7.02635" y1="3.16052" x2="7.02635" y2="4.39414" gradientUnits="userSpaceOnUse">
<stop stop-color="#20D4FE"/>
<stop offset="1" stop-color="#B722FF"/>
</linearGradient>
<linearGradient id="paint8_linear_2537_27244" x1="14.0351" y1="2.8064" x2="14.0351" y2="4.77308" gradientUnits="userSpaceOnUse">
<stop stop-color="#20D4FE"/>
<stop offset="1" stop-color="#B722FF"/>
</linearGradient>
<linearGradient id="paint9_linear_2537_27244" x1="17.0976" y1="2.8064" x2="17.0976" y2="4.77308" gradientUnits="userSpaceOnUse">
<stop stop-color="#20D4FE"/>
<stop offset="1" stop-color="#B722FF"/>
</linearGradient>
<linearGradient id="paint10_linear_2537_27244" x1="20.36" y1="15.1266" x2="20.36" y2="22.1246" gradientUnits="userSpaceOnUse">
<stop stop-color="#20D4FE"/>
<stop offset="1" stop-color="#B722FF"/>
</linearGradient>
</defs>
</svg>
