<svg width="124" height="36" viewBox="0 0 124 36" fill="none" xmlns="http://www.w3.org/2000/svg">
<g clip-path="url(#clip0_2537_27443)">
<path d="M22.2734 20.0861L14.6097 24.6068C14.3389 24.7692 14.0004 24.7692 13.7432 24.6338L7.27102 21.1418C6.72942 20.8576 6.41799 20.2891 6.41799 19.7071L6.49924 12.7772C6.49924 12.2223 6.81066 11.6809 7.31164 11.4102L14.4879 7.17378C14.5691 7.13317 14.6774 7.13317 14.7587 7.17378L20.5944 10.3274C20.6892 10.368 20.784 10.368 20.8653 10.3274L26.7281 6.84894C26.9177 6.72713 26.9177 6.45643 26.7281 6.37522L15.2732 0.189751C14.7587 -0.0809473 14.1765 -0.0809472 13.7026 0.216821L0.961345 7.72871C0.487443 8.01295 0.189561 8.54081 0.148941 9.09574L0 23.4969C0 24.106 0.311422 24.6609 0.853024 24.9316L13.5265 31.7532C14.0411 32.0239 14.6504 32.0239 15.1243 31.7126L27.8925 23.93C28.0821 23.8082 28.204 23.6187 28.204 23.3886L28.2852 16.7294C28.2852 16.54 28.055 16.4181 27.8925 16.4994L22.2734 20.0861Z" fill="white"/>
<path d="M15.1262 14.9969L14.7877 15.1864C14.3138 15.4706 13.691 15.4706 13.2171 15.227L8.34265 12.6418C8.09893 12.52 7.82812 12.6824 7.82812 12.9531V19.1115C7.82812 19.4499 7.99061 19.7341 8.28849 19.9236L13.3525 22.8742C13.7045 23.0637 14.1649 23.0637 14.4898 22.8742L27.5696 15.1593C27.732 15.0646 27.8404 14.8751 27.8539 14.645L27.9758 7.9046C27.9758 7.74219 27.7862 7.62037 27.6373 7.71512L15.1262 14.9969Z" fill="white"/>
<path d="M14.2046 14.1715L18.5645 11.5999C18.7947 11.4781 18.7947 11.1397 18.5645 11.0179L14.2858 8.68988C14.191 8.64927 14.0556 8.64927 13.9473 8.68988L9.56033 11.2886C9.33015 11.4104 9.33015 11.7488 9.56033 11.8706L13.8525 14.1986C13.9744 14.2392 14.1098 14.2392 14.2046 14.1715Z" fill="white"/>
<path d="M33.9307 16.7434C33.9307 15.5794 34.1202 14.5237 34.4858 13.468C34.8378 12.4528 35.4065 11.5595 36.1106 10.8151C36.8147 10.0707 37.6813 9.46163 38.6832 8.9879C39.6987 8.55479 40.8361 8.31116 42.1495 8.31116C43.0025 8.31116 43.7743 8.39237 44.4784 8.54125C45.1825 8.69014 45.8865 8.89316 46.5365 9.20446L45.5887 12.8183C45.1554 12.6559 44.695 12.507 44.1805 12.3852C43.666 12.2634 43.1244 12.1957 42.4745 12.1957C41.1475 12.1957 40.1456 12.6153 39.4821 13.4409C38.8186 14.2665 38.4801 15.3493 38.4801 16.7164C38.4801 18.1511 38.7916 19.2609 39.4009 20.0595C40.0102 20.858 41.1069 21.237 42.6234 21.237C43.1785 21.237 43.7608 21.1964 44.3836 21.0881C45.0064 20.9799 45.5887 20.8174 46.1032 20.6144L46.726 24.323C46.1844 24.5531 45.5481 24.7426 44.7627 24.905C43.9503 25.0674 43.1244 25.1486 42.1495 25.1486C40.7007 25.1486 39.4279 24.9185 38.3989 24.4854C37.3563 24.0523 36.4897 23.4703 35.7992 22.7259C35.1086 21.9814 34.6347 21.1017 34.3233 20.073C34.0931 19.0444 33.9307 17.948 33.9307 16.7434Z" fill="white"/>
<path d="M62.5283 16.7028C62.5283 17.9616 62.3387 19.112 61.9732 20.1407C61.6211 21.1829 61.0795 22.0762 60.4025 22.7935C59.7255 23.5244 58.8996 24.1064 57.9382 24.5125C56.9633 24.9321 55.9072 25.1215 54.7157 25.1215C53.5512 25.1215 52.4951 24.9321 51.5202 24.5125C50.5453 24.0929 49.7329 23.538 49.0559 22.7935C48.3789 22.0627 47.8102 21.1693 47.4582 20.1407C47.0655 19.0985 46.876 17.9616 46.876 16.7028C46.876 15.4441 47.0655 14.2936 47.4582 13.2649C47.8509 12.2363 48.406 11.3565 49.0966 10.6256C49.7871 9.89474 50.6266 9.33981 51.5879 8.92023C52.5628 8.50065 53.6054 8.31116 54.7428 8.31116C55.9072 8.31116 56.9498 8.50065 57.9247 8.92023C58.8996 9.33981 59.712 9.89474 60.389 10.6256C61.066 11.3565 61.6347 12.2228 61.9867 13.2649C62.3252 14.3207 62.5283 15.4576 62.5283 16.7028ZM57.9111 16.7028C57.9111 15.2952 57.6403 14.2124 57.0852 13.4003C56.5301 12.5882 55.7312 12.2228 54.7157 12.2228C53.7002 12.2228 52.8742 12.6153 52.3055 13.4003C51.7504 14.2124 51.4525 15.2952 51.4525 16.7028C51.4525 18.1105 51.7369 19.1932 52.3055 20.0189C52.8607 20.8445 53.6596 21.2641 54.7157 21.2641C55.7718 21.2641 56.5436 20.8445 57.0852 20.0189C57.6268 19.2068 57.9111 18.1105 57.9111 16.7028Z" fill="white"/>
<path d="M78.2607 22.7263C78.2607 25.3386 77.5972 27.2741 76.2703 28.5328C74.9433 29.7916 72.9123 30.4277 70.1095 30.4277C69.1347 30.4277 68.1733 30.333 67.1984 30.157C66.2235 29.9946 65.3299 29.7645 64.5039 29.4803L65.3163 25.677C66.0204 25.9612 66.7651 26.1913 67.5369 26.3537C68.3087 26.5161 69.2159 26.5973 70.1908 26.5973C71.4771 26.5973 72.3978 26.3131 72.9259 25.7446C73.4675 25.1897 73.7383 24.4588 73.7383 23.5655V22.9835C73.2644 23.2136 72.7363 23.376 72.2353 23.4978C71.7208 23.6196 71.1792 23.6602 70.5293 23.6602C68.3222 23.6602 66.6297 22.997 65.4653 21.6977C64.3008 20.3983 63.7051 18.5711 63.7051 16.216C63.7051 15.052 63.8946 13.9963 64.2602 13.0218C64.6123 12.0473 65.1539 11.2352 65.8579 10.5584C66.562 9.88168 67.4151 9.35382 68.4306 8.9613C69.4461 8.6094 70.5834 8.40637 71.8697 8.40637C72.4249 8.40637 72.9936 8.43344 73.5758 8.48758C74.158 8.54172 74.7132 8.6094 75.2954 8.67707C75.8505 8.75828 76.4192 8.83949 76.9202 8.9613C77.4347 9.08312 77.8951 9.1914 78.2877 9.29968V22.7263H78.2607ZM68.3358 16.2296C68.3358 18.7471 69.3513 20.0329 71.3823 20.0329C71.8427 20.0329 72.2759 19.9923 72.6957 19.8434C73.1154 19.7216 73.4404 19.5727 73.7383 19.4103V12.2097C73.5081 12.1691 73.2644 12.1285 72.9259 12.1149C72.6145 12.0879 72.2624 12.0743 71.8697 12.0743C70.6918 12.0743 69.7846 12.4669 69.2159 13.2519C68.6201 14.0234 68.3358 15.025 68.3358 16.2296Z" fill="white"/>
<path d="M80.2227 16.865C80.2227 15.4574 80.4528 14.2122 80.8861 13.1565C81.3194 12.1007 81.9016 11.221 82.6057 10.5036C83.3098 9.7998 84.1357 9.2584 85.0565 8.90649C85.9772 8.55459 86.925 8.35156 87.8999 8.35156C90.1611 8.35156 91.9484 9.05538 93.2753 10.4359C94.5887 11.803 95.2386 13.8603 95.2386 16.5402C95.2386 16.8109 95.2386 17.0951 95.2115 17.4064C95.1845 17.7177 95.1709 17.9884 95.1709 18.2321H84.9211C85.0158 19.1524 85.4627 19.9104 86.2345 20.4383C87.0062 20.9932 88.0218 21.2639 89.3351 21.2639C90.1611 21.2639 90.9735 21.1827 91.7859 21.0338C92.5983 20.8849 93.2347 20.6954 93.7492 20.4789L94.3585 24.1604C94.1148 24.2822 93.8034 24.404 93.3836 24.5123C92.9639 24.6206 92.5306 24.7424 92.0296 24.8236C91.5557 24.9183 91.0141 24.986 90.4319 25.0537C89.8767 25.1349 89.2945 25.1484 88.7258 25.1484C87.2906 25.1484 86.0314 24.9183 84.9752 24.5258C83.9191 24.0927 83.039 23.5107 82.3349 22.7798C81.6308 22.0489 81.1298 21.1556 80.7778 20.1676C80.3987 19.1389 80.2227 18.0561 80.2227 16.865ZM90.8787 15.1461C90.8516 14.7536 90.7839 14.4017 90.6891 14.0227C90.5944 13.6708 90.4048 13.346 90.1746 13.0482C89.9309 12.764 89.633 12.5339 89.3081 12.3444C88.956 12.1549 88.4957 12.0737 87.9947 12.0737C87.4801 12.0737 87.0469 12.1684 86.6813 12.3444C86.3292 12.5068 86.0043 12.7369 85.7606 13.0211C85.5168 13.3054 85.3273 13.6302 85.2054 14.0227C85.0836 14.3746 84.9752 14.7671 84.9211 15.1596H90.8787V15.1461Z" fill="white"/>
<path d="M97.1904 9.33873C97.9622 9.10863 98.9506 8.90561 100.183 8.71612C101.388 8.52663 102.674 8.43188 104.001 8.43188C105.355 8.43188 106.465 8.5943 107.386 8.97328C108.28 9.32519 109.011 9.82598 109.525 10.4757C110.067 11.1389 110.419 11.8833 110.649 12.7766C110.879 13.6699 110.988 14.6715 110.988 15.7678V24.7686H106.465V16.3228C106.465 14.8745 106.276 13.8323 105.883 13.2233C105.49 12.6142 104.759 12.3029 103.73 12.3029C103.419 12.3029 103.053 12.3299 102.688 12.3435C102.322 12.357 102.011 12.4247 101.713 12.4382V24.7144H97.1904V9.33873Z" fill="white"/>
<path d="M113.397 4.79156L117.92 4.06067V8.77083H123.336V12.52H117.92V18.137C117.92 19.0845 118.082 19.8559 118.434 20.4109C118.786 20.9658 119.45 21.2636 120.452 21.2636C120.926 21.2636 121.454 21.223 121.955 21.1147C122.469 21.0199 122.957 20.8846 123.363 20.7222L123.986 24.2277C123.431 24.4578 122.821 24.6473 122.158 24.8097C121.481 24.9721 120.682 25.0534 119.707 25.0534C118.461 25.0534 117.446 24.8909 116.661 24.539C115.848 24.2007 115.212 23.7269 114.724 23.1314C114.25 22.5223 113.898 21.8185 113.709 20.9523C113.519 20.0996 113.425 19.1657 113.425 18.1505V4.77802H113.397V4.79156Z" fill="white"/>
<path d="M84.544 34.4065H87.0354V35.1103H83.6504V28.0857H84.544V34.4065Z" fill="white"/>
<path d="M98.0155 33.4721H94.9419L94.3597 35.0963H93.3848L95.9845 28.207H97L99.5997 35.0963H98.6248L98.0155 33.4721ZM97.7447 32.7818L96.4584 29.2492L95.1721 32.7818H97.7447Z" fill="white"/>
<path d="M110.934 32.0785C111.205 32.3898 111.354 32.7823 111.354 33.2019C111.354 33.7839 111.164 34.217 110.771 34.5689C110.379 34.9073 109.824 35.0833 109.065 35.0833H106.452V28.0857H109.025C109.729 28.0857 110.27 28.2346 110.622 28.5459C110.975 28.8572 111.178 29.2903 111.178 29.8317C111.178 30.2919 111.056 30.6573 110.826 30.928C110.582 31.2123 110.27 31.3882 109.905 31.4694C110.325 31.5642 110.663 31.7672 110.934 32.0785ZM107.373 31.1446H108.876C109.309 31.1446 109.648 31.0498 109.891 30.8333C110.135 30.6438 110.243 30.3596 110.243 29.9671C110.243 29.6151 110.122 29.3444 109.905 29.1143C109.688 28.8843 109.323 28.803 108.849 28.803H107.373V31.1446ZM110.013 34.014C110.284 33.7839 110.406 33.4726 110.406 33.0936C110.406 32.7146 110.257 32.3898 109.986 32.1732C109.715 31.9432 109.323 31.8349 108.862 31.8349H107.359V34.3253H108.889C109.377 34.3253 109.742 34.2306 110.013 34.014Z" fill="white"/>
<path d="M122.632 34.2029C122.469 34.4871 122.212 34.7172 121.901 34.9067C121.589 35.0962 121.17 35.1774 120.696 35.1774C120.235 35.1774 119.829 35.0962 119.45 34.9338C119.098 34.7713 118.786 34.5142 118.583 34.2299C118.38 33.9457 118.245 33.6073 118.231 33.2148H119.206C119.233 33.4043 119.301 33.6073 119.396 33.7968C119.518 33.9863 119.68 34.1352 119.91 34.257C120.14 34.3788 120.384 34.4465 120.682 34.4465C121.075 34.4465 121.386 34.3518 121.603 34.1352C121.833 33.9051 121.914 33.6615 121.914 33.3096C121.914 33.0253 121.833 32.7952 121.684 32.6057C121.535 32.4433 121.346 32.2944 121.129 32.1862C120.899 32.0914 120.614 31.9561 120.235 31.8478C119.802 31.6989 119.423 31.5636 119.179 31.4282C118.908 31.3064 118.665 31.1169 118.502 30.8462C118.313 30.5755 118.218 30.2371 118.218 29.8311C118.218 29.4792 118.313 29.1543 118.489 28.8566C118.651 28.5859 118.922 28.3828 119.233 28.1934C119.572 28.0445 119.937 27.9633 120.398 27.9633C121.075 27.9633 121.643 28.1257 122.036 28.4776C122.456 28.816 122.659 29.222 122.74 29.7634H121.765C121.725 29.4792 121.576 29.222 121.332 29.0325C121.088 28.8024 120.777 28.7212 120.384 28.7212C120.032 28.7212 119.721 28.816 119.518 29.0054C119.287 29.1949 119.179 29.4656 119.179 29.8175C119.179 30.0882 119.26 30.2913 119.409 30.4808C119.558 30.6432 119.721 30.765 119.951 30.8733C120.181 30.968 120.465 31.0628 120.817 31.1846C121.278 31.3335 121.643 31.4688 121.914 31.6042C122.185 31.726 122.429 31.9425 122.618 32.2132C122.808 32.4839 122.903 32.8358 122.903 33.269C122.889 33.5938 122.781 33.9051 122.632 34.2029Z" fill="white"/>
</g>
<defs>
<clipPath id="clip0_2537_27443">
<rect width="124" height="35.1773" fill="white"/>
</clipPath>
</defs>
</svg>
