<svg width="16" height="8" viewBox="0 0 16 8" fill="none" xmlns="http://www.w3.org/2000/svg">
<g clip-path="url(#clip0_248_895)">
<path d="M16 3.9848C15.8958 4.13039 15.8125 4.29676 15.6875 4.42155C14.6583 5.4531 13.625 6.47217 12.5917 7.4954C12.3167 7.76992 11.9583 7.79488 11.6958 7.56195C11.4167 7.31654 11.4083 6.91307 11.6833 6.63855C12.3583 5.96887 13.0333 5.2992 13.7083 4.62952C13.75 4.59209 13.8 4.56297 13.8458 4.52969C13.8375 4.51306 13.8292 4.49642 13.8208 4.47978C13.7625 4.47978 13.7042 4.47978 13.6417 4.47978C9.35417 4.47978 5.0625 4.47562 0.775 4.48394C0.391667 4.4881 0.125 4.35916 0 3.9848C0 3.90161 0 3.81843 0 3.73524C0.125 3.36088 0.391667 3.23194 0.779167 3.23194C5.0625 3.24026 9.34583 3.2361 13.6333 3.2361C13.6958 3.2361 13.7583 3.2361 13.8583 3.2361C13.7958 3.16955 13.7583 3.12795 13.7167 3.08636C13.0417 2.41668 12.3667 1.74701 11.6917 1.07733C11.5083 0.894316 11.45 0.678024 11.5208 0.436774C11.5875 0.212163 11.7458 0.0665814 11.9792 0.0125082C12.2167 -0.0415649 12.4167 0.0374651 12.5875 0.208003C13.3417 0.956708 14.1 1.70957 14.8583 2.45828C15.1375 2.73696 15.425 3.00733 15.6958 3.29433C15.8167 3.42327 15.9042 3.58549 16.0083 3.73108C16 3.81842 16 3.90161 16 3.9848Z" fill="white"/>
</g>
<defs>
<clipPath id="clip0_248_895">
<rect width="16" height="7.72414" fill="white"/>
</clipPath>
</defs>
</svg>
