<svg width="10" height="10" viewBox="0 0 10 10" fill="none" xmlns="http://www.w3.org/2000/svg">
<path fill-rule="evenodd" clip-rule="evenodd" d="M0.369141 4.94485C0.369141 3.05267 0.369141 2.10658 0.820031 1.42514C1.02138 1.12084 1.28198 0.860243 1.58627 0.658898C2.26771 0.208008 3.2138 0.208008 5.10598 0.208008C6.99816 0.208008 7.94425 0.208008 8.62569 0.658898C8.92999 0.860243 9.19059 1.12084 9.39194 1.42514C9.84282 2.10658 9.84282 3.05267 9.84282 4.94485C9.84282 6.83703 9.84282 7.78312 9.39194 8.46456C9.19059 8.76886 8.92999 9.02946 8.62569 9.2308C7.94425 9.68169 6.99816 9.68169 5.10598 9.68169C3.2138 9.68169 2.26771 9.68169 1.58627 9.2308C1.28198 9.02946 1.02138 8.76886 0.820031 8.46456C0.369141 7.78312 0.369141 6.83703 0.369141 4.94485ZM7.55827 4.94463C7.55827 6.29901 6.46033 7.39695 5.10595 7.39695C3.75157 7.39695 2.65363 6.29901 2.65363 4.94463C2.65363 3.59025 3.75157 2.49231 5.10595 2.49231C6.46033 2.49231 7.55827 3.59025 7.55827 4.94463ZM5.10595 6.56726C6.0021 6.56726 6.72858 5.84079 6.72858 4.94463C6.72858 4.04848 6.0021 3.322 5.10595 3.322C4.20979 3.322 3.48331 4.04848 3.48331 4.94463C3.48331 5.84079 4.20979 6.56726 5.10595 6.56726ZM7.65507 2.94564C7.97331 2.94564 8.2313 2.68766 8.2313 2.36942C8.2313 2.05118 7.97331 1.7932 7.65507 1.7932C7.33683 1.7932 7.07885 2.05118 7.07885 2.36942C7.07885 2.68766 7.33683 2.94564 7.65507 2.94564Z" fill="url(#paint0_linear_2537_27429)"/>
<defs>
<linearGradient id="paint0_linear_2537_27429" x1="5.10598" y1="0.208008" x2="5.10598" y2="9.68169" gradientUnits="userSpaceOnUse">
<stop stop-color="#20D4FE"/>
<stop offset="1" stop-color="#B722FF"/>
</linearGradient>
</defs>
</svg>
