<svg width="11" height="9" viewBox="0 0 11 9" fill="none" xmlns="http://www.w3.org/2000/svg">
<path d="M1.34766 1.40766C1.34766 1.11905 1.44901 0.880957 1.65171 0.693372C1.85441 0.505779 2.11793 0.411987 2.44225 0.411987C2.76079 0.411987 3.0185 0.504334 3.21542 0.689043C3.41812 0.87952 3.51947 1.12771 3.51947 1.43363C3.51947 1.71069 3.42102 1.94156 3.2241 2.12627C3.0214 2.31675 2.75499 2.41199 2.42488 2.41199H2.41619C2.09765 2.41199 1.83994 2.31675 1.64302 2.12627C1.44611 1.9358 1.34766 1.69626 1.34766 1.40766ZM1.46059 8.98341V3.19987H3.38916V8.98341H1.46059ZM4.4577 8.98341H6.38627V5.75398C6.38627 5.55195 6.40944 5.39611 6.45576 5.28644C6.53684 5.09019 6.65991 4.92425 6.82497 4.78861C6.99003 4.65296 7.19707 4.58515 7.44611 4.58515C8.09476 4.58515 8.41909 5.02093 8.41909 5.8925V8.98341H10.3477V5.6674C10.3477 4.81314 10.145 4.16523 9.73955 3.72367C9.33414 3.28212 8.79843 3.06134 8.1324 3.06134C7.3853 3.06134 6.80325 3.38168 6.38627 4.02238V4.03969H6.37758L6.38627 4.02238V3.19987H4.4577C4.46927 3.38457 4.47507 3.95888 4.47507 4.92281C4.47507 5.88673 4.46927 7.24026 4.4577 8.98341Z" fill="white"/>
</svg>
