<svg width="18" height="19" viewBox="0 0 18 19" fill="none" xmlns="http://www.w3.org/2000/svg">
<path d="M14.6514 8.46777C14.6514 13.1356 9.86514 16.0113 8.87049 16.559C8.81539 16.5894 8.75349 16.6053 8.69056 16.6053C8.62763 16.6053 8.56573 16.5894 8.51063 16.559C7.51523 16.0113 2.73047 13.1356 2.73047 8.46777C2.73047 4.74664 4.96564 2.14185 8.69093 2.14185C12.4162 2.14185 14.6514 4.74664 14.6514 8.46777Z" stroke="white" stroke-width="0.857335" stroke-linecap="round" stroke-linejoin="round"/>
<path d="M5.71094 8.09556C5.71094 8.88508 6.02493 9.64227 6.58383 10.2005C7.14273 10.7588 7.90076 11.0725 8.69117 11.0725C9.48157 11.0725 10.2396 10.7588 10.7985 10.2005C11.3574 9.64227 11.6714 8.88508 11.6714 8.09556C11.6714 7.30603 11.3574 6.54885 10.7985 5.99057C10.2396 5.43229 9.48157 5.11865 8.69117 5.11865C7.90076 5.11865 7.14273 5.43229 6.58383 5.99057C6.02493 6.54885 5.71094 7.30603 5.71094 8.09556V8.09556Z" stroke="white" stroke-width="0.857335" stroke-linecap="round" stroke-linejoin="round"/>
</svg>
