<svg width="109" height="31" viewBox="0 0 109 31" fill="none" xmlns="http://www.w3.org/2000/svg">
<mask id="mask0_2537_27018" style="mask-type:alpha" maskUnits="userSpaceOnUse" x="0" y="0" width="109" height="31">
<path fill-rule="evenodd" clip-rule="evenodd" d="M19.5813 17.6729L12.8439 21.6484C12.6059 21.7913 12.3083 21.7913 12.0821 21.6722L6.39221 18.6013C5.91607 18.3513 5.64228 17.8514 5.64228 17.3396L5.7137 11.2453C5.7137 10.7573 5.98749 10.2812 6.42792 10.0431L12.7368 6.31755C12.8082 6.28184 12.9034 6.28184 12.9749 6.31755L18.1053 9.09091C18.1886 9.12662 18.2719 9.12662 18.3434 9.09091L23.4976 6.03188C23.6643 5.92475 23.6643 5.6867 23.4976 5.61528L13.4272 0.175673C12.9749 -0.0623837 12.463 -0.0623836 12.0464 0.199479L0.845152 6.80556C0.428528 7.05552 0.16665 7.51974 0.130939 8.00775L0 20.6724C0 21.208 0.273782 21.696 0.749924 21.9341L11.8916 27.9331C12.344 28.1712 12.8796 28.1712 13.2963 27.8974L24.5213 21.0533C24.688 20.9462 24.7951 20.7795 24.7951 20.5772L24.8665 14.721C24.8665 14.5543 24.6642 14.4472 24.5213 14.5186L19.5813 17.6729ZM13.2964 13.1969L12.9988 13.3635C12.5821 13.6135 12.0346 13.6135 11.618 13.3992L7.33267 11.1258C7.11841 11.0187 6.88034 11.1615 6.88034 11.3995V16.8153C6.88034 17.1129 7.02318 17.3629 7.28506 17.5295L11.737 20.1243C12.0465 20.291 12.4512 20.291 12.7369 20.1243L24.2357 13.3397C24.3786 13.2564 24.4738 13.0898 24.4857 12.8874L24.5928 6.95978C24.5928 6.81695 24.4262 6.70982 24.2952 6.79314L13.2964 13.1969ZM16.3191 10.2097L12.4864 12.4712C12.4031 12.5307 12.2841 12.5307 12.1769 12.495L8.40372 10.4477C8.20137 10.3406 8.20137 10.043 8.40372 9.93588L12.2602 7.65054C12.3555 7.61483 12.4745 7.61483 12.5578 7.65054L16.3191 9.69783C16.5215 9.80495 16.5215 10.1025 16.3191 10.2097ZM29.8303 14.7333C29.8303 13.7096 29.9969 12.7812 30.3183 11.8528C30.6278 10.96 31.1277 10.1745 31.7466 9.5198C32.3656 8.86514 33.1274 8.32952 34.0082 7.91292C34.9009 7.53203 35.9007 7.31777 37.0553 7.31777C37.8052 7.31777 38.4836 7.38919 39.1026 7.52012C39.7215 7.65105 40.3405 7.8296 40.9118 8.10336L40.0786 11.2814C39.6977 11.1386 39.293 11.0077 38.8407 10.9005C38.3884 10.7934 37.9123 10.7339 37.341 10.7339C36.1745 10.7339 35.2937 11.1029 34.7104 11.829C34.1272 12.555 33.8296 13.5073 33.8296 14.7094C33.8296 15.9711 34.1034 16.9472 34.639 17.6495C35.1747 18.3517 36.1388 18.685 37.4719 18.685C37.9599 18.685 38.4717 18.6493 39.0193 18.5541C39.5668 18.4588 40.0786 18.316 40.5309 18.1375L41.0785 21.3988C40.6024 21.6012 40.0429 21.7678 39.3526 21.9107C38.6384 22.0535 37.9123 22.1249 37.0553 22.1249C35.7817 22.1249 34.6628 21.9226 33.7582 21.5417C32.8417 21.1608 32.0799 20.649 31.4729 19.9943C30.8658 19.3397 30.4492 18.566 30.1755 17.6614C29.9731 16.7567 29.8303 15.7926 29.8303 14.7333ZM54.4815 17.7209C54.8028 16.8163 54.9695 15.8045 54.9695 14.6975C54.9695 13.6025 54.7909 12.6026 54.4934 11.6742C54.1839 10.7577 53.684 9.99592 53.0888 9.35316C52.4937 8.71041 51.7795 8.22239 50.9225 7.8534C50.0655 7.48441 49.149 7.31777 48.1253 7.31777C47.1255 7.31777 46.209 7.48441 45.352 7.8534C44.5069 8.22239 43.7689 8.71041 43.1618 9.35316C42.5548 9.99592 42.0668 10.7696 41.7216 11.6742C41.3764 12.5788 41.2098 13.5906 41.2098 14.6975C41.2098 15.8045 41.3764 16.8043 41.7216 17.7209C42.0311 18.6255 42.531 19.4111 43.1261 20.0538C43.7213 20.7085 44.4354 21.1965 45.2924 21.5655C46.1495 21.9345 47.0779 22.1011 48.1015 22.1011C49.149 22.1011 50.0774 21.9345 50.9344 21.5655C51.7795 21.2084 52.5056 20.6966 53.1007 20.0538C53.6959 19.423 54.172 18.6374 54.4815 17.7209ZM50.1845 11.7932C50.6725 12.5074 50.9106 13.4596 50.9106 14.6975C50.9106 15.9354 50.6606 16.8996 50.1845 17.6137C49.7084 18.3398 49.0299 18.7088 48.1015 18.7088C47.1731 18.7088 46.4708 18.3398 45.9828 17.6137C45.4829 16.8877 45.2329 15.9354 45.2329 14.6975C45.2329 13.4596 45.4948 12.5074 45.9828 11.7932C46.4827 11.1029 47.2088 10.7577 48.1015 10.7577C48.9942 10.7577 49.6965 11.0791 50.1845 11.7932ZM68.8021 19.9942C68.8021 22.2914 68.2189 23.9935 67.0524 25.1005C65.8859 26.2074 64.1005 26.7669 61.6366 26.7669C60.7796 26.7669 59.9345 26.6836 59.0775 26.5288C58.2205 26.386 57.4349 26.1836 56.7088 25.9337L57.423 22.589C58.042 22.8389 58.6966 23.0413 59.3751 23.1841C60.0535 23.327 60.851 23.3984 61.708 23.3984C62.8388 23.3984 63.6482 23.1484 64.1124 22.6485C64.5885 22.1605 64.8266 21.5177 64.8266 20.7321V20.2203C64.41 20.4227 63.9458 20.5655 63.5054 20.6726C63.0531 20.7797 62.5769 20.8154 62.0056 20.8154C60.0654 20.8154 58.5776 20.2322 57.5539 19.0895C56.5303 17.9469 56.0066 16.34 56.0066 14.2689C56.0066 13.2452 56.1732 12.3168 56.4946 11.4598C56.8041 10.6028 57.2802 9.88863 57.8991 9.29348C58.5181 8.69834 59.2679 8.23413 60.1607 7.88895C61.0534 7.57947 62.0532 7.40093 63.184 7.40093C63.672 7.40093 64.1719 7.42474 64.6838 7.47235C65.1139 7.51236 65.5273 7.56079 65.9521 7.61056L66.1954 7.63899L66.2506 7.64706C66.721 7.71584 67.2 7.78586 67.6238 7.88895L67.6814 7.9026L67.6815 7.90262L67.6818 7.90269L67.6824 7.90282C68.1111 8.00433 68.4957 8.09543 68.8259 8.18652V19.9942H68.8021ZM60.0773 14.2808C60.0773 16.4947 60.9701 17.6255 62.7555 17.6255C63.1602 17.6255 63.5411 17.5898 63.9101 17.4588C64.2791 17.3517 64.5647 17.2208 64.8266 17.078V10.7456C64.6242 10.7099 64.41 10.6742 64.1124 10.6623C63.8386 10.6385 63.5292 10.6266 63.184 10.6266C62.1484 10.6266 61.3509 10.9718 60.851 11.6622C60.3273 12.3406 60.0773 13.2214 60.0773 14.2808ZM71.1118 11.5782C70.7309 12.5066 70.5285 13.6017 70.5285 14.8396C70.5285 15.887 70.6833 16.8393 71.0166 17.7439C71.326 18.6128 71.7664 19.3984 72.3854 20.0411C73.0043 20.6839 73.778 21.1957 74.7064 21.5766C75.6349 21.9218 76.7418 22.1241 78.0035 22.1241C78.5035 22.1241 79.0153 22.1122 79.5033 22.0408C80.0151 21.9813 80.4912 21.9218 80.9078 21.8385C81.2838 21.7775 81.6164 21.6905 81.9352 21.6071L81.936 21.6069C81.9904 21.5927 82.0444 21.5786 82.0981 21.5647C82.4671 21.4695 82.7409 21.3624 82.9551 21.2552L82.4195 18.0177C81.9672 18.2081 81.4078 18.3747 80.6936 18.5057C79.9794 18.6366 79.2652 18.708 78.5392 18.708C77.3846 18.708 76.4919 18.47 75.8134 17.9819C75.1349 17.5177 74.7421 16.8512 74.6588 16.0418H83.6693C83.6693 15.8275 83.6812 15.5895 83.705 15.3157C83.7288 15.0419 83.7288 14.792 83.7288 14.5539C83.7288 12.1972 83.1575 10.3879 82.0029 9.18574C80.8364 7.97165 79.2652 7.3527 77.2775 7.3527C76.4204 7.3527 75.5872 7.53124 74.7779 7.84072C73.9685 8.15019 73.2424 8.6263 72.6234 9.24525C72.0045 9.87611 71.4927 10.6498 71.1118 11.5782ZM79.7295 12.34C79.8128 12.6733 79.8723 12.9828 79.8961 13.3279V13.3398H74.6588C74.7064 12.9947 74.8017 12.6495 74.9088 12.34C75.0159 11.9948 75.1826 11.7091 75.3968 11.4592C75.6111 11.2092 75.8967 11.0069 76.2062 10.864C76.5276 10.7093 76.9085 10.626 77.3608 10.626C77.8012 10.626 78.2059 10.6974 78.5154 10.864C78.801 11.0307 79.0629 11.233 79.2771 11.483C79.4795 11.7449 79.6461 12.0305 79.7295 12.34ZM85.4442 8.22254C86.1227 8.02019 86.9916 7.84165 88.0748 7.67501C89.1341 7.50837 90.2649 7.42505 91.4314 7.42505C92.6217 7.42505 93.5977 7.56788 94.4071 7.90116C95.1927 8.21063 95.8354 8.65104 96.2877 9.22238C96.7639 9.80562 97.0733 10.4603 97.2757 11.2459C97.478 12.0315 97.5732 12.9123 97.5732 13.8764V21.7918H93.5977V14.3644C93.5977 13.0908 93.4311 12.1743 93.0859 11.6387C92.7407 11.103 92.0979 10.8293 91.1933 10.8293C91.0174 10.8293 90.8217 10.8391 90.6191 10.8493L90.6189 10.8493C90.5063 10.855 90.3916 10.8607 90.2768 10.865C90.104 10.8714 89.9449 10.8915 89.794 10.9107C89.6644 10.9271 89.5408 10.9428 89.4198 10.9483V21.7442H85.4442V8.22254ZM99.7158 4.21881L99.692 4.22266V4.21076H99.7158V4.21881ZM99.7158 4.21881L103.668 3.57991V7.7221H108.429V11.0192H103.668V15.9589C103.668 16.7921 103.81 17.4705 104.12 17.9586C104.429 18.4466 105.013 18.7084 105.893 18.7084C106.31 18.7084 106.774 18.6727 107.215 18.5775C107.667 18.4942 108.095 18.3752 108.453 18.2323L109 21.3152C108.512 21.5175 107.976 21.6842 107.393 21.827C106.798 21.9698 106.096 22.0412 105.239 22.0412C104.144 22.0412 103.251 21.8984 102.561 21.5889C101.846 21.2914 101.287 20.8748 100.858 20.351C100.442 19.8154 100.132 19.1965 99.9658 18.4347C99.7991 17.6848 99.7158 16.8635 99.7158 15.9708V4.21881ZM74.3254 30.266H76.5155V30.8849H73.5398V24.7073H74.3254V30.266ZM83.4671 29.4448H86.169L86.7047 30.8731H87.5617L85.2763 24.8146H84.3836L82.0983 30.8731H82.9553L83.4671 29.4448ZM84.8002 25.7311L85.931 28.8378H83.6694L84.8002 25.7311ZM97.524 28.2187C97.7621 28.4924 97.893 28.8376 97.893 29.2066C97.893 29.7184 97.7264 30.0993 97.3812 30.4088C97.036 30.7064 96.548 30.8611 95.8814 30.8611H93.5842V24.7073H95.8457C96.4647 24.7073 96.9408 24.8382 97.2503 25.112C97.5597 25.3858 97.7383 25.7667 97.7383 26.2428C97.7383 26.6475 97.6312 26.9689 97.4288 27.2069C97.2146 27.4569 96.9408 27.6116 96.6194 27.683C96.9884 27.7663 97.286 27.9449 97.524 28.2187ZM94.3936 27.3974H95.7148C96.0957 27.3974 96.3933 27.314 96.6075 27.1236C96.8218 26.957 96.917 26.707 96.917 26.3618C96.917 26.0523 96.8099 25.8143 96.6194 25.6119C96.429 25.4096 96.1076 25.3382 95.691 25.3382H94.3936V27.3974ZM96.7146 29.9208C96.9527 29.7184 97.0598 29.4447 97.0598 29.1114C97.0598 28.7781 96.9289 28.4924 96.6908 28.302C96.4528 28.0996 96.1076 28.0044 95.7029 28.0044H94.3817V30.1945H95.7267C96.1552 30.1945 96.4766 30.1112 96.7146 29.9208ZM107.166 30.7062C107.44 30.5396 107.666 30.3372 107.809 30.0873C107.94 29.8254 108.035 29.5516 108.047 29.266C108.047 28.8851 107.964 28.5756 107.797 28.3375C107.63 28.0995 107.416 27.909 107.178 27.8019C106.94 27.6829 106.619 27.5639 106.214 27.4329C106.162 27.4149 106.112 27.3976 106.063 27.3808C105.822 27.2978 105.621 27.2285 105.452 27.1592C105.25 27.0639 105.107 26.9568 104.976 26.814C104.845 26.6473 104.774 26.4688 104.774 26.2307C104.774 25.9213 104.869 25.6832 105.071 25.5166C105.25 25.3499 105.524 25.2666 105.833 25.2666C106.178 25.2666 106.452 25.338 106.666 25.5404C106.881 25.707 107.011 25.9332 107.047 26.1831H107.904C107.833 25.707 107.654 25.3499 107.285 25.0524C106.94 24.7429 106.44 24.6 105.845 24.6C105.44 24.6 105.119 24.6715 104.821 24.8024C104.548 24.969 104.309 25.1476 104.167 25.3856C104.012 25.6475 103.929 25.9332 103.929 26.2426C103.929 26.5997 104.012 26.8973 104.179 27.1354C104.321 27.3734 104.536 27.5401 104.774 27.6472C104.988 27.7662 105.321 27.8852 105.702 28.0162C105.967 28.0918 106.179 28.1825 106.357 28.2584C106.403 28.278 106.446 28.2966 106.488 28.3137C106.678 28.409 106.845 28.5399 106.976 28.6827C107.107 28.8494 107.178 29.0517 107.178 29.3017C107.178 29.6111 107.107 29.8254 106.904 30.0277C106.714 30.2182 106.44 30.3015 106.095 30.3015C105.833 30.3015 105.619 30.242 105.416 30.1349C105.214 30.0277 105.071 29.8968 104.964 29.7302C104.881 29.5635 104.821 29.385 104.798 29.2184H103.941C103.952 29.5635 104.071 29.8611 104.25 30.1111C104.429 30.361 104.702 30.5872 105.012 30.73C105.345 30.8729 105.702 30.9443 106.107 30.9443C106.523 30.9443 106.892 30.8728 107.166 30.7062Z" fill="white"/>
</mask>
<g mask="url(#mask0_2537_27018)">
<rect y="-0.851562" width="109.846" height="32.3577" fill="white"/>
</g>
</svg>
