<svg width="19" height="15" viewBox="0 0 19 15" fill="none" xmlns="http://www.w3.org/2000/svg">
<path d="M17.7467 3.33081V11.6938C17.7467 12.2483 17.5261 12.7801 17.1336 13.1722C16.7411 13.5643 16.2087 13.7846 15.6536 13.7846H3.09504C2.53992 13.7846 2.00753 13.5643 1.615 13.1722C1.22247 12.7801 1.00195 12.2483 1.00195 11.6938V3.33081" stroke="white" stroke-width="0.857335" stroke-linecap="round" stroke-linejoin="round"/>
<path d="M17.7467 3.3305C17.7467 2.776 17.5261 2.24421 17.1336 1.85211C16.7411 1.46002 16.2087 1.23975 15.6536 1.23975H3.09504C2.53992 1.23975 2.00753 1.46002 1.615 1.85211C1.22247 2.24421 1.00195 2.776 1.00195 3.3305L8.26497 7.86047C8.59763 8.06815 8.98202 8.17826 9.37431 8.17826C9.76659 8.17826 10.151 8.06815 10.4836 7.86047L17.7467 3.3305Z" stroke="white" stroke-width="0.857335" stroke-linecap="round" stroke-linejoin="round"/>
</svg>
