<svg width="24" height="30" viewBox="0 0 24 30" fill="none" xmlns="http://www.w3.org/2000/svg">
<path d="M16.2462 24.5702C16.2462 24.2127 16.2462 23.8967 16.2462 23.5808C16.2297 23.5641 16.2132 23.5475 16.1966 23.5392C15.4447 23.4727 15.4364 23.4644 15.3207 22.7077C15.3124 22.6745 15.3124 22.6495 15.3124 22.6163C15.362 22.0425 14.9736 21.843 14.5191 21.7099C14.4448 21.6933 14.3456 21.7266 14.2795 21.7681C14.0398 21.9427 13.8085 22.1423 13.5688 22.3252C13.2879 22.5414 13.0813 22.5331 12.8251 22.292C12.4119 21.8845 11.9987 21.4771 11.6021 21.0614C11.3624 20.8119 11.3459 20.629 11.5442 20.338C11.693 20.1218 11.8252 19.9056 11.9987 19.7061C12.1475 19.5314 12.1227 19.3901 12.0648 19.1822C11.9326 18.7498 11.693 18.6085 11.2467 18.5752C10.2799 18.4921 10.2799 18.4588 10.2799 17.486C10.2799 17.0619 10.2799 16.6379 10.2799 16.2138C10.2799 15.9062 10.4369 15.7316 10.7344 15.6817C10.8832 15.6567 11.0402 15.6151 11.1972 15.6151C11.6351 15.5985 11.9078 15.4322 12.0318 14.9749C12.0896 14.7587 12.1062 14.6174 11.9492 14.4511C11.7756 14.2598 11.6186 14.052 11.4699 13.8441C11.2633 13.5697 11.2715 13.3701 11.5029 13.129C11.9161 12.7049 12.3375 12.2892 12.7507 11.8735C12.9656 11.6573 13.197 11.6406 13.4449 11.8236C13.5606 11.9067 13.6928 11.9732 13.8002 12.073C14.139 12.4056 14.4861 12.4971 14.9158 12.2144C15.0563 12.1229 15.1554 12.073 15.1637 11.8818C15.1802 11.5908 15.2298 11.3081 15.2629 11.017C15.2959 10.726 15.4529 10.5597 15.7421 10.5514C16.3619 10.5431 16.9817 10.5431 17.6015 10.5514C17.8824 10.5514 18.0394 10.7094 18.089 10.9755C18.1386 11.2582 18.2047 11.5492 18.2295 11.8319C18.246 12.0314 18.3617 12.0896 18.5104 12.1811C18.9402 12.4472 19.2376 12.3141 19.593 12.0065C20.2789 11.4078 20.3036 11.4245 20.9482 12.073C21.2457 12.3724 21.5514 12.6717 21.8489 12.971C22.1299 13.262 22.1464 13.42 21.915 13.7609C21.8241 13.8857 21.7498 14.027 21.6423 14.1434C21.3531 14.4428 21.3118 14.7255 21.5184 15.1079C21.6341 15.3241 21.7332 15.4488 21.9812 15.4572C22.2373 15.4655 22.4935 15.5071 22.7497 15.5486C23.0637 15.5902 23.2042 15.7482 23.2042 16.0641C23.2124 16.6628 23.2042 17.2698 23.2042 17.8685C23.2042 18.1512 23.0637 18.3175 22.791 18.3674C22.4852 18.4256 22.1795 18.4671 21.882 18.542C21.7746 18.5669 21.6671 18.6667 21.601 18.7665C21.3283 19.1822 21.4027 19.5148 21.7415 19.8973C22.3448 20.5791 22.32 20.6041 21.6671 21.2609C21.3614 21.5686 21.0639 21.8845 20.7499 22.1839C20.502 22.425 20.3119 22.4416 20.0309 22.2504C19.7996 22.0924 19.5682 21.9344 19.3533 21.7598C19.2046 21.6351 19.0806 21.6684 18.9071 21.7182C18.4526 21.843 18.3039 22.109 18.2708 22.583C18.213 23.4727 18.1716 23.4644 17.2048 23.5475C17.2048 23.6639 17.2048 23.7803 17.2048 23.8967C17.2048 25.2437 17.2048 26.5907 17.2048 27.9461C17.2048 29.2432 16.4445 29.9998 15.1637 29.9998C10.7923 29.9998 6.42081 29.9998 2.04937 29.9998C0.76025 29.9998 0 29.2349 0 27.9544C0 27.0398 0 26.1251 0 25.2188C0 24.7199 0.140481 24.5786 0.64456 24.5786C5.71014 24.5786 10.7675 24.5786 15.833 24.5786C15.9653 24.5702 16.0975 24.5702 16.2462 24.5702ZM11.2054 16.5714C11.2054 16.879 11.2137 17.1451 11.2054 17.4112C11.1972 17.6024 11.2798 17.6606 11.4616 17.6689C11.6847 17.6855 11.9161 17.7188 12.1392 17.7354C12.4202 17.7604 12.5855 17.8934 12.6764 18.1678C12.7838 18.5004 12.9243 18.8247 13.0895 19.1406C13.2217 19.4067 13.2135 19.6312 13.0399 19.864C12.8582 20.1052 12.6846 20.3629 12.5111 20.6124C12.7755 20.8784 13.0152 21.1196 13.2713 21.3773C13.5192 21.1778 13.7754 20.9865 14.0233 20.7787C14.2216 20.6124 14.42 20.6041 14.6514 20.7121C14.9902 20.8701 15.329 21.0115 15.676 21.1362C15.9239 21.2194 16.0562 21.3607 16.0892 21.6185C16.1388 21.9427 16.2049 22.267 16.2545 22.5747C16.6346 22.5747 16.9734 22.5747 17.337 22.5747C17.3701 22.2587 17.4114 21.9594 17.4362 21.66C17.461 21.369 17.6097 21.2027 17.8907 21.1029C18.2212 20.9949 18.5435 20.8535 18.8575 20.6955C19.0972 20.5708 19.3038 20.5791 19.5186 20.7371C19.7748 20.9283 20.0392 21.1113 20.2541 21.2692C20.5268 21.0198 20.7912 20.7787 21.0556 20.5375C20.849 20.2715 20.6507 20.0137 20.4524 19.7643C20.2954 19.573 20.2954 19.3818 20.3945 19.1573C20.5433 18.8164 20.692 18.4755 20.8077 18.1262C20.8986 17.8518 21.0639 17.7188 21.3366 17.6855C21.6423 17.644 21.9398 17.5858 22.2456 17.5359C22.2456 17.1617 22.2456 16.8125 22.2456 16.4549C21.915 16.4134 21.5928 16.3718 21.2788 16.3385C21.0143 16.3136 20.8821 16.1639 20.7995 15.9311C20.6838 15.5985 20.5598 15.2659 20.3945 14.9583C20.2541 14.6922 20.2623 14.476 20.4441 14.2432C20.6259 13.9938 20.7995 13.7443 20.9565 13.5115C20.692 13.2454 20.4441 12.996 20.188 12.7382C19.9566 12.9294 19.7004 13.1207 19.4525 13.3286C19.2542 13.4949 19.0558 13.4949 18.8245 13.3868C18.5022 13.2288 18.1716 13.0874 17.8246 12.9793C17.5601 12.8962 17.4197 12.7465 17.3783 12.4888C17.337 12.2227 17.2957 11.9566 17.2379 11.6905C17.2213 11.624 17.1304 11.5326 17.0726 11.5242C16.7668 11.5076 16.4611 11.5159 16.1388 11.5159C16.0975 11.8651 16.0562 12.1811 16.0231 12.4971C15.9983 12.7548 15.8578 12.8962 15.6099 12.9793C15.2711 13.1041 14.9406 13.2371 14.6183 13.4034C14.3787 13.5281 14.1721 13.5198 13.9572 13.3618C13.701 13.1706 13.4366 12.996 13.2052 12.8214C12.9325 13.0791 12.6764 13.3119 12.4202 13.5614C12.6268 13.8191 12.8251 14.0769 13.0234 14.3263C13.1887 14.5259 13.1887 14.7255 13.0813 14.9583C12.9243 15.2992 12.7838 15.6401 12.6598 15.9893C12.5772 16.2138 12.4615 16.3635 12.2136 16.4051C11.883 16.4383 11.5608 16.5048 11.2054 16.5714ZM0.933786 25.5181C0.933786 26.3829 0.933786 27.206 0.933786 28.0375C0.933786 28.6778 1.31391 29.0603 1.95847 29.0603C6.38776 29.0603 10.817 29.0603 15.2546 29.0603C15.8826 29.0603 16.2628 28.6861 16.2628 28.0542C16.271 27.2892 16.2628 26.5159 16.2628 25.7509C16.2628 25.6761 16.2462 25.593 16.238 25.5098C11.1311 25.5181 6.04895 25.5181 0.933786 25.5181Z" fill="url(#paint0_linear_2537_27210)"/>
<path d="M16.2627 4.48171C11.1393 4.48171 6.05721 4.48171 0.933785 4.48171C0.933785 4.62306 0.933785 4.73947 0.933785 4.86419C0.933785 10.7594 0.933785 16.6463 0.933785 22.5416C0.933785 23.0405 0.785041 23.2733 0.462761 23.2733C0.148745 23.2733 0 23.0405 0 22.5333C0 15.7151 0 8.89689 0 2.07871C0 0.756652 0.76025 0 2.07416 0C6.46212 0 10.8584 0 15.2463 0C16.1884 0 16.9073 0.540466 17.1304 1.40521C17.1717 1.57151 17.1883 1.75443 17.1883 1.92905C17.1883 3.53381 17.1965 5.14689 17.18 6.75166C17.18 6.89301 17.1387 7.09257 17.0478 7.1674C16.9321 7.25887 16.7338 7.30876 16.5768 7.28381C16.3454 7.25055 16.2545 7.04268 16.2545 6.80987C16.2462 6.16962 16.2545 5.52106 16.2545 4.88082C16.2627 4.7561 16.2627 4.62306 16.2627 4.48171ZM16.2627 3.50055C16.2627 3.00998 16.2627 2.56098 16.2627 2.10366C16.2627 1.26386 15.9322 0.939579 15.1058 0.939579C10.7592 0.939579 6.41254 0.939579 2.05763 0.939579C1.975 0.939579 1.89236 0.939579 1.80973 0.939579C1.35523 0.981153 0.96684 1.32206 0.950312 1.77106C0.925522 2.33647 0.942049 2.9102 0.942049 3.50055C6.04068 3.50055 11.1311 3.50055 16.2627 3.50055Z" fill="url(#paint1_linear_2537_27210)"/>
<path d="M10.2712 5.98672C10.2216 6.15302 10.1968 6.25279 10.1637 6.34426C9.28781 8.56432 8.4036 10.7844 7.5194 13.0045C7.47808 13.1125 7.41197 13.2373 7.32934 13.3121C7.16407 13.4618 6.96574 13.4701 6.78394 13.337C6.58561 13.1957 6.51951 13.0045 6.6104 12.7633C6.94095 11.9152 7.27976 11.0671 7.6103 10.2273C8.17222 8.80545 8.73415 7.38361 9.29607 5.96177C9.43655 5.60423 9.73404 5.46288 9.99021 5.63749C10.1307 5.72896 10.1968 5.88694 10.2712 5.98672Z" fill="url(#paint2_linear_2537_27210)"/>
<path d="M13.1808 9.51211C12.5858 8.93838 12.0569 8.44781 11.5529 7.92397C11.4372 7.79925 11.3463 7.57475 11.3628 7.40845C11.4041 7.0426 11.8669 6.94282 12.1644 7.23384C12.6684 7.72441 13.156 8.23162 13.6518 8.73883C13.8006 8.88849 13.9493 9.02985 14.0815 9.18783C14.2633 9.3957 14.2716 9.63683 14.0815 9.83639C13.437 10.5099 12.7841 11.1751 12.1148 11.8236C11.9082 12.0232 11.6355 11.9982 11.4537 11.7987C11.2802 11.6075 11.2884 11.3414 11.5033 11.1335C12.0404 10.6014 12.5858 10.0858 13.1808 9.51211Z" fill="url(#paint3_linear_2537_27210)"/>
<path d="M4.02404 9.50369C4.54465 10.0026 5.01567 10.4599 5.49496 10.9172C5.56107 10.9837 5.62718 11.0503 5.69328 11.1168C5.89987 11.3496 5.89987 11.624 5.70981 11.8069C5.51149 11.9981 5.26358 11.9815 5.02393 11.7653C4.96609 11.7071 4.90824 11.6489 4.8504 11.5907C4.29674 11.0336 3.74308 10.4682 3.19768 9.91112C2.90019 9.60347 2.90019 9.3956 3.20594 9.08795C3.80092 8.48097 4.3959 7.87398 4.99088 7.27531C5.24705 7.01755 5.51149 6.99261 5.72634 7.20048C5.92466 7.40004 5.90814 7.68274 5.65197 7.9405C5.1231 8.43939 4.60249 8.9466 4.02404 9.50369Z" fill="url(#paint4_linear_2537_27210)"/>
<path d="M14.2627 17.029C14.2627 15.6487 15.3701 14.5511 16.7501 14.5511C18.1053 14.5595 19.2044 15.6653 19.2126 17.0207C19.2209 18.3843 18.0888 19.5234 16.7336 19.5234C15.3701 19.5317 14.2545 18.4092 14.2627 17.029ZM17.1963 18.4674C17.8657 18.3261 18.345 17.5944 18.2706 16.9043C18.1714 16.0645 17.5269 15.4824 16.7005 15.4907C15.9155 15.499 15.2544 16.131 15.1965 16.9043C15.1469 17.6443 15.618 18.3427 16.2625 18.4591C16.2625 18.3427 16.2625 18.2263 16.2625 18.1182C16.2625 17.6609 16.2543 17.2036 16.2708 16.7463C16.2791 16.4386 16.4939 16.2391 16.7583 16.2474C17.0145 16.2557 17.188 16.4552 17.2046 16.7546C17.2128 16.8793 17.2046 17.004 17.2046 17.1288C17.1963 17.5778 17.1963 18.0184 17.1963 18.4674Z" fill="url(#paint5_linear_2537_27210)"/>
<path d="M8.60213 26.9983C9.26321 26.9983 9.9243 26.9983 10.5854 26.9983C10.982 26.9983 11.1804 27.1646 11.1721 27.4723C11.1638 27.7633 10.9655 27.9296 10.5937 27.9296C9.26321 27.9296 7.93278 27.9296 6.59408 27.9296C6.23048 27.9296 6.02389 27.755 6.01562 27.4639C6.01562 27.1729 6.22221 26.9983 6.58581 26.99C7.25516 26.99 7.92451 26.9983 8.60213 26.9983Z" fill="url(#paint6_linear_2537_27210)"/>
<path d="M9.78352 2.68579C9.4034 2.68579 9.02327 2.69411 8.63489 2.68579C8.3374 2.67748 8.14733 2.50286 8.13081 2.2451C8.11428 1.97903 8.32087 1.76284 8.61836 1.75453C9.39514 1.74621 10.1636 1.74621 10.9404 1.75453C11.2544 1.76284 11.4362 1.97071 11.4197 2.2451C11.4032 2.51118 11.2297 2.67748 10.9239 2.68579C10.5438 2.69411 10.1636 2.68579 9.78352 2.68579Z" fill="url(#paint7_linear_2537_27210)"/>
<defs>
<linearGradient id="paint0_linear_2537_27210" x1="11.6039" y1="10.5452" x2="11.6039" y2="29.9998" gradientUnits="userSpaceOnUse">
<stop stop-color="#20D4FE"/>
<stop offset="1" stop-color="#B722FF"/>
</linearGradient>
<linearGradient id="paint1_linear_2537_27210" x1="8.59516" y1="0" x2="8.59516" y2="23.2733" gradientUnits="userSpaceOnUse">
<stop stop-color="#20D4FE"/>
<stop offset="1" stop-color="#B722FF"/>
</linearGradient>
<linearGradient id="paint2_linear_2537_27210" x1="8.42074" y1="5.56287" x2="8.42074" y2="13.431" gradientUnits="userSpaceOnUse">
<stop stop-color="#20D4FE"/>
<stop offset="1" stop-color="#B722FF"/>
</linearGradient>
<linearGradient id="paint3_linear_2537_27210" x1="12.7765" y1="7.06421" x2="12.7765" y2="11.9614" gradientUnits="userSpaceOnUse">
<stop stop-color="#20D4FE"/>
<stop offset="1" stop-color="#B722FF"/>
</linearGradient>
<linearGradient id="paint4_linear_2537_27210" x1="4.41844" y1="7.06128" x2="4.41844" y2="11.9397" gradientUnits="userSpaceOnUse">
<stop stop-color="#20D4FE"/>
<stop offset="1" stop-color="#B722FF"/>
</linearGradient>
<linearGradient id="paint5_linear_2537_27210" x1="16.7377" y1="14.5511" x2="16.7377" y2="19.5235" gradientUnits="userSpaceOnUse">
<stop stop-color="#20D4FE"/>
<stop offset="1" stop-color="#B722FF"/>
</linearGradient>
<linearGradient id="paint6_linear_2537_27210" x1="8.59399" y1="26.99" x2="8.59399" y2="27.9296" gradientUnits="userSpaceOnUse">
<stop stop-color="#20D4FE"/>
<stop offset="1" stop-color="#B722FF"/>
</linearGradient>
<linearGradient id="paint7_linear_2537_27210" x1="9.77532" y1="1.74829" x2="9.77532" y2="2.68949" gradientUnits="userSpaceOnUse">
<stop stop-color="#20D4FE"/>
<stop offset="1" stop-color="#B722FF"/>
</linearGradient>
</defs>
</svg>
