<svg width="18" height="18" viewBox="0 0 18 18" fill="none" xmlns="http://www.w3.org/2000/svg">
<path d="M10.9699 16.4727L10.9788 16.4789C11.7476 16.9678 12.6603 17.1801 13.5663 17.0808C14.4722 16.9814 15.3171 16.5763 15.9613 15.9323L16.5209 15.3733C16.6449 15.2495 16.7433 15.1025 16.8104 14.9407C16.8776 14.7789 16.9121 14.6055 16.9121 14.4304C16.9121 14.2552 16.8776 14.0818 16.8104 13.92C16.7433 13.7582 16.6449 13.6112 16.5209 13.4874L14.1605 11.1314C14.0365 11.0075 13.8894 10.9092 13.7274 10.8422C13.5654 10.7751 13.3918 10.7406 13.2165 10.7406C13.0412 10.7406 12.8675 10.7751 12.7056 10.8422C12.5436 10.9092 12.3964 11.0075 12.2725 11.1314C12.0222 11.3813 11.6828 11.5217 11.3289 11.5217C10.975 11.5217 10.6357 11.3813 10.3854 11.1314L6.61117 7.36049C6.36097 7.1105 6.22042 6.77148 6.22042 6.41799C6.22042 6.0645 6.36097 5.72548 6.61117 5.47549C6.73519 5.35169 6.83357 5.20469 6.90069 5.0429C6.96782 4.8811 7.00236 4.70768 7.00236 4.53255C7.00236 4.35741 6.96782 4.18399 6.90069 4.0222C6.83357 3.8604 6.73519 3.7134 6.61117 3.5896L4.25162 1.23357C4.00135 0.983658 3.66195 0.843262 3.30807 0.843262C2.95418 0.843262 2.61479 0.983658 2.36452 1.23357L1.80399 1.79259C1.15947 2.43619 0.754044 3.28017 0.654717 4.18508C0.555389 5.08999 0.768099 6.00167 1.2577 6.76949L1.26304 6.77837C3.84874 10.5997 7.14383 13.8905 10.9699 16.4727V16.4727Z" stroke="white" stroke-width="0.857335" stroke-linecap="round" stroke-linejoin="round"/>
</svg>
