<svg width="22" height="23" viewBox="0 0 22 23" fill="none" xmlns="http://www.w3.org/2000/svg">
<circle cx="11" cy="11.3391" r="11" fill="url(#paint0_linear_2537_27323)"/>
<path d="M8.11523 15.4709C9.80469 15.4709 10.7959 14.05 10.7959 11.804C10.7959 9.57251 9.7998 8.16138 8.11523 8.16138C6.43555 8.16138 5.4248 9.57739 5.4248 11.8088C5.4248 14.0549 6.42578 15.4709 8.11523 15.4709ZM8.11523 14.553C7.10938 14.553 6.5332 13.5081 6.5332 11.8088C6.5332 10.134 7.11914 9.07935 8.11523 9.07935C9.11133 9.07935 9.69238 10.1292 9.69238 11.8088C9.69238 13.5129 9.12109 14.553 8.11523 14.553ZM13.3105 12.1506H14.1895C15.1172 12.1506 15.6934 12.6194 15.6934 13.3811C15.6934 14.0696 15.0781 14.5579 14.2188 14.5579C13.3301 14.5579 12.7734 14.094 12.7051 13.4202H11.6553C11.7236 14.636 12.7002 15.4709 14.2188 15.4709C15.6885 15.4709 16.8066 14.6262 16.8066 13.3958C16.8066 12.4094 16.123 11.76 15.0635 11.6868V11.6672C15.9375 11.511 16.5137 10.8811 16.5137 10.0022C16.5137 8.91821 15.542 8.16138 14.209 8.16138C12.8125 8.16138 11.8799 8.95728 11.7969 10.1926H12.8271C12.8906 9.49927 13.3984 9.05981 14.1602 9.05981C14.9951 9.05981 15.4443 9.49438 15.4443 10.1487C15.4443 10.8127 14.9219 11.2913 14.1602 11.2913H13.3105V12.1506Z" fill="white"/>
<defs>
<linearGradient id="paint0_linear_2537_27323" x1="11" y1="0.339111" x2="11" y2="22.3391" gradientUnits="userSpaceOnUse">
<stop stop-color="#20D4FE"/>
<stop offset="1" stop-color="#B722FF"/>
</linearGradient>
</defs>
</svg>
