<svg width="22" height="23" viewBox="0 0 22 23" fill="none" xmlns="http://www.w3.org/2000/svg">
<circle cx="11" cy="11.1755" r="11" fill="url(#paint0_linear_2537_27319)"/>
<path d="M9.11523 15.1318C10.8047 15.1318 11.7959 13.7109 11.7959 11.4648C11.7959 9.2334 10.7998 7.82227 9.11523 7.82227C7.43555 7.82227 6.4248 9.23828 6.4248 11.4697C6.4248 13.7158 7.42578 15.1318 9.11523 15.1318ZM9.11523 14.2139C8.10938 14.2139 7.5332 13.1689 7.5332 11.4697C7.5332 9.79492 8.11914 8.74023 9.11523 8.74023C10.1113 8.74023 10.6924 9.79004 10.6924 11.4697C10.6924 13.1738 10.1211 14.2139 9.11523 14.2139ZM14.4814 15H15.5508V7.9541H14.4717L12.6162 9.27246V10.3467L14.457 9.03809H14.4814V15Z" fill="white"/>
<defs>
<linearGradient id="paint0_linear_2537_27319" x1="11" y1="0.175537" x2="11" y2="22.1755" gradientUnits="userSpaceOnUse">
<stop stop-color="#20D4FE"/>
<stop offset="1" stop-color="#B722FF"/>
</linearGradient>
</defs>
</svg>
