<svg width="22" height="23" viewBox="0 0 22 23" fill="none" xmlns="http://www.w3.org/2000/svg">
<circle cx="11" cy="11.0366" r="11" fill="url(#paint0_linear_2537_27320)"/>
<path d="M8.11523 15.1685C9.80469 15.1685 10.7959 13.7476 10.7959 11.5015C10.7959 9.27002 9.7998 7.85889 8.11523 7.85889C6.43555 7.85889 5.4248 9.2749 5.4248 11.5063C5.4248 13.7524 6.42578 15.1685 8.11523 15.1685ZM8.11523 14.2505C7.10938 14.2505 6.5332 13.2056 6.5332 11.5063C6.5332 9.83154 7.11914 8.77686 8.11523 8.77686C9.11133 8.77686 9.69238 9.82666 9.69238 11.5063C9.69238 13.2104 9.12109 14.2505 8.11523 14.2505ZM11.6406 10.0562V10.0659H12.6758V10.0513C12.6758 9.31885 13.2568 8.76221 14.0283 8.76221C14.7607 8.76221 15.3271 9.26025 15.3271 9.88525C15.3271 10.437 15.1025 10.8081 14.2432 11.7017L11.6992 14.2944V15.0366H16.5186V14.1138H13.1738V14.0894L14.9365 12.3169C15.9668 11.2622 16.4062 10.6519 16.4062 9.83154C16.4062 8.71338 15.4053 7.85889 14.0625 7.85889C12.6611 7.85889 11.6406 8.78662 11.6406 10.0562Z" fill="white"/>
<defs>
<linearGradient id="paint0_linear_2537_27320" x1="11" y1="0.0366211" x2="11" y2="22.0366" gradientUnits="userSpaceOnUse">
<stop stop-color="#20D4FE"/>
<stop offset="1" stop-color="#B722FF"/>
</linearGradient>
</defs>
</svg>
