<svg width="27" height="20" viewBox="0 0 27 20" fill="none" xmlns="http://www.w3.org/2000/svg">
<g clip-path="url(#clip0_2537_27041)">
<path d="M0 1.31495C0.0257949 1.25295 0.0550756 1.19234 0.0759904 1.12895C0.310933 0.423251 0.923039 -0.0309565 1.66621 -0.0400128C2.19675 -0.0462826 2.72729 -0.0414061 3.25713 -0.0414061C10.4825 -0.0414061 17.7078 -0.0414061 24.9332 -0.0414061C25.8409 -0.0414061 26.5039 0.465746 26.6796 1.29057C26.8908 2.28049 26.1553 3.23837 25.1424 3.29201C25.0294 3.29758 24.9165 3.29549 24.8035 3.29549C17.2394 3.29549 9.67448 3.28574 2.1103 3.30733C1.06038 3.31082 0.326271 2.97782 0 1.94053C0 1.73154 0 1.52324 0 1.31495Z" fill="white"/>
<path d="M0 9.65796C0.0320693 9.57994 0.0669273 9.50261 0.0955108 9.4232C0.331848 8.75721 0.932799 8.31485 1.64042 8.3044C2.21418 8.29604 2.78794 8.30231 3.3617 8.30231C10.5522 8.30231 17.7427 8.30231 24.9332 8.30231C25.8402 8.30231 26.5032 8.81015 26.6803 9.63497C26.8922 10.6242 26.156 11.5828 25.1424 11.6364C25.0294 11.642 24.9165 11.6399 24.8035 11.6399C17.2394 11.6399 9.67448 11.6301 2.1103 11.6517C1.06038 11.6538 0.326271 11.3215 0 10.2842C0 10.0753 0 9.86696 0 9.65796Z" fill="white"/>
<path d="M0 18.0012C0.0320693 17.9232 0.0669273 17.8459 0.0955108 17.7665C0.331848 17.1005 0.932799 16.6581 1.64042 16.6477C2.21418 16.6393 2.78794 16.6456 3.3617 16.6456C10.5522 16.6456 17.7427 16.6456 24.9332 16.6456C25.8402 16.6456 26.5032 17.1534 26.6803 17.9782C26.8922 18.9675 26.156 19.926 25.1424 19.9797C25.0294 19.9853 24.9165 19.9832 24.8035 19.9832C17.2394 19.9832 9.67448 19.9734 2.1103 19.995C1.06038 19.9971 0.326271 19.6648 0 18.6268C0 18.4185 0 18.2095 0 18.0012Z" fill="white"/>
</g>
<defs>
<clipPath id="clip0_2537_27041">
<rect width="27" height="20" fill="white"/>
</clipPath>
</defs>
</svg>
