<svg width="28" height="24" viewBox="0 0 28 24" fill="none" xmlns="http://www.w3.org/2000/svg">
<g clip-path="url(#clip0_2558_30629)">
<path d="M19.8592 18.0696C20.6367 17.6216 21.3977 17.184 22.1579 16.7457C22.8221 16.3622 23.4848 15.9757 24.1497 15.5945C25.0946 15.0534 26.1738 15.31 26.6894 16.1956C27.2065 17.082 26.8981 18.1574 25.9562 18.703C23.4713 20.1417 20.9834 21.5752 18.497 23.0101C18.0002 23.2968 17.4644 23.4379 16.8895 23.4379C14.6703 23.4371 12.4518 23.4371 10.2326 23.4379C9.71778 23.4379 9.23146 23.3253 8.77066 23.0979C8.59654 23.0116 8.42093 22.9283 8.20178 22.8225C8.20178 23.0416 8.20779 23.224 8.20028 23.4064C8.18902 23.7058 8.02392 23.8822 7.72672 23.8837C6.54695 23.8897 5.36717 23.8897 4.1874 23.8837C3.88795 23.8822 3.72359 23.7081 3.70934 23.4109C3.70333 23.2818 3.70858 23.1512 3.70858 22.9876C3.59001 22.9876 3.49019 22.9876 3.39113 22.9876C2.48303 22.9876 1.57493 22.9891 0.666839 22.9868C0.278084 22.9861 0.114476 22.827 0.113726 22.4457C0.111474 20.4141 0.112225 18.3826 0.113726 16.351C0.113726 15.9517 0.273581 15.7986 0.682599 15.7979C1.58169 15.7964 2.48003 15.7971 3.37912 15.7971C3.47968 15.7971 3.581 15.7971 3.70934 15.7971C3.70934 15.6335 3.70333 15.4954 3.71084 15.3581C3.72585 15.0871 3.8842 14.9048 4.14687 14.9033C5.35441 14.8958 6.56271 14.895 7.77025 14.904C8.03067 14.9055 8.18602 15.0924 8.20103 15.3648C8.20779 15.4864 8.20253 15.608 8.20328 15.7296C8.20328 15.8496 8.20328 15.9697 8.20328 16.1176C8.80293 15.969 9.38306 15.8572 9.94293 15.68C10.8878 15.3813 11.8049 15.4241 12.7535 15.6943C14.7041 16.2504 16.6688 16.7547 18.6291 17.2733C19.1222 17.4039 19.5552 17.6208 19.8592 18.0696ZM8.20253 17.0429C8.20253 17.1645 8.20253 17.2666 8.20253 17.3686C8.20253 18.7165 8.21379 20.0644 8.19353 21.4123C8.18902 21.7223 8.28284 21.8708 8.56127 21.9977C9.11438 22.2483 9.63672 22.547 10.2776 22.5433C12.4773 22.5305 14.677 22.5515 16.8767 22.5253C17.2542 22.5208 17.6737 22.427 17.9995 22.2423C20.5301 20.8104 23.0443 19.3492 25.5599 17.8902C26.0222 17.6223 26.1633 17.0872 25.9127 16.6557C25.665 16.2286 25.1209 16.08 24.6661 16.3405C23.2131 17.1705 21.7639 18.0088 20.3177 18.8516C20.2464 18.8929 20.1736 19.007 20.1751 19.0858C20.2014 20.1245 19.1747 21.1526 17.8554 20.7969C16.1142 20.3278 14.3716 19.864 12.6297 19.3957C12.3107 19.3102 12.1696 19.097 12.2394 18.8239C12.307 18.5612 12.5456 18.4471 12.8661 18.5312C13.6248 18.7315 14.3828 18.9342 15.1416 19.1376C16.1255 19.4017 17.1071 19.6712 18.0925 19.9293C18.7575 20.1034 19.3293 19.6351 19.2693 18.9777C19.234 18.5867 18.9781 18.3105 18.5105 18.1844C16.5165 17.6471 14.5217 17.115 12.5276 16.5791C12.0218 16.4433 11.516 16.2489 10.9869 16.3667C10.06 16.5724 9.13915 16.8133 8.20253 17.0429ZM7.28018 22.9808C7.28018 20.5928 7.28018 18.2062 7.28018 15.8159C6.38934 15.8159 5.50676 15.8159 4.62794 15.8159C4.62794 18.2145 4.62794 20.595 4.62794 22.9808C5.51802 22.9808 6.38709 22.9808 7.28018 22.9808ZM3.69282 22.075C3.69282 20.2806 3.69282 18.5004 3.69282 16.7135C2.79448 16.7135 1.91266 16.7135 1.03233 16.7135C1.03233 18.5124 1.03233 20.2933 1.03233 22.075C1.92842 22.075 2.80424 22.075 3.69282 22.075Z" fill="url(#paint0_linear_2558_30629)"/>
<path d="M5.95114 24C5.36726 24 4.77812 23.9985 4.18673 23.9962C3.834 23.9947 3.61336 23.7778 3.59685 23.4161C3.59234 23.326 3.59384 23.2345 3.59459 23.1377C3.59459 23.1256 3.59459 23.1129 3.59459 23.1001H2.61145C1.96302 23.1001 1.31385 23.1009 0.664672 23.0994C0.211374 23.0979 -0.000264517 22.8907 -0.000264517 22.4457C-0.00251599 20.4989 -0.00251599 18.5049 -0.000264517 16.351C-0.000264517 15.8916 0.209873 15.686 0.681183 15.6853C1.32285 15.6838 1.96528 15.6845 2.6077 15.6845H3.59459C3.59459 15.6718 3.59459 15.6597 3.59384 15.6477C3.59234 15.5457 3.59159 15.4496 3.59685 15.3528C3.61561 15.0136 3.83025 14.7937 4.14471 14.7914C5.38002 14.7839 6.59957 14.7839 7.76958 14.7922C8.08029 14.7944 8.29343 15.0173 8.31144 15.3595C8.31594 15.4474 8.31519 15.5359 8.31444 15.6215C8.31369 15.6582 8.31369 15.6943 8.31369 15.731V15.9757C8.45478 15.9419 8.59513 15.9097 8.73397 15.8774C9.14148 15.7836 9.52649 15.6943 9.90624 15.5742C10.8083 15.289 11.7487 15.2935 12.7821 15.5877C14.2989 16.02 15.8509 16.4283 17.3519 16.8223C17.7864 16.9363 18.2217 17.0512 18.6562 17.166C19.2161 17.3146 19.6116 17.5562 19.89 17.9225L20.5302 17.5532C21.0571 17.25 21.5786 16.9498 22.1002 16.6489C22.3517 16.5033 22.6031 16.3577 22.8545 16.2121C23.2665 15.9735 23.6793 15.734 24.0928 15.4976C25.0842 14.9303 26.2415 15.2057 26.7856 16.1393C27.043 16.5814 27.115 17.0879 26.9882 17.566C26.8531 18.0748 26.5064 18.5139 26.0111 18.8006C24.0703 19.9248 22.095 21.064 20.1842 22.1658L18.5512 23.1076C18.0416 23.4018 17.4825 23.5504 16.8896 23.5504C16.8888 23.5504 16.8881 23.5504 16.8881 23.5504C14.6689 23.5497 12.4504 23.5489 10.2312 23.5504C10.2304 23.5504 10.2297 23.5504 10.2289 23.5504C9.69985 23.5504 9.19177 23.4318 8.71896 23.1992C8.60188 23.1414 8.4848 23.0851 8.35347 23.0221L8.31294 23.0026C8.31294 23.0093 8.31294 23.0168 8.31294 23.0236C8.31444 23.1579 8.31519 23.2848 8.31069 23.4108C8.29643 23.7756 8.07729 23.9947 7.7253 23.9962C7.14367 23.9985 6.55078 24 5.95114 24ZM3.39121 22.8742H3.82124V22.9868C3.82124 23.0408 3.82049 23.0911 3.82049 23.1392C3.81974 23.2367 3.81824 23.3208 3.82274 23.4041C3.834 23.6487 3.95408 23.7688 4.18898 23.7696C5.38527 23.7756 6.57555 23.7748 7.72681 23.7696C7.95721 23.7681 8.07879 23.6442 8.08854 23.4003C8.09305 23.2795 8.0923 23.1557 8.09079 23.0236C8.09004 22.959 8.08929 22.8915 8.08929 22.8209V22.6416L8.45328 22.8172C8.58462 22.8802 8.7032 22.9373 8.82027 22.9951C9.26231 23.2127 9.73663 23.323 10.2304 23.323C10.2312 23.323 10.2319 23.323 10.2319 23.323C12.4512 23.3215 14.6696 23.3215 16.8888 23.323C16.8896 23.323 16.8903 23.323 16.8903 23.323C17.4434 23.323 17.965 23.1842 18.4393 22.9103L20.0724 21.9684C21.9824 20.8667 23.9577 19.7274 25.8985 18.6039C26.3413 18.3473 26.6512 17.9578 26.7705 17.5067C26.8816 17.0864 26.8178 16.6406 26.5904 16.2511C26.1026 15.4143 25.0992 15.1787 24.2039 15.6913C23.7911 15.9277 23.3791 16.1663 22.9671 16.4057C22.7156 16.5513 22.4642 16.6969 22.2121 16.8425C21.6905 17.1435 21.1696 17.4437 20.642 17.7469L19.8225 18.2189L19.764 18.1326C19.5118 17.7604 19.1516 17.5285 18.5977 17.3821C18.1632 17.2673 17.7286 17.1532 17.2941 17.0384C15.7923 16.6436 14.2388 16.2354 12.7198 15.8023C11.7172 15.5164 10.8444 15.5111 9.97378 15.7866C9.58578 15.9097 9.19627 15.999 8.78425 16.0943C8.60038 16.1363 8.41501 16.1798 8.22738 16.2256L8.08779 16.2601V15.7288C8.08779 15.6913 8.08779 15.6537 8.08854 15.617C8.08929 15.5314 8.09004 15.4511 8.08629 15.3701C8.08029 15.2642 8.03826 15.0173 7.76733 15.0158C6.59806 15.0076 5.38002 15.0076 4.14546 15.0151C3.86927 15.0166 3.8265 15.259 3.82049 15.3633C3.81599 15.4526 3.81674 15.5449 3.81824 15.6432C3.81899 15.692 3.81974 15.7423 3.81974 15.7956V15.9082H2.6062C1.96452 15.9082 1.3221 15.9082 0.680432 15.9089C0.330703 15.9097 0.224133 16.0125 0.224133 16.3494C0.222632 18.5034 0.222632 20.4974 0.224133 22.4442C0.224133 22.7639 0.335956 22.872 0.664672 22.8727C1.3131 22.8742 1.96227 22.8742 2.6107 22.8735L3.39121 22.8742ZM7.39284 23.0934H4.51545V15.7033H7.39284V23.0934ZM4.7406 22.8682H7.16769V15.9284H4.7406V22.8682ZM10.2665 22.6551C9.69985 22.6551 9.22104 22.4299 8.75798 22.2123C8.67768 22.1748 8.59663 22.1365 8.51557 22.0997C8.19812 21.9556 8.07578 21.762 8.08179 21.41C8.0968 20.4224 8.09455 19.4167 8.0923 18.4448C8.09155 18.0861 8.09079 17.7266 8.09079 17.3679V16.9536L8.17635 16.9326C8.45403 16.8643 8.73021 16.7952 9.00489 16.7269C9.64657 16.5663 10.31 16.4012 10.9644 16.2556C11.4402 16.1506 11.8905 16.2797 12.3258 16.4042C12.4039 16.4268 12.4812 16.4485 12.5592 16.4695C13.39 16.6924 14.2208 16.9153 15.0516 17.1382C16.2156 17.4497 17.3789 17.7619 18.5422 18.0756C19.1868 18.2489 19.3557 18.6565 19.3835 18.9672C19.415 19.3109 19.2896 19.6291 19.0412 19.84C18.7816 20.0599 18.4258 20.1319 18.0663 20.0381C17.4157 19.8678 16.756 19.6891 16.1173 19.5165C15.7833 19.4257 15.4486 19.3357 15.1147 19.2464C14.3567 19.043 13.5987 18.8403 12.8399 18.64C12.6966 18.6017 12.5742 18.6092 12.4857 18.661C12.4189 18.7 12.3739 18.7645 12.3513 18.8516C12.2815 19.124 12.4812 19.2388 12.6613 19.2869C13.4028 19.4858 14.1443 19.6846 14.8858 19.8828C15.8862 20.1507 16.8866 20.4179 17.887 20.688C18.4483 20.8389 18.9939 20.7361 19.4247 20.3976C19.8383 20.0726 20.0769 19.5833 20.0649 19.088C20.0619 18.9589 20.1647 18.8111 20.263 18.754C21.8511 17.8287 23.274 17.0069 24.6121 16.2429C25.1142 15.9562 25.7296 16.113 26.0118 16.5994C26.1491 16.8358 26.1852 17.1074 26.1131 17.3649C26.0411 17.623 25.8647 17.8444 25.6178 17.9878L24.9101 18.3983C22.6684 19.6981 20.3508 21.0423 18.0566 22.3399C17.7316 22.5238 17.3023 22.6326 16.8791 22.6371C15.5987 22.6521 14.2966 22.6513 13.038 22.6506C12.1337 22.6498 11.1986 22.6491 10.28 22.6551C10.2747 22.6551 10.2702 22.6551 10.2665 22.6551ZM8.31519 17.1307V17.3679C8.31519 17.7266 8.31594 18.0853 8.31669 18.4441C8.31894 19.4167 8.3212 20.4231 8.30619 21.413C8.30243 21.6779 8.36998 21.786 8.60788 21.8941C8.69044 21.9316 8.77149 21.9699 8.85329 22.0082C9.3141 22.2251 9.75013 22.4299 10.2657 22.4299C10.2695 22.4299 10.2732 22.4299 10.277 22.4299C11.1971 22.4247 12.1322 22.4254 13.0365 22.4254C14.2944 22.4262 15.5957 22.4269 16.8753 22.4119C17.2558 22.4074 17.6551 22.3069 17.944 22.144C20.2368 20.8472 22.5543 19.503 24.7953 18.2032L25.503 17.7926C25.6996 17.6786 25.8384 17.5052 25.8947 17.3041C25.9503 17.1059 25.9217 16.8958 25.8152 16.7127C25.5953 16.3344 25.115 16.2136 24.7217 16.4388C23.3843 17.2028 21.9621 18.0238 20.3741 18.9492C20.3336 18.9724 20.287 19.0512 20.2878 19.0827C20.3021 19.6486 20.0311 20.2062 19.5621 20.5747C19.0743 20.9582 18.4581 21.0761 17.8269 20.9057C16.8273 20.6363 15.8269 20.3683 14.8265 20.1012C14.085 19.903 13.3427 19.7042 12.6013 19.5053C12.2245 19.404 12.0451 19.1323 12.1314 18.7961C12.169 18.6505 12.2515 18.5371 12.3701 18.4673C12.5112 18.3848 12.6928 18.369 12.8954 18.4231C13.6542 18.6234 14.4129 18.8268 15.1709 19.0295C15.5057 19.1195 15.8396 19.2096 16.1743 19.3004C16.8123 19.473 17.4712 19.6516 18.1211 19.8212C18.4086 19.8963 18.69 19.8407 18.8934 19.6689C19.0855 19.506 19.1816 19.2584 19.1576 18.9882C19.126 18.64 18.8986 18.4058 18.4814 18.294C17.3181 17.9803 16.1548 17.6688 14.9908 17.3566C14.16 17.1337 13.3292 16.9116 12.4984 16.6879C12.4196 16.6669 12.3408 16.6444 12.262 16.6219C11.835 16.4995 11.4312 16.384 11.0117 16.477C10.3603 16.6211 9.69835 16.787 9.05818 16.9468C8.81202 17.0076 8.56361 17.0699 8.31519 17.1307ZM3.80548 22.1875H0.919089V16.6009H3.80473V22.1875H3.80548ZM1.14424 21.9624H3.57958V16.826H1.14424V21.9624Z" fill="url(#paint1_linear_2558_30629)"/>
<path d="M6.40086 21.8805C6.40086 21.9646 6.41211 22.0509 6.3986 22.1327C6.35958 22.3759 6.21323 22.5177 5.96557 22.5335C5.73367 22.5477 5.53554 22.3706 5.51152 22.1259C5.49726 21.9773 5.50177 21.8265 5.50702 21.6771C5.51678 21.3867 5.69014 21.1976 5.94381 21.1916C6.20723 21.1848 6.3911 21.3814 6.40311 21.6839C6.40536 21.7492 6.40386 21.8152 6.40386 21.8805C6.40311 21.8805 6.40236 21.8805 6.40086 21.8805Z" fill="url(#paint2_linear_2558_30629)"/>
<path d="M5.93911 22.6467C5.66142 22.6467 5.42802 22.4291 5.3995 22.1372C5.38449 21.9803 5.38974 21.8242 5.395 21.6734C5.40701 21.3259 5.62615 21.0865 5.94211 21.079C6.26857 21.073 6.50273 21.3176 6.51698 21.6794C6.51849 21.7259 6.51849 21.7724 6.51774 21.8197L6.51698 21.9931C6.51849 22.0441 6.51849 22.0966 6.51023 22.1507C6.46145 22.4509 6.27082 22.6272 5.97288 22.6452C5.96162 22.6467 5.95036 22.6467 5.93911 22.6467ZM5.95712 21.3041C5.95412 21.3041 5.95036 21.3041 5.94736 21.3041C5.75298 21.3086 5.62765 21.4535 5.62015 21.6809C5.61564 21.8242 5.61039 21.9728 5.6239 22.1154C5.64191 22.3008 5.78676 22.4321 5.95862 22.4208C6.14849 22.4088 6.25581 22.309 6.28733 22.1146C6.29484 22.0696 6.29259 22.0186 6.29034 21.9645C6.28884 21.936 6.28808 21.9083 6.28808 21.8805V21.7679H6.29259C6.29259 21.7416 6.29259 21.7146 6.29109 21.6884C6.28208 21.4505 6.1545 21.3041 5.95712 21.3041Z" fill="url(#paint3_linear_2558_30629)"/>
<path d="M9.32404 10.5887C9.32404 10.3426 9.32404 10.1272 9.32404 9.89002C9.22873 9.89002 9.14392 9.89002 9.05837 9.89002C7.10934 9.89002 5.16031 9.89002 3.21128 9.89002C2.79701 9.89002 2.7002 9.79246 2.7002 9.37518C2.7002 8.08058 2.7002 6.78674 2.7002 5.49214C2.7002 5.10563 2.80451 5.00206 3.19177 5.00206C5.1408 5.00206 7.08983 5.00206 9.03886 5.00206C9.12591 5.00206 9.21297 5.00206 9.33455 5.00206C9.33455 4.91876 9.33455 4.84221 9.33455 4.76641C9.33455 4.16301 9.3323 3.55962 9.3353 2.95547C9.3383 2.30329 9.78034 1.862 10.4333 1.8605C11.1748 1.85825 11.917 1.86425 12.6585 1.8545C12.7598 1.853 12.8829 1.80196 12.9572 1.73292C13.2499 1.46049 13.5253 1.17005 13.8105 0.889365C14.0034 0.700241 14.2135 0.679978 14.3741 0.891617C14.5963 1.18281 14.8244 1.21958 15.1171 1.03046C15.1591 1.00344 15.2102 0.991432 15.2702 0.967416C15.2702 0.817318 15.2672 0.665718 15.2709 0.513368C15.2769 0.252947 15.4023 0.11936 15.6575 0.116358C16.101 0.111855 16.5445 0.111104 16.9881 0.117108C17.2305 0.12011 17.3551 0.255199 17.3656 0.502111C17.3656 0.509616 17.3656 0.51637 17.3656 0.523875C17.3776 1.00869 17.3768 1.01094 17.8504 1.16555C17.8932 1.17981 17.951 1.15429 17.9997 1.14003C18.0177 1.13478 18.0313 1.11076 18.047 1.09575C18.5453 0.614685 18.5529 0.615435 19.0504 1.11226C19.2973 1.35842 19.506 1.7014 19.8039 1.82298C20.1101 1.94831 20.5049 1.859 20.8606 1.8605C21.3042 1.862 21.7477 1.85975 22.1912 1.86125C22.8584 1.8635 23.3005 2.30179 23.3005 2.96748C23.302 5.41108 23.3012 7.85394 23.3012 10.2975C23.3012 10.3846 23.3012 10.4709 23.3012 10.5895C23.5181 10.5895 23.726 10.5872 23.9331 10.5902C24.2183 10.594 24.3459 10.7186 24.3474 11.0038C24.3504 11.4473 24.3534 11.8908 24.3467 12.3344C24.3376 12.931 23.8889 13.3806 23.2885 13.3813C18.6414 13.3843 13.9936 13.3843 9.34656 13.3813C8.73641 13.3813 8.29212 12.9265 8.28611 12.3141C8.28161 11.8781 8.28311 11.4413 8.28611 11.0053C8.28761 10.7193 8.4137 10.594 8.69888 10.5902C8.90227 10.5865 9.1049 10.5887 9.32404 10.5887ZM11.4352 10.5737C14.7028 10.5737 17.9487 10.5737 21.1893 10.5737C21.1893 8.36052 21.1893 6.16233 21.1893 3.96713C20.9567 3.96713 20.7413 3.96713 20.5079 3.96713C20.5079 4.30411 20.5109 4.62982 20.5071 4.95553C20.5034 5.21445 20.3743 5.34429 20.1184 5.35104C19.966 5.35555 19.8137 5.35179 19.6553 5.35179C19.6336 5.40508 19.6216 5.45611 19.5945 5.49664C19.3912 5.79984 19.4482 6.03249 19.7401 6.25764C19.939 6.41074 19.9187 6.62088 19.7386 6.80625C19.5007 7.05166 19.2561 7.29032 19.0144 7.53197C18.5641 7.98227 18.5176 7.98302 18.0725 7.54098C18.047 7.51546 18.0253 7.47794 17.9945 7.46668C17.948 7.44942 17.8879 7.43066 17.8459 7.44642C17.6845 7.50571 17.5277 7.57775 17.3648 7.64755C17.3648 7.80816 17.3686 7.96051 17.3641 8.11285C17.3566 8.35752 17.2275 8.49035 16.9836 8.49335C16.54 8.49861 16.0965 8.49861 15.6529 8.49335C15.4083 8.49035 15.2792 8.35827 15.2717 8.11361C15.2672 7.95525 15.2709 7.79615 15.2709 7.64605C15.2402 7.63104 15.2267 7.62579 15.2139 7.61828C14.8852 7.41565 14.5985 7.38488 14.3381 7.75112C14.215 7.92373 13.9974 7.90122 13.839 7.74737C13.5155 7.43291 13.1973 7.11395 12.8821 6.79124C12.7193 6.62463 12.6983 6.40624 12.8806 6.2764C13.2296 6.02799 13.2146 5.75781 13.0165 5.43885C13.0015 5.41559 12.9925 5.38782 12.9767 5.35329C12.8446 5.35329 12.7148 5.35404 12.5842 5.35329C12.2435 5.35104 12.1294 5.23622 12.1279 4.89324C12.1271 4.58404 12.1279 4.27484 12.1279 3.96864C11.8795 3.96864 11.6641 3.96864 11.4397 3.96864C11.4397 4.31236 11.4397 4.64408 11.4397 4.99156C11.7324 5.04709 11.7842 5.25498 11.7827 5.52366C11.7752 6.79574 11.7744 8.06858 11.7827 9.34066C11.7849 9.62059 11.7429 9.84649 11.4359 9.91179C11.4352 10.1392 11.4352 10.3486 11.4352 10.5737ZM11.0622 9.18831C11.0622 8.0303 11.0622 6.87379 11.0622 5.71578C8.50676 5.71578 5.95883 5.71578 3.41541 5.71578C3.41541 6.88205 3.41541 8.03255 3.41541 9.18831C5.96934 9.18831 8.50601 9.18831 11.0622 9.18831ZM9.00433 11.2942C8.99458 11.3295 8.98782 11.343 8.98782 11.3565C8.98632 11.6252 8.98557 11.8946 8.98557 12.1633C8.98557 12.591 9.07938 12.6841 9.51242 12.6841C14.0491 12.6841 18.5866 12.6841 23.1233 12.6841C23.1961 12.6841 23.2697 12.6901 23.341 12.6789C23.5099 12.6526 23.6344 12.5513 23.6419 12.3817C23.6577 12.0222 23.6464 11.6612 23.6464 11.2942C18.7532 11.2942 13.884 11.2942 9.00433 11.2942ZM12.8311 4.65384C12.9707 4.65384 13.0923 4.65534 13.2146 4.65309C13.4172 4.64933 13.5336 4.7514 13.6041 4.93677C13.7122 5.22046 13.8277 5.50114 13.9531 5.77732C14.0319 5.95069 14.0281 6.10229 13.8893 6.23512C13.7955 6.32518 13.6904 6.40248 13.5868 6.48879C13.7812 6.68317 13.9388 6.84002 14.1347 7.0359C14.2195 6.93308 14.2968 6.82726 14.3861 6.73345C14.5182 6.59386 14.6698 6.59011 14.8432 6.66816C15.1193 6.79349 15.4008 6.90907 15.6845 7.01714C15.8698 7.08768 15.9727 7.20326 15.9697 7.40589C15.9682 7.53272 15.9697 7.66031 15.9697 7.78339C16.2196 7.78339 16.435 7.78339 16.6684 7.78339C16.6684 7.6498 16.6699 7.52822 16.6676 7.40589C16.6639 7.20326 16.7667 7.08768 16.9528 7.01789C17.2365 6.91057 17.5172 6.79424 17.7934 6.66891C17.9667 6.59011 18.1183 6.59461 18.2504 6.73345C18.3397 6.82726 18.417 6.93233 18.5011 7.03365C18.6962 6.83852 18.853 6.68167 19.0497 6.48504C18.9641 6.41749 18.8718 6.3582 18.7953 6.2824C18.5919 6.08277 18.5911 5.97921 18.7157 5.72254C18.832 5.48238 18.9334 5.23322 19.0219 4.98105C19.109 4.73339 19.1953 4.65609 19.4639 4.65384C19.5765 4.65233 19.6898 4.65384 19.7987 4.65384C19.7987 4.40467 19.7987 4.18928 19.7987 3.95513C19.6658 3.95513 19.5435 3.95363 19.4219 3.95513C19.22 3.95813 19.103 3.85681 19.0324 3.67069C18.9243 3.387 18.8088 3.10632 18.6834 2.83014C18.6046 2.65677 18.6084 2.50593 18.7472 2.37309C18.841 2.28378 18.9461 2.20573 19.0459 2.12167C18.8508 1.9303 18.6924 1.7742 18.5093 1.59483C18.4433 1.66838 18.375 1.75168 18.2984 1.82748C18.0958 2.02861 17.9922 2.03161 17.7371 1.90778C17.4969 1.79146 17.2477 1.68864 16.9956 1.60083C16.7472 1.51377 16.6691 1.42822 16.6669 1.16029C16.6654 1.04772 16.6669 0.934395 16.6669 0.824072C16.4184 0.824072 16.2031 0.824072 15.9682 0.824072C15.9682 0.935145 15.9689 1.03496 15.9682 1.13478C15.9667 1.43422 15.8984 1.50852 15.6214 1.60684C15.3633 1.6984 15.1088 1.80797 14.8627 1.9288C14.6736 2.02111 14.5175 2.01435 14.3689 1.862C14.2803 1.77119 14.188 1.68339 14.1189 1.61584C13.9426 1.7877 13.788 1.93855 13.6086 2.11342C13.6814 2.17871 13.7647 2.24776 13.8405 2.32356C14.0416 2.52544 14.0439 2.62976 13.9208 2.88492C13.8045 3.12508 13.6994 3.3735 13.6161 3.62641C13.5448 3.8418 13.4277 3.96263 13.1943 3.95513C13.0743 3.95137 12.9542 3.95438 12.8303 3.95438C12.8311 4.19829 12.8311 4.40842 12.8311 4.65384ZM19.6568 3.25717C20.24 3.25717 20.8216 3.25717 21.4032 3.25717C21.804 3.25717 21.9053 3.35849 21.9053 3.75925C21.9053 5.94844 21.9053 8.13762 21.9053 10.3268C21.9053 10.4109 21.9053 10.4949 21.9053 10.5782C22.1522 10.5782 22.3676 10.5782 22.5852 10.5782C22.5928 10.5482 22.6018 10.5279 22.6018 10.5084C22.6025 7.98452 22.604 5.46062 22.6018 2.93671C22.6018 2.69355 22.4637 2.56597 22.2175 2.55996C21.9991 2.55471 21.7807 2.55846 21.5631 2.55846C20.9447 2.55846 20.3263 2.55771 19.7079 2.55921C19.4399 2.55996 19.3942 2.62976 19.4977 2.86616C19.5518 2.99149 19.6005 3.11983 19.6568 3.25717ZM10.7312 4.99231C10.7312 4.55627 10.7305 4.13525 10.7312 3.71497C10.732 3.37275 10.8468 3.25792 11.1898 3.25792C11.7857 3.25717 12.3815 3.25792 12.9774 3.25792C13.0405 3.10707 13.0983 2.96673 13.1583 2.82789C13.2304 2.66053 13.1778 2.56221 12.994 2.56146C12.1286 2.55771 11.2626 2.55846 10.3972 2.56146C10.1946 2.56221 10.0453 2.67254 10.0415 2.87217C10.028 3.57538 10.0363 4.27934 10.0363 4.99306C10.2689 4.99231 10.4843 4.99231 10.7312 4.99231ZM10.0408 10.579C10.2794 10.579 10.4941 10.579 10.7185 10.579C10.7185 10.3486 10.7185 10.1287 10.7185 9.90503C10.4858 9.90503 10.2659 9.90503 10.0408 9.90503C10.0408 10.1339 10.0408 10.3486 10.0408 10.579Z" fill="url(#paint4_linear_2558_30629)"/>
<path d="M16.3187 13.4953C13.9899 13.4953 11.6604 13.4945 9.34735 13.493C8.67416 13.4923 8.18108 12.997 8.17433 12.3148C8.16983 11.8382 8.17208 11.3639 8.17433 11.0037C8.17658 10.6592 8.35295 10.4813 8.69817 10.4768C8.83777 10.4746 8.97661 10.4753 9.12145 10.4761H9.21151V10.0033H3.21057C2.73251 10.0033 2.58691 9.85691 2.58691 9.37585C2.58691 8.08125 2.58691 6.7874 2.58691 5.4928C2.58691 5.0425 2.73926 4.89015 3.19031 4.89015H9.22127V4.20795C9.22052 3.79068 9.22052 3.37341 9.22202 2.95613C9.22502 2.23641 9.71134 1.75084 10.4326 1.74859C10.6937 1.74784 10.9542 1.74784 11.2153 1.74859C11.6881 1.74859 12.1767 1.74934 12.657 1.74259C12.7291 1.74184 12.8251 1.70206 12.8807 1.65103C13.0638 1.48067 13.2439 1.29905 13.418 1.12343C13.5223 1.01836 13.6259 0.913293 13.7317 0.809725C13.8623 0.681391 14.0034 0.6191 14.1392 0.629607C14.2248 0.635611 14.3501 0.674636 14.4642 0.823984C14.6481 1.06564 14.8087 1.09641 15.0563 0.936558C15.0894 0.915544 15.1239 0.901285 15.1577 0.889277C15.1577 0.869014 15.1577 0.84875 15.1577 0.828487C15.1569 0.723418 15.1562 0.617599 15.1592 0.511029C15.1667 0.187567 15.343 0.00744841 15.6567 0.00369595C16.1303 -0.0015575 16.5663 -0.0015575 16.9904 0.00369595C17.2883 0.00744841 17.4662 0.186816 17.4782 0.496019C17.4782 0.502023 17.4782 0.507276 17.4782 0.51328V0.521536C17.4834 0.732424 17.4864 0.848 17.5255 0.899784C17.5652 0.952318 17.6838 0.991344 17.8812 1.05589C17.8932 1.05514 17.9187 1.04688 17.9352 1.04163C17.9397 1.04013 17.9435 1.03863 17.9472 1.03787C17.954 1.02962 17.9615 1.02136 17.969 1.01386C18.5124 0.490015 18.5882 0.490766 19.13 1.03187C19.2081 1.10917 19.2816 1.19548 19.3529 1.27953C19.5128 1.46641 19.6636 1.64352 19.8467 1.71782C20.0381 1.79587 20.2768 1.77936 20.5289 1.7621C20.6385 1.7546 20.7496 1.74634 20.8614 1.74709C21.0881 1.74784 21.3155 1.74784 21.5421 1.74784C21.759 1.74784 21.9751 1.74709 22.192 1.74784C22.9223 1.75084 23.4131 2.24016 23.4138 2.96664C23.4153 4.7288 23.4146 6.49095 23.4146 8.25311V10.4761H23.5024C23.6487 10.4753 23.7921 10.4753 23.9354 10.4768C24.2821 10.4813 24.4585 10.6584 24.4608 11.0022C24.4638 11.4127 24.4668 11.8787 24.46 12.335C24.4503 12.9947 23.9474 13.4923 23.2892 13.493C20.977 13.4945 18.6482 13.4953 16.3187 13.4953ZM8.93158 10.7005C8.85428 10.7005 8.77773 10.7005 8.70193 10.702C8.47828 10.705 8.40173 10.7815 8.40023 11.0052C8.39798 11.3639 8.39573 11.8375 8.40023 12.3125C8.40548 12.8656 8.80399 13.2679 9.3481 13.2679C13.9734 13.2709 18.6647 13.2709 23.29 13.2679C23.8304 13.2679 24.2274 12.8739 24.2356 12.332C24.2424 11.878 24.2394 11.4134 24.2364 11.0037C24.2349 10.7808 24.1583 10.705 23.9332 10.702C23.7913 10.6997 23.6487 10.7005 23.5039 10.7012L23.1902 10.702V8.25311C23.1902 6.49095 23.1902 4.7288 23.1894 2.96739C23.1887 2.36625 22.7977 1.97599 22.192 1.97374C21.9759 1.97299 21.7597 1.97299 21.5429 1.97374C21.3155 1.97374 21.0881 1.97449 20.8607 1.97299C20.7593 1.97299 20.6505 1.98049 20.5447 1.98725C20.2775 2.00601 20.0013 2.02477 19.7612 1.92721C19.5278 1.8319 19.3514 1.62551 19.1811 1.42663C19.1098 1.34257 19.0415 1.26377 18.9702 1.19248C18.7645 0.987592 18.6294 0.851752 18.5461 0.850251C18.4651 0.848 18.3292 0.979336 18.1244 1.17747L18.1184 1.18422C18.1026 1.20373 18.0763 1.236 18.0298 1.24876C18.0208 1.25101 18.0118 1.25402 18.0028 1.25702C17.9495 1.27428 17.8835 1.29529 17.8152 1.27278C17.2973 1.10317 17.2658 1.06114 17.2523 0.52829V0.51253C17.2448 0.3144 17.1652 0.231095 16.9859 0.228844C16.5633 0.22359 16.1288 0.22359 15.6575 0.228844C15.4669 0.231095 15.3873 0.313649 15.3828 0.515532C15.3806 0.6191 15.3813 0.723418 15.3821 0.826236C15.3821 0.873517 15.3828 0.920047 15.3828 0.966578V1.04238L15.3123 1.0709C15.2905 1.0799 15.2702 1.08666 15.25 1.09416C15.22 1.10467 15.1944 1.11367 15.1772 1.12493C14.8304 1.34858 14.5385 1.29454 14.2833 0.959823C14.2331 0.89303 14.1783 0.857756 14.1212 0.853253C14.0334 0.846499 13.9456 0.913293 13.8878 0.96958C13.7828 1.0724 13.6799 1.17672 13.5764 1.28103C13.4008 1.45815 13.2191 1.64127 13.0323 1.81538C12.9362 1.90469 12.7861 1.96548 12.6585 1.96773C12.1767 1.97449 11.6866 1.97374 11.2138 1.97374C10.9534 1.97374 10.693 1.97299 10.4318 1.97374C9.84493 1.97599 9.44867 2.37075 9.44566 2.95688C9.44416 3.37341 9.44416 3.79068 9.44491 4.20795V5.1153H3.18881C2.8631 5.1153 2.81056 5.16859 2.80981 5.4928C2.80981 6.7874 2.80981 8.08125 2.80981 9.37585C2.80981 9.73233 2.85484 9.77736 3.20832 9.77811H9.43366V10.702L9.1177 10.7012C9.05691 10.7012 8.99387 10.7005 8.93158 10.7005ZM23.2382 12.7981C23.218 12.7981 23.1977 12.7973 23.1774 12.7973C23.1594 12.7973 23.1407 12.7966 23.1226 12.7966H9.51171C9.28881 12.7966 9.11845 12.7741 9.00663 12.6645C8.8948 12.5542 8.87229 12.3846 8.87229 12.1639C8.87229 11.8953 8.87379 11.6258 8.87454 11.3564C8.87454 11.3309 8.88129 11.3099 8.8873 11.2919C8.88955 11.2851 8.89255 11.2761 8.89555 11.2648L8.91807 11.1823H23.7583V11.2949C23.7583 11.4014 23.7591 11.508 23.7598 11.6138C23.7621 11.8675 23.7643 12.1302 23.7531 12.3876C23.744 12.6 23.5924 12.7546 23.3568 12.7906C23.317 12.7966 23.2772 12.7981 23.2382 12.7981ZM23.1226 12.5714C23.1429 12.5714 23.1624 12.5722 23.1827 12.5722C23.233 12.5737 23.2802 12.5744 23.323 12.5677C23.3973 12.5564 23.5227 12.5159 23.5287 12.3771C23.5392 12.1249 23.5377 11.8772 23.5354 11.6146C23.5347 11.5455 23.5339 11.4757 23.5339 11.4067H9.10044C9.09894 11.6588 9.09819 11.911 9.09819 12.1632C9.09819 12.3553 9.11845 12.4566 9.16573 12.5039C9.21376 12.5512 9.31733 12.5714 9.51246 12.5714H23.1226ZM10.8311 10.6915H9.92823V9.79237H10.8311V10.6915ZM10.1534 10.4663H10.6059V10.0175H10.1534V10.4663ZM22.6738 10.6907H21.7928V3.75916C21.7928 3.42069 21.7417 3.37041 21.4033 3.36965C20.9965 3.36965 20.5897 3.36965 20.1822 3.36965H19.5818L19.5533 3.29986C19.5353 3.25558 19.518 3.2128 19.5015 3.17077C19.4662 3.08222 19.4317 2.99666 19.3949 2.91185C19.3447 2.79703 19.3026 2.66644 19.3687 2.56438C19.4355 2.46156 19.5713 2.4473 19.7079 2.4473C20.1499 2.44655 20.5912 2.44655 21.0333 2.44655H21.5631C21.6284 2.44655 21.6945 2.44655 21.7597 2.4458C21.9106 2.44505 22.0659 2.4443 22.2205 2.4473C22.5297 2.45405 22.7144 2.63717 22.7151 2.93662C22.7174 5.28566 22.7166 7.6347 22.7159 9.98375V10.5083C22.7159 10.5384 22.7084 10.5631 22.7024 10.5834C22.7001 10.5901 22.6979 10.5976 22.6964 10.6052L22.6738 10.6907ZM22.0179 10.4656H22.49V9.983C22.4907 7.63395 22.4915 5.28491 22.4892 2.93662C22.4892 2.758 22.4044 2.67695 22.2145 2.67245C22.0637 2.66945 21.9098 2.66945 21.7605 2.67095C21.6945 2.67095 21.6284 2.6717 21.5624 2.6717H21.0325C20.5912 2.6717 20.1492 2.67095 19.7079 2.67245C19.6096 2.67245 19.5721 2.6837 19.5585 2.68896C19.5585 2.70247 19.5646 2.73924 19.6006 2.8218C19.6381 2.9081 19.6734 2.99591 19.7101 3.08747C19.7177 3.10623 19.7252 3.12574 19.7334 3.14526H20.1822C20.5897 3.14526 20.9965 3.14526 21.4033 3.14526C21.8686 3.14526 22.0179 3.29461 22.0179 3.75991V10.4656ZM21.3027 10.6862H11.3226V9.81864L11.412 9.79988C11.6116 9.7571 11.6716 9.64978 11.6701 9.33982C11.6619 8.11277 11.6619 6.86395 11.6701 5.52132C11.6716 5.23913 11.6108 5.13706 11.4187 5.10029L11.3271 5.08303V3.85447H12.2405V4.24773C12.2405 4.46162 12.2405 4.67626 12.2405 4.8909C12.2412 5.17234 12.3058 5.23688 12.585 5.23913C12.675 5.23988 12.7651 5.23913 12.8552 5.23913H13.0488L13.0788 5.30518C13.0848 5.31793 13.0901 5.32994 13.0946 5.3412C13.1006 5.35471 13.1051 5.36747 13.1118 5.37797C13.3647 5.78399 13.3107 6.1067 12.946 6.36637C12.8972 6.40164 12.8694 6.44442 12.8649 6.49396C12.8589 6.56225 12.8942 6.64105 12.9625 6.71085C13.2844 7.04106 13.6056 7.36152 13.9171 7.66472C13.9824 7.72852 14.0612 7.76304 14.128 7.75703C14.1753 7.75253 14.215 7.72852 14.2458 7.68424C14.5978 7.18816 15.0001 7.35327 15.2725 7.52063C15.2777 7.52363 15.2822 7.52588 15.2897 7.52888L15.3828 7.57466V7.64446C15.3828 7.69099 15.3828 7.73752 15.3821 7.7848C15.3813 7.89062 15.3806 8.00019 15.3836 8.10826C15.3896 8.29589 15.4699 8.37694 15.6537 8.37919C16.0988 8.38445 16.5453 8.38445 16.9821 8.37919C17.163 8.37694 17.2455 8.29364 17.2515 8.10751C17.2545 8.00545 17.2538 7.90338 17.253 7.79531C17.2523 7.74578 17.2523 7.69624 17.2523 7.64596V7.57166L17.3206 7.54239C17.3649 7.52363 17.4091 7.50412 17.4527 7.48536C17.5675 7.43507 17.6868 7.38329 17.8077 7.33901C17.8842 7.31049 17.969 7.33526 18.0343 7.36002C18.0838 7.37879 18.1139 7.41481 18.1364 7.44183C18.1416 7.44783 18.1469 7.45459 18.1529 7.46059C18.3285 7.6347 18.4583 7.75853 18.5401 7.75853H18.5409C18.6234 7.75778 18.7563 7.63095 18.9356 7.45233C19.0077 7.38029 19.0805 7.30824 19.1525 7.23619C19.3191 7.07033 19.4918 6.89922 19.6584 6.72811C19.7342 6.65006 19.7739 6.56901 19.7687 6.50071C19.7649 6.44592 19.7319 6.39414 19.6719 6.34761C19.3244 6.07968 19.2689 5.78174 19.5015 5.43501C19.512 5.41925 19.5203 5.39523 19.5308 5.36672C19.5375 5.3487 19.5443 5.32919 19.5518 5.31043L19.5803 5.24063H19.6554C19.7049 5.24063 19.7537 5.24063 19.8025 5.24138C19.9105 5.24213 20.0126 5.24288 20.1154 5.23988C20.3113 5.23463 20.3916 5.15207 20.3946 4.95545C20.3976 4.72955 20.3968 4.50815 20.3961 4.274C20.3961 4.17343 20.3953 4.07137 20.3953 3.96855V3.85597H21.3019V10.6862H21.3027ZM11.5478 10.4611H21.0768V4.07962H20.6205C20.6205 4.14416 20.6205 4.20795 20.6212 4.27175C20.622 4.5074 20.6227 4.72955 20.6197 4.95695C20.6152 5.27516 20.4389 5.45452 20.1222 5.46353C20.0156 5.46653 19.912 5.46578 19.8017 5.46503C19.7792 5.46503 19.7567 5.46503 19.7342 5.46428C19.7229 5.4958 19.7094 5.52732 19.6884 5.55884C19.524 5.8035 19.5578 5.97461 19.8092 6.16749C19.921 6.2538 19.9848 6.36262 19.9938 6.4827C20.0036 6.61779 19.9436 6.75663 19.8205 6.88346C19.6531 7.05607 19.4797 7.22794 19.3124 7.39455C19.2403 7.46659 19.1675 7.53864 19.0955 7.61069C18.5994 8.10676 18.4861 8.10826 17.9945 7.61969C17.984 7.60919 17.9743 7.59793 17.9645 7.58592C17.9593 7.57992 17.9547 7.57316 17.9495 7.56866C17.9007 7.5514 17.8842 7.5514 17.8812 7.55215C17.7716 7.59268 17.6606 7.64071 17.5435 7.69174C17.5217 7.7015 17.4999 7.7105 17.4782 7.72026C17.4782 7.74503 17.4782 7.76979 17.4789 7.79381C17.4797 7.90413 17.4804 8.00845 17.4774 8.11502C17.4677 8.42272 17.2883 8.60134 16.9851 8.60434C16.5468 8.60959 16.098 8.60959 15.6515 8.60434C15.3475 8.60059 15.1682 8.42272 15.1592 8.11577C15.1554 8.0032 15.1569 7.89137 15.1577 7.7833C15.1577 7.76004 15.1577 7.73677 15.1584 7.71426C15.1577 7.71351 15.1562 7.71276 15.1554 7.712C14.8252 7.50862 14.6286 7.53639 14.4304 7.81407C14.3614 7.91089 14.2616 7.97017 14.149 7.98068C14.0162 7.99269 13.8743 7.9364 13.761 7.82608C13.448 7.52213 13.1261 7.19942 12.8019 6.86845C12.6863 6.74987 12.6293 6.60953 12.6413 6.47369C12.6518 6.35737 12.7118 6.2568 12.8154 6.1825C13.0848 5.99113 13.1133 5.805 12.9212 5.49655C12.9144 5.48604 12.9084 5.47479 12.9032 5.46428H12.8552C12.7643 5.46428 12.6735 5.46428 12.5835 5.46428C12.1812 5.46203 12.0169 5.29617 12.0154 4.89165C12.0146 4.67626 12.0146 4.46162 12.0154 4.24698V4.07887H11.5523V4.90216C11.8983 5.01924 11.896 5.36672 11.8953 5.52207C11.887 6.8632 11.887 8.11127 11.8953 9.33757C11.8968 9.51469 11.899 9.86967 11.5485 9.995V10.4611H11.5478ZM11.1748 9.3008H3.30213V5.60312H11.1748V9.3008ZM3.52728 9.07565H10.9489V5.82827H3.52728V9.07565ZM16.7802 7.89663H15.8564V7.66998C15.8564 7.58292 15.8556 7.49361 15.8571 7.40505C15.8594 7.26321 15.7978 7.18141 15.6447 7.12362C15.352 7.01255 15.0669 6.89397 14.7974 6.77239C14.6526 6.7071 14.5573 6.71835 14.4687 6.81216C14.4109 6.8737 14.3576 6.93975 14.3014 7.01029C14.2751 7.04332 14.2488 7.07559 14.2225 7.10861L14.1437 7.20392L13.4203 6.48195L13.5148 6.40315C13.5479 6.37613 13.5809 6.34911 13.6131 6.32284C13.6837 6.26656 13.7505 6.21252 13.8113 6.15398C13.9051 6.06467 13.9163 5.96861 13.8503 5.82452C13.7317 5.56259 13.6162 5.28566 13.4991 4.97721C13.4405 4.82411 13.358 4.76332 13.2169 4.76557C13.1328 4.76707 13.0488 4.76707 12.9595 4.76632H12.7193V3.84247H12.8319C12.8702 3.84247 12.9084 3.84246 12.946 3.84171C13.0315 3.84096 13.1156 3.84021 13.1989 3.84322C13.364 3.84772 13.448 3.78017 13.5103 3.5918C13.5899 3.35164 13.6942 3.09723 13.821 2.83605C13.9291 2.61316 13.9224 2.56438 13.7625 2.40302C13.713 2.35274 13.6582 2.30546 13.6056 2.25893C13.5816 2.23791 13.5576 2.2169 13.5351 2.19664L13.4458 2.11633L14.1212 1.4574L14.2661 1.59924C14.3231 1.65478 14.3877 1.71782 14.4514 1.78236C14.5573 1.89043 14.6586 1.90319 14.8154 1.82664C15.0774 1.69831 15.3363 1.58874 15.5862 1.50018C15.8286 1.41387 15.8564 1.37635 15.8579 1.13394C15.8586 1.06714 15.8579 0.9996 15.8579 0.929053V0.71141H16.7817V0.928303C16.7817 1.00485 16.781 1.08215 16.7817 1.1587C16.784 1.36959 16.8215 1.41988 17.0354 1.49417C17.2966 1.58573 17.5502 1.69005 17.7889 1.80638C18.011 1.91445 18.0598 1.9077 18.2212 1.74709C18.2715 1.69756 18.3187 1.64277 18.3653 1.58949C18.3863 1.56547 18.4073 1.54146 18.4276 1.51819L18.5064 1.43038L19.2156 2.12684L19.1203 2.20639C19.0887 2.23266 19.0572 2.25818 19.025 2.28444C18.9552 2.34073 18.8884 2.39476 18.8268 2.4533C18.733 2.54261 18.7218 2.63792 18.7878 2.78202C18.9094 3.04994 19.0272 3.33513 19.139 3.62933C19.1968 3.78168 19.2786 3.84397 19.4212 3.84096C19.506 3.83946 19.5901 3.84021 19.6786 3.84021H19.9128V4.76407H19.6981C19.6216 4.76407 19.5443 4.76332 19.4662 4.76407C19.2539 4.76632 19.2036 4.80385 19.1293 5.01624C19.0355 5.28416 18.9304 5.53783 18.8186 5.76973C18.7097 5.99488 18.7157 6.04291 18.8756 6.20051C18.9229 6.24704 18.9777 6.28757 19.0362 6.33035C19.0647 6.35136 19.0932 6.37238 19.121 6.39414L19.2208 6.47219L18.4944 7.19792L18.4156 7.1026C18.3893 7.07108 18.3638 7.03881 18.3375 7.00654C18.2812 6.936 18.2279 6.86995 18.1701 6.80841C18.0808 6.7146 17.9848 6.70334 17.8407 6.76864C17.572 6.89097 17.2868 7.00879 16.9934 7.12062C16.838 7.17915 16.7787 7.25796 16.781 7.40205C16.7825 7.48611 16.7817 7.57016 16.7817 7.65797L16.7802 7.89663ZM16.0808 7.67148H16.5551V7.66022C16.5551 7.57391 16.5558 7.49136 16.5543 7.40881C16.5506 7.17165 16.6707 7.00504 16.9116 6.91348C17.2013 6.80391 17.4819 6.68758 17.7461 6.5675C17.9773 6.46243 18.1746 6.49245 18.3315 6.65681C18.396 6.72436 18.4538 6.7964 18.5094 6.8662L18.8779 6.49771C18.8231 6.45718 18.7668 6.41365 18.7157 6.36337C18.4628 6.11496 18.4801 5.94985 18.6137 5.67367C18.7225 5.44927 18.8238 5.20386 18.9146 4.94344C19.0204 4.64174 19.1533 4.54343 19.4617 4.54042C19.5368 4.53967 19.6111 4.53967 19.6854 4.53967V4.06761H19.6756C19.5886 4.06761 19.506 4.06686 19.4227 4.06836C19.4197 4.06836 19.416 4.06836 19.413 4.06836C19.1803 4.06836 19.0167 3.94828 18.9266 3.71113C18.8163 3.42069 18.7 3.14 18.5807 2.87658C18.4756 2.64468 18.5056 2.44805 18.67 2.2912C18.7368 2.22741 18.8081 2.16962 18.8779 2.11408L18.5161 1.75835C18.4726 1.80788 18.4276 1.85816 18.3788 1.9077C18.1259 2.15836 17.9623 2.14185 17.6891 2.00976C17.4587 1.89794 17.2133 1.79662 16.9596 1.70806C16.6564 1.60225 16.5581 1.46941 16.5551 1.16246C16.5543 1.08741 16.5543 1.01236 16.5543 0.937309H16.0815C16.0815 1.0056 16.0815 1.0709 16.0815 1.13619C16.0793 1.47241 15.9892 1.59699 15.6605 1.71332C15.4188 1.79887 15.1682 1.90544 14.9138 2.03003C14.6691 2.14935 14.465 2.12084 14.2901 1.94072C14.2331 1.88218 14.1738 1.82439 14.1212 1.77336L13.776 2.10958C13.8248 2.15236 13.8743 2.19664 13.9224 2.24467C14.173 2.49683 14.1565 2.66119 14.0237 2.93437C13.9013 3.18653 13.8008 3.43195 13.7242 3.66235C13.6312 3.94378 13.4563 4.07587 13.1921 4.06836C13.1111 4.06611 13.03 4.06686 12.9475 4.06686C12.946 4.06686 12.9452 4.06686 12.9437 4.06686V4.54117H12.9595C13.0473 4.54117 13.1298 4.54192 13.2116 4.54042C13.4488 4.53592 13.6162 4.656 13.7085 4.89691C13.824 5.20086 13.9374 5.47329 14.0544 5.73146C14.1595 5.96261 14.1295 6.15999 13.9659 6.31684C13.8983 6.38213 13.8248 6.44067 13.7535 6.49771L14.125 6.86845C14.1813 6.7979 14.2398 6.72436 14.3036 6.65681C14.4597 6.4917 14.6563 6.46093 14.889 6.566C15.1547 6.68608 15.4353 6.80241 15.7235 6.91198C15.9644 7.00354 16.0845 7.17015 16.0815 7.4073C16.08 7.49511 16.0808 7.58217 16.0808 7.66848V7.67148ZM10.8438 5.10479H9.92298V4.99222C9.92298 4.79484 9.92223 4.59896 9.92148 4.40308C9.91998 3.8995 9.91847 3.37941 9.92823 2.86908C9.93273 2.61841 10.1211 2.4488 10.3965 2.44805C11.3677 2.44505 12.2172 2.4443 12.994 2.44805C13.1223 2.4488 13.2131 2.48858 13.2634 2.56588C13.3152 2.64543 13.3145 2.74825 13.2612 2.87133C13.2206 2.96589 13.1809 3.06045 13.1396 3.15877L13.051 3.36965H12.4506C12.0304 3.36965 11.6093 3.36965 11.1891 3.37041C10.9084 3.37116 10.8438 3.4357 10.8431 3.71563C10.8423 4.00982 10.8423 4.30327 10.8423 4.60271L10.8438 5.10479ZM10.1481 4.87965H10.6187V4.60196C10.6187 4.30252 10.6187 4.00832 10.6194 3.71413C10.6202 3.31037 10.786 3.14526 11.1906 3.14451C11.6116 3.14376 12.0319 3.14376 12.4529 3.14376H12.9032L12.9332 3.07171C12.9745 2.97264 13.0143 2.87733 13.0555 2.78202C13.0856 2.71297 13.0758 2.68896 13.0758 2.68896C13.0758 2.68896 13.0585 2.6732 12.994 2.6732C12.218 2.66945 11.3684 2.66945 10.398 2.6732C10.326 2.6732 10.1579 2.69346 10.1541 2.87358C10.1444 3.38091 10.1459 3.90025 10.1474 4.40233C10.1474 4.56069 10.1481 4.71979 10.1481 4.87965Z" fill="url(#paint5_linear_2558_30629)"/>
<path d="M7.62541 5.89429C7.8423 6.00236 8.03518 6.09842 8.24982 6.20574C7.78601 7.1341 7.32671 8.05195 6.85615 8.99382C6.64752 8.89175 6.44864 8.79494 6.22949 8.68837C6.6933 7.75926 7.15185 6.84066 7.62541 5.89429Z" fill="url(#paint6_linear_2558_30629)"/>
<path d="M6.90644 9.14316L6.07715 8.73864L7.57438 5.74268L8.39992 6.1547L6.90644 9.14316ZM6.38035 8.63582L6.80438 8.84296L8.09747 6.25526L7.67495 6.04437L6.38035 8.63582Z" fill="url(#paint7_linear_2558_30629)"/>
<path d="M5.24862 6.16284C5.39722 6.33095 5.54056 6.49306 5.69441 6.66642C5.45651 6.89157 5.19008 7.14223 4.88613 7.42967C5.20809 7.71861 5.48202 7.96402 5.76571 8.21844C5.56383 8.40456 5.40397 8.55166 5.24862 8.695C4.89439 8.35203 4.51839 8.0023 4.16116 7.63381C4.04333 7.51148 4.0696 7.33811 4.18892 7.21578C4.53415 6.8638 4.88838 6.52008 5.24862 6.16284Z" fill="url(#paint8_linear_2558_30629)"/>
<path d="M5.24672 8.84966L5.17017 8.77611C5.07185 8.6808 4.97204 8.58548 4.87147 8.48867C4.6103 8.23876 4.33937 7.97984 4.08045 7.71191C3.9266 7.55281 3.93861 7.31115 4.10897 7.13703C4.35588 6.88412 4.60279 6.64171 4.86322 6.38504C4.96453 6.28522 5.06735 6.18466 5.16942 6.08259L5.25422 5.99854L5.85086 6.67323L5.05234 7.42747L5.93267 8.21699L5.24672 8.84966ZM5.24371 6.3265C5.16942 6.40005 5.09512 6.47285 5.02157 6.54564C4.7619 6.80156 4.51574 7.04322 4.27033 7.29464C4.20053 7.36593 4.16451 7.47475 4.24256 7.55506C4.49848 7.81998 4.76715 8.07665 5.02757 8.32506C5.10262 8.39711 5.17692 8.46841 5.25122 8.53895L5.59945 8.21849L4.72137 7.43047L5.53941 6.65822L5.24371 6.3265Z" fill="url(#paint9_linear_2558_30629)"/>
<path d="M9.57659 7.44793C9.27489 7.15599 9.01522 6.90382 8.74805 6.64565C8.91316 6.4873 9.06926 6.33795 9.25238 6.16309C9.51805 6.43176 9.79123 6.70944 10.0659 6.98488C10.4967 7.41716 10.4967 7.47795 10.0629 7.91173C9.80024 8.17366 9.53757 8.43483 9.27414 8.696C9.26439 8.70575 9.24863 8.70876 9.22536 8.71926C9.07676 8.56016 8.92516 8.39805 8.74955 8.21043C9.00622 7.97327 9.27264 7.72861 9.57659 7.44793Z" fill="url(#paint10_linear_2558_30629)"/>
<path d="M9.19909 8.85426L8.59044 8.20283L9.41298 7.44558L8.58594 6.64481L9.25463 6.00464L9.58709 6.34086C9.77172 6.52773 9.95859 6.71686 10.1462 6.90523C10.6213 7.38179 10.6205 7.51388 10.1432 7.99119C9.88054 8.25311 9.61786 8.51429 9.35444 8.77546C9.33193 8.79797 9.30566 8.80848 9.2884 8.81448C9.2839 8.81598 9.27864 8.81823 9.27339 8.82049L9.19909 8.85426ZM8.9094 8.21559L9.24112 8.56982C9.48953 8.32366 9.73644 8.07825 9.98335 7.83134C10.3684 7.44709 10.3684 7.44709 9.98636 7.06358C9.79873 6.87521 9.61111 6.68533 9.42649 6.49846L9.25012 6.31985L8.91015 6.64481L9.74019 7.44934L8.9094 8.21559Z" fill="url(#paint11_linear_2558_30629)"/>
<path d="M18.4119 4.30784C18.4112 5.46135 17.4648 6.40397 16.3143 6.39872C15.1593 6.39346 14.2249 5.45685 14.2227 4.30034C14.2204 3.15058 15.1675 2.20646 16.321 2.21022C17.4768 2.21322 18.4127 3.15208 18.4119 4.30784ZM16.3075 5.70076C17.0805 5.70451 17.7117 5.07935 17.7132 4.30859C17.7155 3.54609 17.0963 2.91643 16.3375 2.90817C15.563 2.89992 14.9281 3.51908 14.9206 4.28983C14.9131 5.06134 15.5383 5.697 16.3075 5.70076Z" fill="url(#paint12_linear_2558_30629)"/>
<path d="M16.3236 6.5113C16.3206 6.5113 16.3168 6.5113 16.3138 6.5113C15.101 6.50605 14.1126 5.5139 14.1104 4.30035C14.1089 3.71497 14.3385 3.16261 14.7565 2.74533C15.1746 2.32731 15.7277 2.09766 16.3146 2.09766C16.3168 2.09766 16.3183 2.09766 16.3206 2.09766C17.5364 2.10066 18.5248 3.09281 18.5233 4.30786C18.5225 4.89699 18.2906 5.45161 17.8703 5.86963C17.4553 6.2839 16.9059 6.5113 16.3236 6.5113ZM16.3153 2.32205C15.7885 2.32205 15.2916 2.52844 14.9164 2.90444C14.5411 3.27968 14.3348 3.77501 14.3363 4.2996C14.3385 5.39007 15.2263 6.2809 16.3153 6.28616C16.3183 6.28616 16.3213 6.28616 16.3243 6.28616C16.8467 6.28616 17.3397 6.08127 17.7135 5.70978C18.091 5.33453 18.2996 4.8362 18.2996 4.30786C18.3004 3.21589 17.4133 2.32581 16.3213 2.3228C16.3191 2.32205 16.3168 2.32205 16.3153 2.32205ZM16.3146 5.81334C16.3123 5.81334 16.3101 5.81334 16.3078 5.81334C15.9063 5.81184 15.5288 5.65199 15.2451 5.3638C14.9599 5.07486 14.8053 4.69286 14.8091 4.28834C14.8128 3.88533 14.9749 3.50858 15.2639 3.2264C15.5528 2.94421 15.9333 2.79186 16.3393 2.79561C17.1611 2.80387 17.8283 3.48307 17.826 4.30861C17.8253 4.71087 17.6669 5.08912 17.3803 5.37356C17.0951 5.65724 16.7168 5.81334 16.3146 5.81334ZM16.3086 5.5882C16.3108 5.5882 16.3123 5.5882 16.3146 5.5882C16.6568 5.5882 16.9787 5.45536 17.2219 5.2137C17.4658 4.97204 17.6001 4.65008 17.6009 4.30786C17.6024 3.6054 17.0358 3.02752 16.3363 3.02076C16.3318 3.02076 16.3273 3.02076 16.3228 3.02076C15.9836 3.02076 15.6631 3.1506 15.4207 3.38775C15.1746 3.62791 15.0372 3.94837 15.0342 4.2906C15.0305 4.63432 15.1625 4.95928 15.4057 5.2062C15.6466 5.45086 15.9671 5.5867 16.3086 5.5882Z" fill="url(#paint13_linear_2558_30629)"/>
</g>
<defs>
<linearGradient id="paint0_linear_2558_30629" x1="-3.54751" y1="16.2806" x2="6.84378" y2="36.3223" gradientUnits="userSpaceOnUse">
<stop stop-color="#20D4FE"/>
<stop offset="1" stop-color="#B722FF"/>
</linearGradient>
<linearGradient id="paint1_linear_2558_30629" x1="-3.69246" y1="16.2034" x2="7.05586" y2="36.6009" gradientUnits="userSpaceOnUse">
<stop stop-color="#20D4FE"/>
<stop offset="1" stop-color="#B722FF"/>
</linearGradient>
<linearGradient id="paint2_linear_2558_30629" x1="5.37872" y1="21.398" x2="6.76761" y2="22.0019" gradientUnits="userSpaceOnUse">
<stop stop-color="#20D4FE"/>
<stop offset="1" stop-color="#B722FF"/>
</linearGradient>
<linearGradient id="paint3_linear_2558_30629" x1="5.23568" y1="21.3201" x2="6.93184" y2="22.1093" gradientUnits="userSpaceOnUse">
<stop stop-color="#20D4FE"/>
<stop offset="1" stop-color="#B722FF"/>
</linearGradient>
<linearGradient id="paint4_linear_2558_30629" x1="-0.253509" y1="2.15443" x2="18.4876" y2="21.9181" gradientUnits="userSpaceOnUse">
<stop stop-color="#20D4FE"/>
<stop offset="1" stop-color="#B722FF"/>
</linearGradient>
<linearGradient id="paint5_linear_2558_30629" x1="-0.39771" y1="2.07598" x2="18.6669" y2="22.0529" gradientUnits="userSpaceOnUse">
<stop stop-color="#20D4FE"/>
<stop offset="1" stop-color="#B722FF"/>
</linearGradient>
<linearGradient id="paint6_linear_2558_30629" x1="5.95387" y1="6.37113" x2="9.09072" y2="7.69279" gradientUnits="userSpaceOnUse">
<stop stop-color="#20D4FE"/>
<stop offset="1" stop-color="#B722FF"/>
</linearGradient>
<linearGradient id="paint7_linear_2558_30629" x1="5.76026" y1="6.26582" x2="9.3141" y2="7.83497" gradientUnits="userSpaceOnUse">
<stop stop-color="#20D4FE"/>
<stop offset="1" stop-color="#B722FF"/>
</linearGradient>
<linearGradient id="paint8_linear_2558_30629" x1="3.85566" y1="6.5524" x2="6.4508" y2="7.66585" gradientUnits="userSpaceOnUse">
<stop stop-color="#20D4FE"/>
<stop offset="1" stop-color="#B722FF"/>
</linearGradient>
<linearGradient id="paint9_linear_2558_30629" x1="3.70526" y1="6.43717" x2="6.69779" y2="7.76695" gradientUnits="userSpaceOnUse">
<stop stop-color="#20D4FE"/>
<stop offset="1" stop-color="#B722FF"/>
</linearGradient>
<linearGradient id="paint10_linear_2558_30629" x1="8.52423" y1="6.55634" x2="11.0832" y2="7.61797" gradientUnits="userSpaceOnUse">
<stop stop-color="#20D4FE"/>
<stop offset="1" stop-color="#B722FF"/>
</linearGradient>
<linearGradient id="paint11_linear_2558_30629" x1="8.32456" y1="6.44304" x2="11.2709" y2="7.72351" gradientUnits="userSpaceOnUse">
<stop stop-color="#20D4FE"/>
<stop offset="1" stop-color="#B722FF"/>
</linearGradient>
<linearGradient id="paint12_linear_2558_30629" x1="13.6511" y1="2.85459" x2="19.0526" y2="6.34667" gradientUnits="userSpaceOnUse">
<stop stop-color="#20D4FE"/>
<stop offset="1" stop-color="#B722FF"/>
</linearGradient>
<linearGradient id="paint13_linear_2558_30629" x1="13.5083" y1="2.77667" x2="19.1993" y2="6.45467" gradientUnits="userSpaceOnUse">
<stop stop-color="#20D4FE"/>
<stop offset="1" stop-color="#B722FF"/>
</linearGradient>
<clipPath id="clip0_2558_30629">
<rect width="27.0508" height="24" fill="white"/>
</clipPath>
</defs>
</svg>
