<svg width="11" height="10" viewBox="0 0 11 10" fill="none" xmlns="http://www.w3.org/2000/svg">
<path d="M4.84413 0.525349C5.00179 0.0431589 5.68393 0.0431598 5.84158 0.52535L6.64868 2.99386C6.71921 3.20958 6.92044 3.3555 7.1474 3.3555H9.75221C10.2613 3.3555 10.4721 4.0076 10.0594 4.30561L7.95768 5.82306C7.77263 5.95667 7.69518 6.19458 7.76611 6.41153L8.57021 8.87088C8.72807 9.35372 8.17619 9.75671 7.76433 9.45934L5.65001 7.93277C5.46664 7.80038 5.21907 7.80038 5.03571 7.93277L2.92138 9.45934C2.50953 9.75671 1.95764 9.35371 2.11551 8.87088L2.91961 6.41153C2.99054 6.19458 2.91309 5.95667 2.72804 5.82306L0.626357 4.30561C0.213611 4.0076 0.424421 3.3555 0.933508 3.3555H3.53831C3.76527 3.3555 3.96651 3.20958 4.03704 2.99386L4.84413 0.525349Z" fill="#FAD223"/>
</svg>
