<svg width="10" height="8" viewBox="0 0 10 8" fill="none" xmlns="http://www.w3.org/2000/svg">
<path d="M6.65759 0.0515336V0.0498047H7.10773L7.2722 0.0826537C7.38185 0.10398 7.4814 0.131927 7.57085 0.166505C7.6603 0.201083 7.74687 0.241427 7.83054 0.287528C7.91422 0.333629 7.99011 0.380603 8.05821 0.428433C8.12573 0.475692 8.18633 0.525831 8.24 0.578847C8.29308 0.632443 8.3759 0.646274 8.48843 0.620341C8.60096 0.594407 8.72215 0.558386 8.852 0.512285C8.98185 0.466184 9.11026 0.414317 9.23721 0.356684C9.36418 0.299051 9.44151 0.262459 9.46922 0.246899C9.49634 0.230768 9.51077 0.222124 9.5125 0.220965L9.51422 0.218372L9.52288 0.21405L9.53153 0.209728L9.54019 0.205405L9.54885 0.201083L9.55058 0.19849L9.55317 0.196761L9.55578 0.195032L9.5575 0.192439L9.56616 0.189845L9.57481 0.188116L9.57309 0.201083L9.57049 0.21405L9.56616 0.227017L9.56183 0.239983L9.5575 0.248628L9.55317 0.257272L9.54885 0.270239C9.54596 0.278884 9.54308 0.290407 9.54019 0.304817C9.53731 0.319227 9.50989 0.376851 9.45795 0.477707C9.40601 0.578562 9.34109 0.680852 9.26318 0.784586C9.18527 0.88832 9.11545 0.96669 9.05371 1.01972C8.99138 1.07331 8.95011 1.11077 8.92991 1.13209C8.90971 1.15399 8.88519 1.17416 8.85633 1.19261L8.81305 1.22113L8.80439 1.22545L8.79573 1.22978L8.79401 1.23237L8.79141 1.2341L8.78881 1.23583L8.78708 1.23842L8.77842 1.24274L8.76976 1.24707L8.76804 1.24966L8.76544 1.25139L8.76284 1.25312L8.76111 1.25571L8.75939 1.2583L8.75678 1.26003L8.75418 1.26176L8.75245 1.26435H8.79573L9.03811 1.21249C9.19971 1.17791 9.35408 1.13613 9.50124 1.08714L9.73496 1.00934L9.76093 1.0007L9.77391 0.996376L9.78257 0.992053L9.79123 0.987731L9.79988 0.983409L9.80854 0.979087L9.82585 0.976493L9.84316 0.974764V0.992053L9.83884 0.993782L9.83451 0.996376L9.83279 0.998969L9.83018 1.0007L9.82758 1.00243L9.82585 1.00502L9.82413 1.00761L9.82152 1.00934L9.81893 1.01107L9.81719 1.01366L9.81547 1.01626L9.81287 1.01799L9.80854 1.02663L9.80421 1.03528L9.80161 1.037C9.80046 1.03873 9.76382 1.08771 9.69168 1.18396C9.61954 1.28078 9.58059 1.32976 9.57481 1.33092C9.56905 1.33265 9.56096 1.34129 9.55058 1.35685C9.54077 1.37298 9.47959 1.43724 9.36706 1.54962C9.25453 1.662 9.14431 1.76198 9.03639 1.84959C8.9279 1.93776 8.87307 2.0461 8.87192 2.17462C8.87019 2.30256 8.86355 2.44721 8.852 2.60857C8.84046 2.76994 8.81882 2.94426 8.78708 3.13156C8.75534 3.31886 8.70629 3.53065 8.63992 3.76693C8.57356 4.00321 8.49276 4.23374 8.39754 4.45849C8.30232 4.68325 8.20277 4.88495 8.09889 5.06361C7.99501 5.24226 7.89979 5.39354 7.81323 5.51744C7.72666 5.64134 7.63866 5.75804 7.54921 5.86754C7.45976 5.97704 7.34665 6.10037 7.20988 6.23753C7.07253 6.37411 6.99751 6.44903 6.98481 6.46228C6.97154 6.47496 6.91499 6.52222 6.81514 6.60405C6.71588 6.68646 6.60912 6.76887 6.49485 6.85128C6.38117 6.93312 6.27671 7.00141 6.18149 7.05616C6.08627 7.1109 5.97143 7.17343 5.83696 7.24374C5.70308 7.31463 5.55822 7.38033 5.40241 7.44084C5.24659 7.50135 5.08212 7.55754 4.90899 7.60941C4.73586 7.66127 4.56851 7.70162 4.40692 7.73043C4.24533 7.75924 4.0621 7.78374 3.85723 7.80391L3.54993 7.83416V7.83848H2.98726V7.83416L2.91368 7.82984C2.86463 7.82696 2.82423 7.82407 2.79249 7.8212C2.76075 7.81832 2.641 7.80246 2.43325 7.77365C2.22549 7.74484 2.06246 7.71602 1.94416 7.68721C1.82586 7.65839 1.64984 7.60364 1.41611 7.52296C1.18239 7.44228 0.982425 7.36073 0.816221 7.27832C0.650597 7.19649 0.54672 7.14462 0.504589 7.12272C0.463038 7.1014 0.416293 7.07489 0.364354 7.04319L0.286446 6.99565L0.284724 6.99305L0.282118 6.99133L0.279521 6.9896L0.27779 6.987L0.269133 6.98268L0.260477 6.97836L0.258754 6.97577L0.256149 6.97404L0.253552 6.97231L0.251821 6.96971L0.250098 6.96712L0.247492 6.96539H0.243164V6.9481L0.251821 6.94983L0.260477 6.95243L0.299431 6.95675C0.3254 6.95963 0.396098 6.96395 0.511514 6.96971C0.626939 6.97548 0.749566 6.97548 0.879413 6.96971C1.00926 6.96395 1.142 6.95098 1.27761 6.93081C1.41323 6.91065 1.57337 6.87607 1.75804 6.82708C1.94272 6.77809 2.11239 6.71989 2.26705 6.65246C2.42113 6.58446 2.53078 6.53375 2.596 6.50032C2.66062 6.46747 2.75931 6.40638 2.89204 6.31706L3.09114 6.18307L3.09287 6.18047L3.09546 6.17874L3.09807 6.17701L3.09979 6.17442L3.10152 6.17183L3.10412 6.1701L3.10673 6.16837L3.10845 6.16578L3.1171 6.16318L3.12576 6.16145L3.12749 6.15281L3.13009 6.14417L3.13269 6.14244L3.13442 6.13984L3.06517 6.13552C3.019 6.13264 2.97427 6.12976 2.93099 6.12688C2.88771 6.124 2.8199 6.11103 2.72756 6.08798C2.63523 6.06492 2.53569 6.03034 2.42892 5.98424C2.32216 5.93814 2.21828 5.88339 2.11729 5.82C2.0163 5.75661 1.94329 5.70387 1.89828 5.6618C1.85384 5.6203 1.79613 5.56153 1.72515 5.48546C1.65474 5.40881 1.59357 5.33014 1.54163 5.24946C1.48969 5.16878 1.44007 5.0757 1.39275 4.97024L1.32089 4.81292L1.31656 4.79995L1.31224 4.78698L1.30964 4.77834L1.30791 4.76969L1.32089 4.77142L1.33388 4.77401L1.4291 4.78698C1.49258 4.79563 1.59213 4.7985 1.72774 4.79563C1.86337 4.79275 1.95714 4.78698 2.00908 4.77834C2.06102 4.76969 2.09276 4.76393 2.1043 4.76105L2.12161 4.75673L2.14325 4.7524L2.1649 4.74808L2.16663 4.74549L2.16922 4.74376L2.17183 4.74203L2.17355 4.73944L2.15624 4.73512L2.13893 4.73079L2.12161 4.72647L2.1043 4.72215L2.08699 4.71783C2.07545 4.71495 2.05525 4.70918 2.02639 4.70054C1.99754 4.69189 1.91963 4.66019 1.79267 4.60545C1.66571 4.5507 1.56472 4.49739 1.48969 4.44552C1.41448 4.39351 1.34277 4.33662 1.27501 4.27523C1.20749 4.21299 1.13334 4.13288 1.05254 4.03491C0.971751 3.93694 0.899617 3.82312 0.836131 3.69345C0.772653 3.56379 0.725043 3.43989 0.693299 3.32174C0.661684 3.20429 0.640825 3.08422 0.630982 2.963L0.615391 2.78146L0.624048 2.78319L0.632704 2.78578L0.641361 2.79011L0.650017 2.79443L0.658674 2.79875L0.66733 2.80307L0.801505 2.86358C0.890961 2.90393 1.00205 2.93851 1.13478 2.96732C1.26752 2.99613 1.34686 3.01198 1.37283 3.01486L1.41178 3.01918H1.48969L1.48797 3.01659L1.48536 3.01486L1.48277 3.01313L1.48104 3.01054L1.47931 3.00795L1.47671 3.00622L1.47411 3.00449L1.47238 3.0019L1.46372 2.99757L1.45507 2.99325L1.45334 2.99066L1.45074 2.98893L1.44814 2.9872L1.44641 2.98461L1.43775 2.98028L1.4291 2.97596L1.42737 2.97337C1.42564 2.97221 1.40083 2.95377 1.35292 2.91804C1.3056 2.88174 1.25597 2.83477 1.20403 2.77714C1.15209 2.71951 1.10015 2.659 1.04821 2.59561C0.996179 2.53207 0.949834 2.46409 0.909711 2.39246C0.86932 2.32043 0.826609 2.22879 0.781595 2.11757C0.737162 2.00692 0.703401 1.8954 0.680315 1.78302C0.657237 1.67065 0.644252 1.55971 0.641361 1.45021C0.638478 1.34071 0.641361 1.24707 0.650017 1.16927C0.658674 1.09146 0.675986 1.00358 0.701956 0.905609C0.727925 0.807641 0.765442 0.703907 0.81449 0.594407L0.888069 0.430162L0.892398 0.417195L0.896726 0.404229L0.899332 0.4025L0.901054 0.399906L0.902785 0.397313L0.905382 0.395584L0.907988 0.397313L0.909711 0.399906L0.911442 0.4025L0.914039 0.404229L0.916644 0.405957L0.918367 0.408551L0.920098 0.411144L0.922695 0.412873L0.927023 0.421517L0.931352 0.430162L0.933957 0.431891L0.93568 0.434484L1.05254 0.564151C1.13045 0.650596 1.22279 0.747129 1.32955 0.853742C1.43632 0.960354 1.49547 1.01568 1.50701 1.01972C1.51855 1.02432 1.53297 1.03758 1.55029 1.05948C1.5676 1.08081 1.62531 1.13181 1.72342 1.21249C1.82153 1.29317 1.94993 1.38682 2.10863 1.49343C2.26734 1.60005 2.44335 1.70522 2.63667 1.80896C2.83 1.91269 3.03776 2.00634 3.25994 2.0899C3.48212 2.17347 3.63794 2.22821 3.72738 2.25415C3.81684 2.28008 3.96976 2.31322 4.18618 2.35356C4.40259 2.3939 4.56562 2.41984 4.67527 2.43136C4.78492 2.44288 4.85994 2.44951 4.90033 2.45124L4.96093 2.45297L4.95921 2.44L4.9566 2.42704L4.93929 2.31898C4.92775 2.24695 4.92197 2.14609 4.92197 2.01642C4.92197 1.88676 4.93208 1.76718 4.95227 1.65768C4.97248 1.54818 5.00277 1.43724 5.04316 1.32487C5.08356 1.21249 5.1231 1.12229 5.16176 1.05429C5.20101 0.986867 5.25236 0.909931 5.31584 0.823486C5.37933 0.737041 5.46157 0.647718 5.56255 0.555507C5.66355 0.463296 5.77896 0.381174 5.90881 0.309139C6.03866 0.237105 6.15841 0.182351 6.26805 0.144894C6.3777 0.107437 6.47004 0.082939 6.54506 0.0714159C6.62008 0.0598928 6.65759 0.0532625 6.65759 0.0515336Z" fill="white"/>
</svg>
