<svg width="32" height="30" viewBox="0 0 32 30" fill="none" xmlns="http://www.w3.org/2000/svg">
<path d="M0 2.90669C0.0982533 2.57918 0.171943 2.2353 0.29476 1.91597C0.66321 0.974378 1.61299 3.34056e-05 3.12773 0.00822118C10.7424 0.0327845 18.3488 0.0409723 25.9634 3.34057e-05C27.863 -0.00815437 28.9765 1.49021 29.1157 2.92307C29.1403 3.17689 29.1485 3.43071 29.1485 3.69272C29.1485 7.87667 29.1485 12.0688 29.1567 16.2528C29.1567 16.4165 29.2222 16.6294 29.3368 16.7358C30.0655 17.3909 30.0164 18.4061 29.3695 18.9547C29.345 18.9711 29.3368 19.0039 29.3286 19.0202C29.4596 19.3396 29.5742 19.6589 29.7216 19.9536C29.7626 20.0355 29.8854 20.1256 29.9836 20.1338C30.8925 20.2238 31.3919 20.7479 31.3919 21.6567C31.3919 21.9842 31.4001 22.3117 31.3919 22.6392C31.3755 23.4089 30.8106 24.0066 30.0409 24.023C29.8281 24.0311 29.7216 24.0885 29.6807 24.2932C29.6643 24.3587 29.6397 24.4324 29.607 24.4979C29.3859 24.8827 29.3122 25.202 29.6725 25.6196C30.0491 26.0617 29.9345 26.7577 29.5415 27.1998C29.2549 27.5191 28.952 27.8221 28.6326 28.1168C28.0923 28.6081 27.3062 28.6081 26.774 28.1005C26.6103 27.9449 26.4793 27.9203 26.3073 28.035C26.2991 28.0432 26.2909 28.0432 26.2828 28.0432C25.7751 28.1905 25.4067 28.3952 25.3493 29.0503C25.3002 29.607 24.6861 29.9755 24.1048 29.9918C23.7282 30 23.3515 30 22.9749 29.9918C22.2052 29.9837 21.6321 29.4596 21.583 28.6818C21.5666 28.4198 21.4602 28.3297 21.2391 28.2397C20.7806 28.0513 20.4121 27.8467 19.9209 28.2888C19.5197 28.6572 18.8237 28.5017 18.3979 28.1168C18.0786 27.8303 17.7757 27.5273 17.4891 27.208C16.9978 26.6594 17.006 25.8816 17.5136 25.3412C17.6692 25.1774 17.6856 25.0546 17.571 24.8663C17.4973 24.7435 17.4481 24.6043 17.399 24.4733C17.2189 24.023 17.2189 24.0148 16.7194 24.0148C15.1883 24.0148 13.6572 24.0148 12.1261 24.0148C11.7331 24.0148 11.4793 23.8183 11.4301 23.4989C11.3646 23.0896 11.643 22.7784 12.0933 22.7784C13.1496 22.7702 14.1976 22.7784 15.2538 22.7784C15.3603 22.7784 15.4749 22.7784 15.6223 22.7784C15.6223 22.3854 15.6223 22.017 15.6223 21.6567C15.6305 20.7233 16.1135 20.1993 17.0469 20.1174C17.137 20.1092 17.2598 20.0191 17.3008 19.9291C17.44 19.6343 17.5464 19.3232 17.6774 19.0039C17.6119 18.9302 17.5382 18.8565 17.4645 18.7664C16.9978 18.2178 17.006 17.4482 17.4973 16.916C17.7593 16.6294 18.0377 16.3592 18.316 16.089C18.881 15.5486 19.667 15.5241 20.2484 16.0644C20.4039 16.2118 20.5267 16.2446 20.6987 16.1218C20.756 16.0808 20.8215 16.0481 20.8952 16.0317C21.3373 15.9253 21.5993 15.7206 21.6403 15.1884C21.6812 14.6398 22.2052 14.2304 22.762 14.1813C23.196 14.1403 23.6381 14.1403 24.0802 14.1649C24.8663 14.1976 25.3903 14.7053 25.4476 15.4995C25.464 15.7042 25.5213 15.8024 25.7178 15.8598C25.9634 15.9334 26.1845 16.0644 26.4219 16.1463C26.5038 16.1709 26.6512 16.1709 26.7085 16.1136C27.0442 15.7861 27.4372 15.6387 27.9285 15.6632C27.9285 13.5917 27.9285 11.5284 27.9285 9.44054C19.0529 9.44054 10.1856 9.44054 1.27729 9.44054C1.27729 9.55517 1.27729 9.66979 1.27729 9.77624C1.27729 13.3461 1.2691 16.9242 1.28548 20.494C1.28548 20.887 1.35917 21.2964 1.50655 21.6567C1.80131 22.3936 2.35808 22.7948 3.19323 22.7784C4.27402 22.7539 5.36299 22.7702 6.44378 22.7702C6.91048 22.7702 7.19705 23.0077 7.18887 23.3925C7.18068 23.7773 6.90229 24.0066 6.4274 24.0066C5.37118 24.0066 4.32314 23.9656 3.26692 24.0148C1.39192 24.0966 0.327511 22.6556 0.0982533 21.321C0.0900655 21.2555 0.0573144 21.19 0.0409389 21.1245C0 15.0655 0 8.98202 0 2.90669ZM1.24454 8.17962C10.1365 8.17962 19.0038 8.17962 27.9039 8.17962C27.9039 7.90942 27.9039 7.6556 27.9039 7.40178C27.9039 6.00167 27.9203 4.59337 27.8876 3.19327C27.8548 1.97329 27.077 1.25276 25.8734 1.25276C24.8745 1.25276 23.8674 1.25276 22.8685 1.25276C16.2773 1.25276 9.68614 1.25276 3.10317 1.24458C2.53002 1.24458 2.07151 1.44108 1.71943 1.89141C1.36736 2.34992 1.22817 2.87394 1.22817 3.4389C1.22817 4.92089 1.22817 6.41106 1.22817 7.89305C1.23635 7.98311 1.24454 8.07318 1.24454 8.17962ZM28.649 26.2828C28.5999 26.2173 28.559 26.16 28.5098 26.1108C28.3952 25.9962 28.2806 25.8816 28.1659 25.7588C27.863 25.4476 27.863 25.2348 28.0513 24.8499C28.2724 24.3996 28.4771 23.9411 28.6326 23.4744C28.821 22.9176 28.9274 22.803 29.5169 22.803C30.2293 22.803 30.1556 22.8521 30.1556 22.1561C30.1556 21.4111 30.1556 21.4111 29.4023 21.3865C28.9683 21.3701 28.8128 21.2227 28.6654 20.797C28.5016 20.3139 28.3133 19.839 28.0841 19.3887C27.8466 18.9138 27.8466 18.7255 28.2151 18.357C28.6981 17.8739 28.6981 17.8739 28.2151 17.3909C27.7074 16.875 27.7074 16.875 27.1834 17.3827C26.8477 17.7102 26.6348 17.7184 26.2254 17.5137C25.7505 17.2844 25.2593 17.0797 24.7598 16.9078C24.3177 16.7522 24.1703 16.5967 24.1621 16.1136C24.1539 15.4258 24.1539 15.4258 23.4825 15.4258C22.7538 15.4258 22.7538 15.4258 22.7456 16.1463C22.7374 16.613 22.5983 16.7686 22.1643 16.916C21.6976 17.0797 21.2309 17.2599 20.7806 17.4891C20.2893 17.7348 20.1092 17.7348 19.7243 17.3499C19.184 16.8177 19.3231 16.8177 18.7828 17.3581C18.2669 17.8739 18.2669 17.8739 18.7664 18.3898C19.1103 18.7418 19.1103 18.9302 18.8974 19.3723C18.6763 19.8308 18.4798 20.3057 18.316 20.7806C18.1687 21.2227 17.9967 21.3783 17.5218 21.3865C16.8177 21.3947 16.8177 21.3947 16.8259 22.0825C16.8341 22.9094 16.7358 22.7948 17.5382 22.803C18.0213 22.8112 18.1687 22.9504 18.3242 23.4089C18.4798 23.8674 18.6599 24.3259 18.881 24.768C19.1348 25.2757 19.1348 25.4476 18.7336 25.8488C18.2014 26.381 18.2178 26.2418 18.7418 26.7659C19.2658 27.2981 19.2658 27.2981 19.8144 26.7741C20.1255 26.4711 20.3384 26.4629 20.7233 26.6512C21.1736 26.8723 21.6239 27.077 22.0988 27.2408C22.6719 27.4291 22.7866 27.5437 22.7866 28.1496C22.7866 28.8456 22.7211 28.7719 23.4088 28.7719C24.1867 28.7719 24.1867 28.7719 24.2031 28.0022C24.2031 27.9695 24.2031 27.9449 24.2031 27.9122C24.2112 27.5928 24.375 27.4127 24.6698 27.2981C25.2265 27.077 25.7833 26.8559 26.3319 26.6103C26.6348 26.4711 26.8805 26.4957 27.1179 26.7249C27.2571 26.8559 27.3963 26.9951 27.5273 27.1343C27.6419 27.2489 27.7402 27.2735 27.863 27.1425C28.0841 26.9132 28.3133 26.6922 28.5344 26.4629C28.5753 26.4138 28.6081 26.3483 28.649 26.2828Z" fill="url(#paint0_linear_2537_27191)"/>
<path d="M13.8215 16.1136C13.3548 15.5896 12.9044 15.0819 12.4541 14.5661C12.3968 14.5006 12.3313 14.4269 12.274 14.3532C12.0939 14.0912 12.143 13.7555 12.3641 13.5426C12.5933 13.3379 12.9618 13.3134 13.1665 13.5426C13.8051 14.2304 14.4274 14.9345 15.0333 15.6469C15.2707 15.9253 15.2462 16.3265 15.0005 16.613C14.4192 17.2926 13.8215 17.964 13.2156 18.6272C12.9781 18.8811 12.6015 18.8811 12.3641 18.6682C12.1102 18.4389 12.0775 18.0705 12.3231 17.7921C12.6916 17.3581 13.0846 16.9324 13.4612 16.5066C13.584 16.392 13.6987 16.261 13.8215 16.1136Z" fill="url(#paint1_linear_2537_27191)"/>
<path d="M4.86351 16.1217C5.37115 16.6948 5.85423 17.2352 6.33731 17.7838C6.542 18.013 6.58294 18.2751 6.42737 18.5453C6.2718 18.8073 6.02617 18.8973 5.7396 18.8073C5.60859 18.7663 5.48578 18.6763 5.39571 18.5698C4.84713 17.9639 4.29855 17.3498 3.76635 16.7358C3.40608 16.3264 3.40608 15.9006 3.75816 15.4994C4.29855 14.8853 4.83894 14.2712 5.38753 13.6653C5.6741 13.346 6.03436 13.3051 6.30456 13.5425C6.59113 13.7882 6.59113 14.1648 6.30456 14.4923C5.82966 15.0327 5.35477 15.5649 4.86351 16.1217Z" fill="url(#paint2_linear_2537_27191)"/>
<path d="M10.5621 13.6573C10.4311 14.1977 10.2919 14.8036 10.1445 15.4094C9.8907 16.482 9.62869 17.5546 9.37487 18.6272C9.3585 18.6927 9.34212 18.7664 9.31756 18.8319C9.21112 19.1758 8.90817 19.3641 8.58885 19.2905C8.25315 19.2168 8.04845 18.9056 8.13033 18.5372C8.35959 17.5219 8.60522 16.5066 8.84267 15.4913C8.99824 14.8281 9.16199 14.1567 9.31756 13.4935C9.38306 13.1988 9.53863 12.9859 9.84976 12.9286C10.2428 12.8631 10.5867 13.1824 10.5621 13.6573Z" fill="url(#paint3_linear_2537_27191)"/>
<path d="M9.26074 22.803C9.61282 22.7948 9.8912 23.065 9.8912 23.4089C9.8912 23.7528 9.61282 24.0312 9.26893 24.0312C8.94142 24.0312 8.66304 23.761 8.64666 23.4335C8.63847 23.0978 8.91686 22.803 9.26074 22.803Z" fill="url(#paint4_linear_2537_27191)"/>
<path d="M21.1406 6.82874C20.199 6.82874 19.2574 6.84511 18.324 6.82055C17.2759 6.79599 16.4326 5.9854 16.318 4.93736C16.2115 3.96302 16.8665 3.02142 17.8327 2.75123C18.0374 2.69391 18.2585 2.66935 18.4632 2.66935C20.2399 2.66116 22.0166 2.66116 23.7934 2.66935C24.6941 2.67754 25.3736 3.07055 25.7503 3.89751C26.1023 4.67535 25.9877 5.42044 25.4473 6.08365C25.0379 6.59129 24.4812 6.82055 23.8343 6.82874C22.9337 6.83693 22.033 6.82874 21.1406 6.82874ZM21.1487 3.91389C20.2399 3.91389 19.3311 3.9057 18.4222 3.91389C17.9064 3.92208 17.5461 4.28234 17.5461 4.74904C17.5461 5.21575 17.9146 5.5842 18.4222 5.5842C20.2153 5.59238 22.0166 5.59238 23.8098 5.5842C24.1618 5.5842 24.4484 5.43682 24.604 5.10931C24.8906 4.53616 24.4894 3.92208 23.8016 3.9057C22.9255 3.9057 22.033 3.91389 21.1487 3.91389Z" fill="url(#paint5_linear_2537_27191)"/>
<path d="M13.1823 4.76526C13.1741 5.90336 12.2407 6.82858 11.1108 6.82858C9.97268 6.82858 9.0229 5.87061 9.03927 4.73251C9.05565 3.59441 9.98905 2.66919 11.1108 2.66919C12.2571 2.66919 13.1905 3.61897 13.1823 4.76526ZM11.9459 4.74888C11.9459 4.29037 11.5529 3.91373 11.0944 3.92192C10.6441 3.93011 10.2838 4.29037 10.2756 4.74888C10.2756 5.21559 10.6441 5.60041 11.1026 5.60041C11.5611 5.59223 11.9541 5.19921 11.9459 4.74888Z" fill="url(#paint6_linear_2537_27191)"/>
<path d="M3.66802 4.75712C3.65983 3.60265 4.59324 2.66105 5.73953 2.66924C6.87763 2.67743 7.79466 3.60265 7.80285 4.74075C7.81104 5.89523 6.87763 6.82863 5.73134 6.82863C4.59324 6.82863 3.67621 5.90341 3.66802 4.75712ZM6.56649 4.74894C6.56649 4.28223 6.18986 3.91378 5.72315 3.92197C5.27283 3.93016 4.90438 4.29861 4.90438 4.74894C4.89619 5.20745 5.28101 5.60047 5.73134 5.60047C6.18986 5.59228 6.56649 5.20745 6.56649 4.74894Z" fill="url(#paint7_linear_2537_27191)"/>
<path d="M19.7158 22.0907C19.7158 20.0029 21.4025 18.308 23.4904 18.308C25.5701 18.308 27.2731 20.011 27.2649 22.0989C27.2568 24.1622 25.5537 25.8653 23.4986 25.8735C21.4189 25.8735 19.7158 24.1704 19.7158 22.0907ZM20.9522 22.0825C20.9522 23.4827 22.0739 24.6208 23.474 24.6289C24.8659 24.6371 26.0368 23.4663 26.0286 22.0744C26.0204 20.6742 24.8823 19.5443 23.4822 19.5443C22.0821 19.5443 20.9522 20.6743 20.9522 22.0825Z" fill="url(#paint8_linear_2537_27191)"/>
<defs>
<linearGradient id="paint0_linear_2537_27191" x1="15.6978" y1="0" x2="15.6978" y2="29.998" gradientUnits="userSpaceOnUse">
<stop stop-color="#20D4FE"/>
<stop offset="1" stop-color="#B722FF"/>
</linearGradient>
<linearGradient id="paint1_linear_2537_27191" x1="13.677" y1="13.3798" x2="13.677" y2="18.8231" gradientUnits="userSpaceOnUse">
<stop stop-color="#20D4FE"/>
<stop offset="1" stop-color="#B722FF"/>
</linearGradient>
<linearGradient id="paint2_linear_2537_27191" x1="5.0085" y1="13.3906" x2="5.0085" y2="18.8412" gradientUnits="userSpaceOnUse">
<stop stop-color="#20D4FE"/>
<stop offset="1" stop-color="#B722FF"/>
</linearGradient>
<linearGradient id="paint3_linear_2537_27191" x1="9.33782" y1="12.92" x2="9.33782" y2="19.3063" gradientUnits="userSpaceOnUse">
<stop stop-color="#20D4FE"/>
<stop offset="1" stop-color="#B722FF"/>
</linearGradient>
<linearGradient id="paint4_linear_2537_27191" x1="9.26884" y1="22.8029" x2="9.26884" y2="24.0312" gradientUnits="userSpaceOnUse">
<stop stop-color="#20D4FE"/>
<stop offset="1" stop-color="#B722FF"/>
</linearGradient>
<linearGradient id="paint5_linear_2537_27191" x1="21.1292" y1="2.66321" x2="21.1292" y2="6.83409" gradientUnits="userSpaceOnUse">
<stop stop-color="#20D4FE"/>
<stop offset="1" stop-color="#B722FF"/>
</linearGradient>
<linearGradient id="paint6_linear_2537_27191" x1="11.1107" y1="2.66919" x2="11.1107" y2="6.82858" gradientUnits="userSpaceOnUse">
<stop stop-color="#20D4FE"/>
<stop offset="1" stop-color="#B722FF"/>
</linearGradient>
<linearGradient id="paint7_linear_2537_27191" x1="5.73544" y1="2.66919" x2="5.73544" y2="6.82863" gradientUnits="userSpaceOnUse">
<stop stop-color="#20D4FE"/>
<stop offset="1" stop-color="#B722FF"/>
</linearGradient>
<linearGradient id="paint8_linear_2537_27191" x1="23.4904" y1="18.308" x2="23.4904" y2="25.8735" gradientUnits="userSpaceOnUse">
<stop stop-color="#20D4FE"/>
<stop offset="1" stop-color="#B722FF"/>
</linearGradient>
</defs>
</svg>
