<svg width="12" height="8" viewBox="0 0 12 8" fill="none" xmlns="http://www.w3.org/2000/svg">
<path d="M6.44364 7.66672L4.27714 7.62623C3.57567 7.61212 2.87246 7.64028 2.18475 7.4941C1.13858 7.2757 1.06446 6.20482 0.986912 5.30655C0.880052 4.04371 0.921421 2.75794 1.12308 1.50563C1.23692 0.802955 1.68494 0.383664 2.37778 0.338037C4.71664 0.172451 7.07104 0.192074 9.40471 0.269326C9.65118 0.276408 9.89934 0.315115 10.1424 0.359175C11.342 0.574064 11.3712 1.78761 11.449 2.80919C11.5266 3.8413 11.4938 4.87872 11.3456 5.90381C11.2267 6.75256 10.9991 7.46432 10.0389 7.53303C8.83587 7.62288 7.66041 7.69521 6.45395 7.67218C6.45401 7.66672 6.44708 7.66672 6.44364 7.66672ZM5.16994 5.51793C6.07656 4.98598 6.96588 4.46289 7.86731 3.9345C6.959 3.40255 6.07137 2.87946 5.16994 2.35108V5.51793Z" fill="white"/>
</svg>
